<svg width="8" height="8" viewBox="0 0 8 8" fill="none" xmlns="http://www.w3.org/2000/svg">
<g clip-path="url(#clip0_991_72786)">
<path d="M4.31216 6.22222L7.8722 2.66212C7.9546 2.57978 8 2.46986 8 2.35266C8 2.23546 7.9546 2.12554 7.8722 2.0432L7.61008 1.78102C7.43929 1.61042 7.1617 1.61042 6.99116 1.78102L4.00166 4.77053L1.00884 1.77771C0.926432 1.69537 0.816579 1.6499 0.699441 1.6499C0.582174 1.6499 0.472322 1.69537 0.389851 1.77771L0.127804 2.03988C0.0453982 2.12229 4.51387e-07 2.23214 4.46264e-07 2.34934C4.41141e-07 2.46655 0.0453982 2.57646 0.127804 2.6588L3.69109 6.22222C3.77376 6.30476 3.88413 6.35009 4.00146 6.34983C4.11925 6.35009 4.22956 6.30476 4.31216 6.22222Z" fill="#1D1D1D"/>
</g>
<defs>
<clipPath id="clip0_991_72786">
<rect width="8" height="8" fill="white" transform="translate(8) rotate(90)"/>
</clipPath>
</defs>
</svg>
