<svg width="12" height="8" viewBox="0 0 12 8" fill="none" xmlns="http://www.w3.org/2000/svg">
<path d="M6.00254 5.15641L1.51317 0.667242C1.38985 0.543632 1.22498 0.475633 1.04917 0.475633C0.873268 0.475633 0.708488 0.543632 0.584975 0.667243L0.191805 1.06061C0.0680973 1.18402 -2.69979e-07 1.349 -2.62294e-07 1.5248C-2.54609e-07 1.70061 0.0680973 1.86539 0.191805 1.9889L5.53678 7.33397C5.66068 7.45797 5.82624 7.52588 6.00224 7.52539C6.17903 7.52588 6.34439 7.45807 6.46839 7.33397L11.8082 1.99388C11.9319 1.87036 12 1.70558 12 1.52968C12 1.35388 11.9319 1.1891 11.8082 1.06549L11.415 0.672218C11.1591 0.416315 10.7425 0.416315 10.4867 0.672218L6.00254 5.15641Z" fill="#4F7DF6"/>
</svg>
