<svg width="24" height="23" viewBox="0 0 24 23" fill="none" xmlns="http://www.w3.org/2000/svg">
<path d="M23.1545 10.5926L12.9289 0.36709C12.6924 0.130396 12.3767 0 12.04 0C11.7034 0 11.3877 0.130396 11.1512 0.36709L10.3981 1.11995C9.90809 1.61053 9.90809 2.40785 10.3981 2.89768L18.9848 11.4844L10.3886 20.0807C10.1521 20.3174 10.0215 20.6329 10.0215 20.9693C10.0215 21.3062 10.1521 21.6217 10.3886 21.8586L11.1416 22.6113C11.3783 22.8479 11.6938 22.9783 12.0305 22.9783C12.3671 22.9783 12.6828 22.8479 12.9193 22.6113L23.1545 12.3764C23.3916 12.139 23.5218 11.822 23.5211 11.485C23.5218 11.1466 23.3916 10.8298 23.1545 10.5926Z" fill="white"/>
<path d="M12.3754 10.9814L2.73966 1.34591C2.51679 1.12287 2.21929 1 1.90207 1C1.58486 1 1.28736 1.12287 1.06449 1.34591L0.35489 2.05534C-0.106854 2.51761 -0.106854 3.26893 0.35489 3.7305L8.44623 11.8218L0.345912 19.9222C0.12305 20.1452 0 20.4425 0 20.7596C0 21.077 0.12305 21.3743 0.345912 21.5975L1.05552 22.3068C1.27855 22.5298 1.57588 22.6527 1.8931 22.6527C2.21032 22.6527 2.50782 22.5298 2.73068 22.3068L12.3754 12.6624C12.5988 12.4387 12.7215 12.1399 12.7208 11.8224C12.7215 11.5036 12.5988 11.205 12.3754 10.9814Z" fill="white"/>
</svg>
