<svg width="15" height="15" viewBox="0 0 15 15" fill="none" xmlns="http://www.w3.org/2000/svg">
<g clip-path="url(#clip0_932_20137)">
<path d="M3.11902 6.47304L9.36785 0.224326C9.51237 0.0796843 9.7053 0 9.91102 0C10.1167 0 10.3097 0.0796843 10.4542 0.224326L10.9144 0.684394C11.2138 0.984181 11.2138 1.47142 10.9144 1.77075L5.66709 7.01804L10.9202 12.2712C11.0647 12.4158 11.1445 12.6086 11.1445 12.8142C11.1445 13.02 11.0647 13.2129 10.9202 13.3576L10.46 13.8176C10.3154 13.9622 10.1226 14.0419 9.91684 14.0419C9.71113 14.0419 9.51819 13.9622 9.37367 13.8176L3.11902 7.56316C2.97415 7.41806 2.89458 7.22433 2.89504 7.01838C2.89458 6.81164 2.97415 6.61802 3.11902 6.47304Z" fill="#2E2E2E"/>
</g>
<defs>
<clipPath id="clip0_932_20137">
<rect width="14.0419" height="14.0419" fill="white" transform="matrix(-1 0 0 1 14.041 0)"/>
</clipPath>
</defs>
</svg>
