<svg width="24" height="23" viewBox="0 0 24 23" fill="none" xmlns="http://www.w3.org/2000/svg">
<path d="M0.366954 12.386L10.5926 22.6114C10.8291 22.8481 11.1448 22.9785 11.4815 22.9785C11.8181 22.9785 12.1338 22.8481 12.3703 22.6114L13.1234 21.8586C13.6134 21.368 13.6134 20.5707 13.1234 20.0808L4.53665 11.4941L13.1329 2.89785C13.3694 2.66116 13.5 2.34563 13.5 2.00917C13.5 1.67235 13.3694 1.35682 13.1329 1.11994L12.3799 0.367262C12.1432 0.130568 11.8276 0.000172821 11.491 0.00017285C11.1544 0.00017288 10.8386 0.130569 10.6021 0.367262L0.366954 10.6021C0.129886 10.8395 -0.000322944 11.1565 0.000424342 11.4935C-0.000322885 11.8319 0.129886 12.1487 0.366954 12.386Z" fill="white"/>
<path d="M11.1461 11.9971L20.7818 21.6326C21.0047 21.8556 21.3022 21.9785 21.6194 21.9785C21.9366 21.9785 22.2341 21.8556 22.457 21.6326L23.1666 20.9232C23.6283 20.4609 23.6283 19.7096 23.1666 19.248L15.0752 11.1567L23.1756 3.05635C23.3984 2.83331 23.5215 2.53598 23.5215 2.21894C23.5215 1.90155 23.3984 1.60422 23.1756 1.38101L22.466 0.671757C22.2429 0.448719 21.9456 0.325846 21.6284 0.325846C21.3112 0.325846 21.0137 0.448719 20.7908 0.671757L11.1461 10.3161C10.9227 10.5398 10.8 10.8386 10.8007 11.1561C10.8 11.4749 10.9227 11.7735 11.1461 11.9971Z" fill="white"/>
</svg>
