<svg width="22" height="34" viewBox="0 0 22 34" fill="none" xmlns="http://www.w3.org/2000/svg"><path d="M10.0044 16.8794L0.346708 7.22155C0.123156 6.99817 -9.72316e-08 6.69999 -8.33337e-08 6.38204C-6.94357e-08 6.06409 0.123156 5.7659 0.346708 5.54253L1.05777 4.83129C1.5211 4.36849 2.27416 4.36849 2.73679 4.83129L10.8467 12.9413L18.9657 4.82229C19.1893 4.59892 19.4873 4.47559 19.805 4.47559C20.1232 4.47559 20.4212 4.59892 20.6449 4.82229L21.3558 5.53353C21.5793 5.75708 21.7025 6.05509 21.7025 6.37304C21.7025 6.69099 21.5793 6.98917 21.3558 7.21255L11.6893 16.8794C11.465 17.1033 11.1656 17.2263 10.8473 17.2256C10.5277 17.2263 10.2285 17.1033 10.0044 16.8794Z" fill="#4F7DF6"/><path d="M10.0044 29.1773L0.346708 19.5194C0.123156 19.296 -9.72316e-08 18.9978 -8.33337e-08 18.6799C-6.94357e-08 18.3619 0.123156 18.0638 0.346708 17.8404L1.05777 17.1291C1.5211 16.6663 2.27416 16.6663 2.73679 17.1291L10.8467 25.2391L18.9657 17.1201C19.1893 16.8968 19.4873 16.7734 19.805 16.7734C20.1232 16.7734 20.4212 16.8968 20.6449 17.1201L21.3558 17.8314C21.5793 18.0549 21.7025 18.3529 21.7025 18.6709C21.7025 18.9888 21.5793 19.287 21.3558 19.5104L11.6893 29.1773C11.465 29.4012 11.1656 29.5242 10.8473 29.5235C10.5277 29.5242 10.2285 29.4012 10.0044 29.1773Z" fill="#4F7DF6"/></svg>
