<svg width="15" height="15" viewBox="0 0 15 15" fill="none" xmlns="http://www.w3.org/2000/svg">
<g clip-path="url(#clip0_123_2725)">
<path d="M2.26673 15H12.7334C13.8306 15 14.7223 14.1083 14.7223 13.0111V3.09999C14.7223 2.00276 13.8306 1.11109 12.7334 1.11109H11.9445V0.555545C11.9445 0.249986 11.6945 0 11.3889 0C11.0834 0 10.8334 0.249986 10.8334 0.555545V1.11109H4.16674V0.555545C4.16674 0.249986 3.91671 0 3.61115 0C3.30559 0 3.0556 0.249986 3.0556 0.555545V1.11109H2.26673C1.16951 1.11109 0.277832 2.00276 0.277832 3.09999V13.0111C0.277832 14.1083 1.16951 15 2.26673 15ZM1.38897 3.09999C1.38897 2.61667 1.78341 2.22223 2.26673 2.22223H3.0556V2.77777C3.0556 3.08333 3.30559 3.33332 3.61115 3.33332C3.91671 3.33332 4.1667 3.08333 4.1667 2.77777V2.22223H10.8334V2.77777C10.8334 3.08333 11.0834 3.33332 11.3889 3.33332C11.6945 3.33332 11.9445 3.08333 11.9445 2.77777V2.22223H12.7333C13.2167 2.22223 13.6111 2.61667 13.6111 3.09999V4.72223H1.38897V3.09999ZM1.38897 5.83332H13.6112V13.0111C13.6112 13.4944 13.2168 13.8889 12.7334 13.8889H2.26673C1.78341 13.8889 1.38897 13.4944 1.38897 13.0111V5.83332Z" fill="white"/>
</g>
<defs>
<clipPath id="clip0_123_2725">
<rect width="15" height="15" fill="white"/>
</clipPath>
</defs>
</svg>
