<svg width="22" height="23" viewBox="0 0 22 23" fill="none" xmlns="http://www.w3.org/2000/svg">
<g clip-path="url(#clip0_173_4834)">
<path d="M20.2143 14.8958C18.8703 14.8958 17.5507 14.6856 16.3003 14.2723C15.6875 14.0633 14.9343 14.2551 14.5603 14.6392L12.0921 16.5024C9.22969 14.9744 7.46651 13.2118 5.95942 10.3709L7.76782 7.96701C8.23766 7.4978 8.40618 6.8124 8.20427 6.1693C7.78926 4.91225 7.57843 3.59329 7.57843 2.24878C7.57849 1.27749 6.7883 0.487305 5.81708 0.487305H1.78583C0.814601 0.487305 0.0244141 1.27749 0.0244141 2.24872C0.0244141 13.3815 9.08146 22.4385 20.2143 22.4385C21.1855 22.4385 21.9757 21.6483 21.9757 20.6771V16.6571C21.9756 15.686 21.1854 14.8958 20.2143 14.8958Z" fill="white"/>
</g>
<defs>
<clipPath id="clip0_173_4834">
<rect width="21.9512" height="21.9512" fill="white" transform="translate(0.0244141 0.487305)"/>
</clipPath>
</defs>
</svg>
