<svg width="21" height="21" viewBox="0 0 21 21" fill="none" xmlns="http://www.w3.org/2000/svg">
<g clip-path="url(#clip0_673_47951)">
<path d="M16.9263 19.8896C17.1064 19.8896 17.284 19.9582 17.4192 20.0887C18.2831 20.923 19.5434 21.2007 20.6637 20.853C19.9427 19.351 19.8428 17.6301 20.4015 16.0368C21.0949 14.0543 21.2687 12.0674 20.4796 10.0745C19.7862 8.32389 18.4483 6.86944 16.7551 6.04004C16.8592 6.5954 16.9117 7.16125 16.9117 7.73309C16.9118 10.1603 15.9784 12.4432 14.2838 14.1612C12.5889 15.8795 10.317 16.8456 7.88652 16.8818C7.43497 16.8888 6.98545 16.8623 6.54102 16.8037C7.87675 19.145 10.3959 20.6699 13.1642 20.711C14.3752 20.7297 15.5379 20.476 16.6208 19.9589C16.7183 19.9123 16.8227 19.8896 16.9263 19.8896Z" fill="white"/>
<path d="M7.90605 0.00154299C3.59451 -0.0840684 0.0104194 3.40391 2.33788e-05 7.71452C-0.00252365 8.76769 0.203058 9.78879 0.611103 10.7496C0.617028 10.7636 0.622538 10.7777 0.627528 10.7921C1.18626 12.3854 1.08641 14.1062 0.36534 15.6083C1.48577 15.9559 2.74588 15.6783 3.60989 14.8439C3.82275 14.6383 4.14123 14.5865 4.40831 14.7142C5.491 15.2313 6.6539 15.4858 7.86483 15.4663C12.1426 15.4028 15.4936 12.0062 15.4935 7.73355C15.4936 3.55418 12.0898 0.0856469 7.90605 0.00154299ZM3.61457 8.88855C2.99512 8.88855 2.49294 8.3872 2.49294 7.76879C2.49294 7.15038 2.99512 6.64903 3.61457 6.64903C4.23402 6.64903 4.7362 7.15038 4.7362 7.76879C4.73615 8.3872 4.23402 8.88855 3.61457 8.88855ZM7.74679 8.88855C7.12734 8.88855 6.62516 8.3872 6.62516 7.76879C6.62516 7.15038 7.12734 6.64903 7.74679 6.64903C8.36624 6.64903 8.86842 7.15038 8.86842 7.76879C8.86842 8.3872 8.36624 8.88855 7.74679 8.88855ZM11.8791 8.88855C11.2596 8.88855 10.7574 8.3872 10.7574 7.76879C10.7574 7.15038 11.2596 6.64903 11.8791 6.64903C12.4985 6.64903 13.0007 7.15038 13.0007 7.76879C13.0007 8.3872 12.4985 8.88855 11.8791 8.88855Z" fill="white"/>
</g>
<defs>
<clipPath id="clip0_673_47951">
<rect width="21" height="21" fill="white"/>
</clipPath>
</defs>
</svg>
