<svg width="21" height="21" viewBox="0 0 21 21" fill="none" xmlns="http://www.w3.org/2000/svg">
<g clip-path="url(#clip0_178_515)">
<path d="M16.9258 19.8896C17.1059 19.8896 17.2835 19.9582 17.4187 20.0887C18.2826 20.923 19.5429 21.2007 20.6632 20.853C19.9422 19.351 19.8423 17.6301 20.401 16.0368C21.0945 14.0543 21.2682 12.0674 20.4791 10.0745C19.7858 8.32389 18.4478 6.86944 16.7546 6.04004C16.8588 6.5954 16.9113 7.16125 16.9113 7.73309C16.9113 10.1603 15.9779 12.4432 14.2833 14.1612C12.5884 15.8795 10.3165 16.8456 7.88603 16.8818C7.43448 16.8888 6.98496 16.8623 6.54053 16.8037C7.87626 19.145 10.3954 20.6699 13.1637 20.711C14.3747 20.7297 15.5374 20.476 16.6203 19.9589C16.7178 19.9123 16.8222 19.8896 16.9258 19.8896Z" fill="#4F7DF6"/>
<path d="M7.90581 0.00154299C3.59426 -0.0840684 0.0101753 3.40391 -0.000220762 7.71452C-0.00276779 8.76769 0.202814 9.78879 0.610858 10.7496C0.616784 10.7636 0.622294 10.7777 0.627284 10.7921C1.18602 12.3854 1.08617 14.1062 0.365096 15.6083C1.48553 15.9559 2.74563 15.6783 3.60965 14.8439C3.82251 14.6383 4.14099 14.5865 4.40806 14.7142C5.49076 15.2313 6.65366 15.4858 7.86459 15.4663C12.1424 15.4028 15.4933 12.0062 15.4933 7.73355C15.4933 3.55418 12.0895 0.0856469 7.90581 0.00154299ZM3.61433 8.88855C2.99488 8.88855 2.4927 8.3872 2.4927 7.76879C2.4927 7.15038 2.99488 6.64903 3.61433 6.64903C4.23377 6.64903 4.73595 7.15038 4.73595 7.76879C4.7359 8.3872 4.23377 8.88855 3.61433 8.88855ZM7.74654 8.88855C7.1271 8.88855 6.62492 8.3872 6.62492 7.76879C6.62492 7.15038 7.1271 6.64903 7.74654 6.64903C8.36599 6.64903 8.86817 7.15038 8.86817 7.76879C8.86817 8.3872 8.36599 8.88855 7.74654 8.88855ZM11.8788 8.88855C11.2594 8.88855 10.7572 8.3872 10.7572 7.76879C10.7572 7.15038 11.2594 6.64903 11.8788 6.64903C12.4983 6.64903 13.0004 7.15038 13.0004 7.76879C13.0004 8.3872 12.4983 8.88855 11.8788 8.88855Z" fill="#4F7DF6"/>
</g>
<defs>
<clipPath id="clip0_178_515">
<rect width="21" height="21" fill="white"/>
</clipPath>
</defs>
</svg>
