<svg width="22" height="21" viewBox="0 0 22 21" fill="none" xmlns="http://www.w3.org/2000/svg">
<path d="M6.80092 14.9098C6.76949 14.8604 6.73807 14.8155 6.71113 14.7706C5.91202 13.3385 5.11292 11.9109 4.32728 10.4743C4.10281 10.0658 3.78407 9.81885 3.33962 9.71111C2.86375 9.59438 2.38339 9.59887 1.90752 9.68417C1.31492 9.78743 0.749266 9.97598 0.304819 10.4114C-0.0363715 10.7526 -0.0902437 11.1522 0.138713 11.5742C0.295841 11.8615 0.461947 12.1488 0.619074 12.4361C1.90752 14.7482 3.19596 17.0602 4.47543 19.3767C4.69092 19.7673 5.00966 19.9962 5.42717 20.0995C6.14098 20.279 6.84132 20.2117 7.52819 19.9693C8.031 19.7942 8.43055 19.5024 8.69093 19.013C8.92887 18.5641 9.20721 18.1421 9.47208 17.7066C11.4384 14.4743 13.4945 11.3093 15.8066 8.31492C17.5529 6.05677 19.4205 3.91086 21.4811 1.93554C21.6472 1.77842 21.7909 1.58537 21.8986 1.38335C22.0827 1.04216 22.0019 0.696481 21.6786 0.476503C21.4676 0.332843 21.2252 0.21612 20.9783 0.153269C19.7482 -0.174454 18.6753 -0.00834758 17.7235 0.961353C15.7886 2.92769 13.9255 4.9479 12.251 7.13871C10.9805 8.80426 9.76838 10.5192 8.55625 12.2296C7.9457 13.0961 7.38902 14.0074 6.80092 14.9098Z" fill="white"/>
<path d="M6.80092 14.9098C7.38902 14.0074 7.9457 13.0961 8.56074 12.2296C9.77287 10.5192 10.985 8.80426 12.2555 7.13871C13.9255 4.9479 15.7931 2.92769 17.728 0.961353C18.6797 -0.00834758 19.7572 -0.174454 20.9828 0.153269C21.2297 0.22061 21.4721 0.337333 21.6831 0.476503C22.0064 0.696481 22.0872 1.03767 21.9031 1.38335C21.7954 1.58537 21.6472 1.77842 21.4856 1.93554C19.4205 3.91086 17.5529 6.05677 15.8111 8.31492C13.499 11.3093 11.4384 14.4788 9.47657 17.7066C9.2117 18.1421 8.93336 18.5641 8.69542 19.013C8.43504 19.5024 8.03549 19.7942 7.53268 19.9693C6.84581 20.2117 6.14547 20.279 5.43166 20.0995C5.01415 19.9962 4.69541 19.7673 4.47992 19.3767C3.19596 17.0557 1.90752 14.7482 0.619074 12.4317C0.457458 12.1443 0.295841 11.857 0.138713 11.5697C-0.0902437 11.1477 -0.0363715 10.7437 0.304819 10.407C0.749266 9.967 1.31043 9.78294 1.90752 9.67968C2.38339 9.59887 2.86375 9.58989 3.33962 9.70662C3.78407 9.81436 4.1073 10.0613 4.32728 10.4698C5.11292 11.9064 5.91651 13.334 6.71113 14.7661C6.73807 14.8155 6.76949 14.8559 6.80092 14.9098Z" fill="#4F7DF6"/>
</svg>
