<svg width="38" height="25" viewBox="0 0 38 25" fill="none" xmlns="http://www.w3.org/2000/svg">
<g clip-path="url(#clip0_141_51)">
<path d="M18.8727 13.4074L8.62811 23.6518C8.39116 23.8889 8.07486 24.0195 7.7376 24.0195C7.40034 24.0195 7.08404 23.8889 6.84709 23.6518L6.09265 22.8975C5.60173 22.406 5.60173 21.6072 6.09265 21.1165L14.6953 12.5139L6.0831 3.90168C5.84616 3.66455 5.71533 3.34843 5.71533 3.01136C5.71533 2.67391 5.84616 2.35779 6.0831 2.12047L6.83755 1.3664C7.07468 1.12927 7.39079 0.998634 7.72805 0.998634C8.06532 0.998634 8.38162 1.12927 8.61856 1.3664L18.8727 11.6202C19.1102 11.858 19.2407 12.1757 19.2399 12.5133C19.2407 12.8522 19.1102 13.1697 18.8727 13.4074Z" fill="white"/>
</g>
<g clip-path="url(#clip1_141_51)">
<path d="M31.9191 13.4074L21.6745 23.6518C21.4375 23.8889 21.1212 24.0195 20.784 24.0195C20.4467 24.0195 20.1304 23.8889 19.8935 23.6518L19.139 22.8975C18.6481 22.406 18.6481 21.6072 19.139 21.1165L27.7417 12.5139L19.1295 3.90168C18.8925 3.66455 18.7617 3.34843 18.7617 3.01136C18.7617 2.67391 18.8925 2.35779 19.1295 2.12047L19.8839 1.3664C20.1211 1.12927 20.4372 0.998634 20.7744 0.998634C21.1117 0.998634 21.428 1.12927 21.6649 1.3664L31.9191 11.6202C32.1566 11.858 32.287 12.1757 32.2863 12.5133C32.287 12.8522 32.1566 13.1697 31.9191 13.4074Z" fill="white"/>
</g>
<defs>
<clipPath id="clip0_141_51">
<rect width="23.0209" height="23.0209" fill="white" transform="matrix(1 0 0 -1 0.967285 24.0195)"/>
</clipPath>
<clipPath id="clip1_141_51">
<rect width="23.0209" height="23.0209" fill="white" transform="matrix(1 0 0 -1 14.0137 24.0195)"/>
</clipPath>
</defs>
</svg>
