<svg width="16" height="16" viewBox="0 0 16 16" fill="none" xmlns="http://www.w3.org/2000/svg">
<path d="M6.46492 8.83221C6.41692 8.83221 5.36092 8.83221 4.88092 8.83221C4.62492 8.83221 4.54492 8.73621 4.54492 8.49621C4.54492 7.85621 4.54492 7.20021 4.54492 6.56021C4.54492 6.30421 4.64092 6.22421 4.88092 6.22421H6.46492C6.46492 6.17621 6.46492 5.24821 6.46492 4.81621C6.46492 4.17621 6.57692 3.56821 6.89692 3.00821C7.23292 2.43221 7.71292 2.04821 8.32092 1.82421C8.72092 1.68021 9.12092 1.61621 9.55292 1.61621H11.1209C11.3449 1.61621 11.4409 1.71221 11.4409 1.93621V3.76021C11.4409 3.98421 11.3449 4.08021 11.1209 4.08021C10.6889 4.08021 10.2569 4.08021 9.82492 4.09621C9.39292 4.09621 9.16892 4.30421 9.16892 4.75221C9.15292 5.23221 9.16892 5.69621 9.16892 6.19221H11.0249C11.2809 6.19221 11.3769 6.28821 11.3769 6.54421V8.48021C11.3769 8.73621 11.2969 8.81621 11.0249 8.81621C10.4489 8.81621 9.21692 8.81621 9.16892 8.81621V14.0322C9.16892 14.3042 9.08892 14.4002 8.80092 14.4002C8.12892 14.4002 7.47292 14.4002 6.80092 14.4002C6.56092 14.4002 6.46492 14.3042 6.46492 14.0642C6.46492 12.3842 6.46492 8.88021 6.46492 8.83221Z" fill="#4267B2"/>
</svg>
