<svg width="18" height="18" viewBox="0 0 18 18" fill="none" xmlns="http://www.w3.org/2000/svg">
<path fill-rule="evenodd" clip-rule="evenodd" d="M14.0625 7.5V6C14.0625 5.27475 13.4745 4.6875 12.75 4.6875H8.25C7.902 4.6875 7.56825 4.8255 7.32225 5.07225C7.0755 5.31825 6.9375 5.652 6.9375 6V13.875C6.9375 14.5995 7.52475 15.1875 8.25 15.1875H9C9.1035 15.1875 9.1875 15.2715 9.1875 15.375V15.75C9.1875 16.098 9.3255 16.4317 9.57225 16.6777C9.81825 16.9245 10.152 17.0625 10.5 17.0625H13.5C13.848 17.0625 14.1817 16.9245 14.4277 16.6777C14.6745 16.4317 14.8125 16.098 14.8125 15.75C14.8125 15.0968 14.8125 14.1532 14.8125 13.5C14.8125 13.152 14.6745 12.8183 14.4277 12.5723C14.1817 12.3255 13.848 12.1875 13.5 12.1875H11.25C11.2005 12.1875 11.1525 12.168 11.1172 12.1328C11.082 12.0975 11.0625 12.0495 11.0625 12V9C11.0625 8.9505 11.082 8.9025 11.1172 8.86725C11.1525 8.832 11.2005 8.8125 11.25 8.8125H12.75C13.4753 8.8125 14.0625 8.22525 14.0625 7.5ZM12.9375 6V7.5C12.9375 7.6035 12.8535 7.6875 12.75 7.6875H11.25C10.902 7.6875 10.5682 7.8255 10.3222 8.07225C10.0755 8.31825 9.9375 8.652 9.9375 9V12C9.9375 12.348 10.0755 12.6817 10.3222 12.9277C10.5682 13.1745 10.902 13.3125 11.25 13.3125H13.5C13.5495 13.3125 13.5975 13.332 13.6328 13.3673C13.668 13.4025 13.6875 13.4505 13.6875 13.5V15.75C13.6875 15.7995 13.668 15.8475 13.6328 15.8827C13.5975 15.918 13.5495 15.9375 13.5 15.9375H10.5C10.4505 15.9375 10.4025 15.918 10.3672 15.8827C10.332 15.8475 10.3125 15.7995 10.3125 15.75V15.375C10.3125 14.6505 9.72525 14.0625 9 14.0625H8.25C8.1465 14.0625 8.0625 13.9785 8.0625 13.875V6C8.0625 5.9505 8.082 5.9025 8.11725 5.86725C8.1525 5.832 8.2005 5.8125 8.25 5.8125H12.75C12.8535 5.8125 12.9375 5.8965 12.9375 6Z" fill="white"/>
<path fill-rule="evenodd" clip-rule="evenodd" d="M9.9375 6.75V3.75C9.9375 3.4395 9.6855 3.1875 9.375 3.1875C9.0645 3.1875 8.8125 3.4395 8.8125 3.75V6.75C8.8125 7.0605 9.0645 7.3125 9.375 7.3125C9.6855 7.3125 9.9375 7.0605 9.9375 6.75Z" fill="white"/>
<path fill-rule="evenodd" clip-rule="evenodd" d="M9.375 0.9375C8.4435 0.9375 7.6875 1.6935 7.6875 2.625C7.6875 3.5565 8.4435 4.3125 9.375 4.3125C10.3065 4.3125 11.0625 3.5565 11.0625 2.625C11.0625 1.6935 10.3065 0.9375 9.375 0.9375ZM9.375 2.0625C9.6855 2.0625 9.9375 2.3145 9.9375 2.625C9.9375 2.9355 9.6855 3.1875 9.375 3.1875C9.0645 3.1875 8.8125 2.9355 8.8125 2.625C8.8125 2.3145 9.0645 2.0625 9.375 2.0625Z" fill="white"/>
<path fill-rule="evenodd" clip-rule="evenodd" d="M5.25 6.1875H3.75C3.4395 6.1875 3.1875 6.4395 3.1875 6.75C3.1875 7.0605 3.4395 7.3125 3.75 7.3125H5.25C5.5605 7.3125 5.8125 7.0605 5.8125 6.75C5.8125 6.4395 5.5605 6.1875 5.25 6.1875Z" fill="white"/>
<path fill-rule="evenodd" clip-rule="evenodd" d="M5.25 8.8125H3.75C3.4395 8.8125 3.1875 9.0645 3.1875 9.375C3.1875 9.6855 3.4395 9.9375 3.75 9.9375H5.25C5.5605 9.9375 5.8125 9.6855 5.8125 9.375C5.8125 9.0645 5.5605 8.8125 5.25 8.8125Z" fill="white"/>
<path fill-rule="evenodd" clip-rule="evenodd" d="M5.25 11.4375H3.75C3.4395 11.4375 3.1875 11.6895 3.1875 12C3.1875 12.3105 3.4395 12.5625 3.75 12.5625H5.25C5.5605 12.5625 5.8125 12.3105 5.8125 12C5.8125 11.6895 5.5605 11.4375 5.25 11.4375Z" fill="white"/>
<path fill-rule="evenodd" clip-rule="evenodd" d="M5.25 14.0625H3.75C3.4395 14.0625 3.1875 14.3145 3.1875 14.625C3.1875 14.9355 3.4395 15.1875 3.75 15.1875H5.25C5.5605 15.1875 5.8125 14.9355 5.8125 14.625C5.8125 14.3145 5.5605 14.0625 5.25 14.0625Z" fill="white"/>
</svg>
