<svg width="14" height="13" viewBox="0 0 14 13" fill="none" xmlns="http://www.w3.org/2000/svg">
<g clip-path="url(#clip0_1304_21889)">
<path d="M10.2693 0H3.76945C1.98215 0 0.519531 1.46262 0.519531 3.24992V9.75008C0.519531 11.5369 1.98215 13 3.76945 13H10.2693C12.0566 13 13.5192 11.5369 13.5192 9.75008V3.24992C13.5192 1.46262 12.0566 0 10.2693 0ZM12.4359 9.75008C12.4359 10.9444 11.4643 11.9166 10.2693 11.9166H3.76945C2.57495 11.9166 1.60289 10.9444 1.60289 9.75008V3.24992C1.60289 2.05526 2.57495 1.08336 3.76945 1.08336H10.2693C11.4643 1.08336 12.4359 2.05526 12.4359 3.24992V9.75008Z" fill="#FF4E5C"/>
<path d="M10.541 3.79146C10.9897 3.79146 11.3535 3.4277 11.3535 2.97898C11.3535 2.53026 10.9897 2.1665 10.541 2.1665C10.0923 2.1665 9.72852 2.53026 9.72852 2.97898C9.72852 3.4277 10.0923 3.79146 10.541 3.79146Z" fill="#FF4E5C"/>
<path d="M7.01945 3.25C5.22419 3.25 3.76953 4.70482 3.76953 6.49992C3.76953 8.29436 5.22419 9.75016 7.01945 9.75016C8.81421 9.75016 10.2694 8.29436 10.2694 6.49992C10.2694 4.70482 8.81421 3.25 7.01945 3.25ZM7.01945 8.6668C5.82298 8.6668 4.85289 7.69671 4.85289 6.49992C4.85289 5.30313 5.82298 4.33336 7.01945 4.33336C8.21592 4.33336 9.18601 5.30313 9.18601 6.49992C9.18601 7.69671 8.21592 8.6668 7.01945 8.6668Z" fill="#FF4E5C"/>
</g>
<defs>
<clipPath id="clip0_1304_21889">
<rect width="13" height="13" fill="white" transform="translate(0.519531)"/>
</clipPath>
</defs>
</svg>
