<svg width="22" height="22" viewBox="0 0 22 22" fill="none" xmlns="http://www.w3.org/2000/svg">
<path d="M21.1776 19.4127L17.1237 15.3588C18.3523 13.7505 19.0261 11.7997 19.0264 9.74109C19.0264 7.26031 18.0602 4.92786 16.3058 3.17371C14.5516 1.41956 12.2195 0.453369 9.73837 0.453369C7.2576 0.453369 4.92514 1.41956 3.17099 3.17371C-0.450226 6.79523 -0.450226 12.6876 3.17099 16.3085C4.92514 18.0629 7.2576 19.0291 9.73837 19.0291C11.7969 19.0288 13.7478 18.355 15.3561 17.1264L19.41 21.1803C19.6538 21.4244 19.974 21.5465 20.2938 21.5465C20.6136 21.5465 20.9337 21.4244 21.1776 21.1803C21.6659 20.6923 21.6659 19.9007 21.1776 19.4127ZM4.93857 14.5409C2.29208 11.8944 2.29239 7.58807 4.93857 4.94128C6.22061 3.65955 7.92532 2.95337 9.73837 2.95337C11.5517 2.95337 13.2561 3.65955 14.5382 4.94128C15.8202 6.22333 16.5264 7.92804 16.5264 9.74109C16.5264 11.5544 15.8202 13.2589 14.5382 14.5409C13.2561 15.8229 11.5517 16.5291 9.73837 16.5291C7.92532 16.5291 6.22061 15.8229 4.93857 14.5409Z" fill="url(#paint0_linear_927_854)"/>
<defs>
<linearGradient id="paint0_linear_927_854" x1="4.49206" y1="1.23683" x2="14.0757" y2="22.6298" gradientUnits="userSpaceOnUse">
<stop stop-color="#4F7DF6"/>
<stop offset="1" stop-color="#1B41A6"/>
</linearGradient>
</defs>
</svg>
