<svg width="18" height="18" viewBox="0 0 18 18" fill="none" xmlns="http://www.w3.org/2000/svg">
<g clip-path="url(#clip0_1304_21927)">
<mask id="mask0_1304_21927" style="mask-type:luminance" maskUnits="userSpaceOnUse" x="0" y="0" width="18" height="18">
<path d="M0.376953 0.376371H17.4029V17.4023H0.376953V0.376371Z" fill="white"/>
</mask>
<g mask="url(#mask0_1304_21927)">
<path d="M6.5496 15.5468L3.9011 16.9043V14.2324C2.07653 12.8612 0.875 10.7542 0.875 8.39131C0.875 4.25905 4.48145 0.87594 8.88918 0.87594C13.2969 0.87594 16.9034 4.25905 16.9034 8.39131C16.9034 12.5236 13.2969 15.8734 8.88918 15.8734C8.07509 15.8734 7.2895 15.7592 6.5496 15.5468Z" stroke="#008AFF" stroke-miterlimit="10" stroke-linecap="round" stroke-linejoin="round"/>
<path d="M3.90234 10.8848L7.89281 5.89669L9.88804 7.89192L13.8785 5.89669L9.88804 10.8848L7.89281 8.88953L3.90234 10.8848Z" stroke="#008AFF" stroke-miterlimit="10" stroke-linecap="round" stroke-linejoin="round"/>
</g>
</g>
<defs>
<clipPath id="clip0_1304_21927">
<rect width="17.026" height="17.026" fill="white" transform="translate(0.376953 0.376953)"/>
</clipPath>
</defs>
</svg>
