<svg width="11" height="11" viewBox="0 0 11 11" fill="none" xmlns="http://www.w3.org/2000/svg">
<g clip-path="url(#clip0_668_24178)">
<path d="M5.5 0C4.40643 0.00145065 3.35806 0.436513 2.58479 1.20979C1.81151 1.98306 1.37645 3.03143 1.375 4.125C1.375 7.08641 5.21812 10.7955 5.38141 10.9519C5.41317 10.9827 5.45571 11 5.5 11C5.54429 11 5.58683 10.9827 5.61859 10.9519C5.78187 10.7955 9.625 7.08641 9.625 4.125C9.62355 3.03143 9.18849 1.98306 8.41521 1.20979C7.64194 0.436513 6.59357 0.00145065 5.5 0ZM5.5 6.01562C5.12607 6.01562 4.76054 5.90474 4.44963 5.697C4.13871 5.48925 3.89639 5.19398 3.75329 4.84851C3.61019 4.50304 3.57275 4.1229 3.6457 3.75616C3.71865 3.38941 3.89872 3.05253 4.16313 2.78813C4.42753 2.52372 4.76441 2.34365 5.13116 2.2707C5.4979 2.19775 5.87804 2.23519 6.22351 2.37829C6.56898 2.52139 6.86425 2.76371 7.072 3.07463C7.27974 3.38554 7.39062 3.75107 7.39062 4.125C7.39032 4.62633 7.19104 5.10705 6.83654 5.46154C6.48205 5.81604 6.00133 6.01532 5.5 6.01562Z" fill="white"/>
</g>
<defs>
<clipPath id="clip0_668_24178">
<rect width="11" height="11" fill="white"/>
</clipPath>
</defs>
</svg>
