<svg width="21" height="20" viewBox="0 0 21 20" fill="none" xmlns="http://www.w3.org/2000/svg">
<g clip-path="url(#clip0_178_509)">
<path d="M16.7166 12.9688C15.5587 12.9688 14.5384 13.5383 13.8975 14.4045L8.35679 11.5673C8.44878 11.2538 8.51343 10.9288 8.51343 10.5859C8.51343 10.1209 8.41808 9.67871 8.25335 9.27203L14.052 5.78266C14.6973 6.54 15.6458 7.03125 16.7166 7.03125C18.6552 7.03125 20.2322 5.45426 20.2322 3.51562C20.2322 1.57699 18.6552 0 16.7166 0C14.7779 0 13.2009 1.57699 13.2009 3.51562C13.2009 3.96238 13.2929 4.38617 13.4455 4.77961L7.62964 8.27922C6.98487 7.54437 6.05003 7.07031 4.9978 7.07031C3.05917 7.07031 1.48218 8.6473 1.48218 10.5859C1.48218 12.5246 3.05917 14.1016 4.9978 14.1016C6.17476 14.1016 7.2123 13.5153 7.85073 12.6248L13.3732 15.4527C13.2715 15.7811 13.2009 16.123 13.2009 16.4844C13.2009 18.423 14.7779 20 16.7166 20C18.6552 20 20.2322 18.423 20.2322 16.4844C20.2322 14.5457 18.6552 12.9688 16.7166 12.9688Z" fill="#4F7DF6"/>
</g>
<defs>
<clipPath id="clip0_178_509">
<rect width="20" height="20" fill="white" transform="translate(0.857178)"/>
</clipPath>
</defs>
</svg>
