<svg width="18" height="18" viewBox="0 0 18 18" fill="none" xmlns="http://www.w3.org/2000/svg"><mask id="mask0_123_2665" style="mask-type:luminance" maskUnits="userSpaceOnUse" x="0" y="0" width="18" height="18"><path d="M0.947388 0.947472H17.0527V17.0527H0.947388V0.947472Z" fill="white"/></mask><g mask="url(#mask0_123_2665)"><path d="M16.5807 10.7686H15.0646" stroke="white" stroke-miterlimit="10" stroke-linecap="round" stroke-linejoin="round"/><path d="M15.5654 6.97922L14.2523 7.7373" stroke="white" stroke-miterlimit="10" stroke-linecap="round" stroke-linejoin="round"/><path d="M15.5654 14.5586L14.2523 13.8005" stroke="white" stroke-miterlimit="10" stroke-linecap="round" stroke-linejoin="round"/></g><path d="M12.7904 4.20459L12.0323 5.51758" stroke="white" stroke-miterlimit="10" stroke-linecap="round" stroke-linejoin="round"/><path d="M9.00012 3.18794V4.7041" stroke="white" stroke-miterlimit="10" stroke-linecap="round" stroke-linejoin="round"/><path d="M10.5161 14.8125H7.48376" stroke="white" stroke-miterlimit="10" stroke-linecap="round" stroke-linejoin="round"/><mask id="mask1_123_2665" style="mask-type:luminance" maskUnits="userSpaceOnUse" x="0" y="0" width="18" height="18"><path d="M0.947388 0.947472H17.0527V17.0527H0.947388V0.947472Z" fill="white"/></mask><g mask="url(#mask1_123_2665)"><path d="M1.41931 10.7686H2.93547" stroke="white" stroke-miterlimit="10" stroke-linecap="round" stroke-linejoin="round"/><path d="M2.43469 6.97922L3.74774 7.7373" stroke="white" stroke-miterlimit="10" stroke-linecap="round" stroke-linejoin="round"/><path d="M2.43481 14.5586L3.74787 13.8005" stroke="white" stroke-miterlimit="10" stroke-linecap="round" stroke-linejoin="round"/></g><path d="M5.20959 4.20459L5.96767 5.51758" stroke="white" stroke-miterlimit="10" stroke-linecap="round" stroke-linejoin="round"/><mask id="mask2_123_2665" style="mask-type:luminance" maskUnits="userSpaceOnUse" x="0" y="0" width="18" height="18"><path d="M0.947388 0.947472H17.0527V17.0527H0.947388V0.947472Z" fill="white"/></mask><g mask="url(#mask2_123_2665)"><path d="M8.28549 10.0552C8.67994 9.66048 9.32047 9.66048 9.71492 10.0552C10.1094 10.4496 10.1094 11.0899 9.71492 11.4844C9.32047 11.8789 8.67994 11.8789 8.2854911.4844C7.891 11.0899 7.891 10.4496 8.28549 10.0552Z" stroke="white" stroke-miterlimit="10" stroke-linecap="round" stroke-linejoin="round"/><path d="M5.78381 7.55306L8.28535 10.0547" stroke="white" stroke-miterlimit="10" stroke-linecap="round" stroke-linejoin="round"/><path d="M9.71497 11.4836L10.5164 12.2852" stroke="white" stroke-miterlimit="10" stroke-linecap="round" stroke-linejoin="round"/><path d="M2.43489 14.5586C1.78904 13.4432 1.41931 12.1487 1.41931 10.7682C1.41931 6.5841 4.81614 3.1874 9.00011 3.1874C13.1841 3.1874 16.5809 6.5841 16.5809 10.7682C16.5809 12.1487 16.2111 13.4432 15.5653 14.5586" stroke="white" stroke-miterlimit="10" stroke-linecap="round" stroke-linejoin="round"/></g></svg>
