<svg width="44" height="44" viewBox="0 0 44 44" fill="none" xmlns="http://www.w3.org/2000/svg">
<g clip-path="url(#clip0_673_59556)">
<path d="M33.1361 22C33.1361 28.6396 28.639 34.022 21.9995 34.022C15.3599 34.022 9.97754 28.6396 9.97754 22C9.97754 15.3605 15.36 9.97803 21.9995 9.97803C28.6391 9.97803 33.1361 15.3605 33.1361 22Z" fill="white"/>
<path d="M21.9998 9.97803C21.5509 9.97803 21.108 10.0034 20.6719 10.0514C26.6864 10.7125 31.3659 15.8094 31.3659 22C31.3659 28.1907 26.6864 33.2876 20.6719 33.9486C21.108 33.9966 21.5509 34.022 21.9998 34.022C28.6394 34.022 34.0218 28.6396 34.0218 22C34.0218 15.3605 28.6393 9.97803 21.9998 9.97803Z" fill="white"/>
<path d="M21.9998 7.03212H19.8257C19.5071 7.03212 19.2845 6.71668 19.3913 6.41647L20.5861 3.05893L21.5655 0.306495C21.711 -0.102165 22.2888 -0.102165 22.4343 0.306495L23.4137 3.05893L24.6084 6.41647C24.7153 6.71659 24.4926 7.03212 24.1741 7.03212H21.9998Z" fill="white"/>
<path d="M21.9999 36.9678H24.174C24.4927 36.9678 24.7152 37.2832 24.6084 37.5834L23.4136 40.941L22.4342 43.6934C22.2888 44.1021 21.7109 44.1021 21.5655 43.6934L20.586 40.941L19.3913 37.5834C19.2845 37.2832 19.5071 36.9678 19.8256 36.9678H21.9999Z" fill="white"/>
<path d="M36.9678 21.9998V19.8257C36.9678 19.5071 37.2832 19.2845 37.5834 19.3913L40.941 20.5861L43.6934 21.5655C44.1021 21.711 44.1021 22.2888 43.6934 22.4343L40.941 23.4137L37.5834 24.6084C37.2832 24.7153 36.9678 24.4926 36.9678 24.1741V21.9998Z" fill="white"/>
<path d="M7.03212 21.9999V24.174C7.03212 24.4927 6.71668 24.7152 6.41647 24.6084L3.05893 23.4136L0.306495 22.4342C-0.102165 22.2888 -0.102165 21.7109 0.306495 21.5655L3.05893 20.586L6.41647 19.3913C6.71668 19.2845 7.03212 19.5071 7.03212 19.8256V21.9999Z" fill="white"/>
<path d="M11.4159 11.4159L9.87852 12.9533C9.65321 13.1786 9.27279 13.1129 9.1361 12.8251L7.60681 9.60616L6.35303 6.96731C6.16685 6.57556 6.57551 6.1669 6.96735 6.35299L9.6062 7.60668L12.8251 9.13597C13.1129 9.27266 13.1785 9.65317 12.9533 9.87839L11.4159 11.4159Z" fill="white"/>
<path d="M32.5837 32.5841L34.121 31.0468C34.3463 30.8214 34.7267 30.8871 34.8634 31.175L36.3928 34.3939L37.6465 37.0327C37.8326 37.4245 37.424 37.8331 37.0322 37.647L34.3933 36.3933L31.1744 34.864C30.8866 34.7273 30.821 34.3468 31.0462 34.1215L32.5837 32.5841Z" fill="white"/>
<path d="M32.5836 11.4163L31.0463 9.87892C30.821 9.65361 30.8866 9.27319 31.1745 9.1365L34.3934 7.60721L37.0322 6.35352C37.424 6.16734 37.8326 6.576 37.6465 6.96784L36.3928 9.60668L34.8635 12.8256C34.7268 13.1134 34.3463 13.179 34.121 12.9538L32.5836 11.4163Z" fill="white"/>
<path d="M11.4159 32.5838L12.9533 34.1211C13.1786 34.3464 13.1129 34.7268 12.8251 34.8635L9.60616 36.3928L6.96731 37.6465C6.57556 37.8327 6.1669 37.424 6.35299 37.0322L7.60668 34.3933L9.13597 31.1744C9.27266 30.8866 9.65317 30.821 9.87839 31.0462L11.4159 32.5838Z" fill="white"/>
</g>
<defs>
<clipPath id="clip0_673_59556">
<rect width="44" height="44" fill="white"/>
</clipPath>
</defs>
</svg>
