<svg width="23" height="22" viewBox="0 0 23 22" fill="none" xmlns="http://www.w3.org/2000/svg">
<g clip-path="url(#clip0_173_4844)">
<path d="M1.07905 10.0415L6.30909 12.6481C6.51137 12.7479 6.7502 12.7407 6.94357 12.6276L11.5988 9.92121L8.78108 12.4181C8.63761 12.5456 8.55562 12.7274 8.55562 12.919V19.0009C8.55562 19.6425 9.37457 19.9125 9.75865 19.4028L12.0194 16.397L17.6104 19.581C18.0025 19.8065 18.5051 19.5802 18.596 19.1319L22.083 1.7549C22.1872 1.2327 21.6677 0.806738 21.1847 1.001L1.1343 8.82066C0.596058 9.03097 0.561304 9.78397 1.07905 10.0415ZM20.5324 2.69059L17.4678 17.9619L12.17 14.9445C11.8813 14.7796 11.5097 14.8527 11.3048 15.1236L9.89232 17.0012V13.2193L17.5124 6.46808C18.1157 5.93429 17.4224 4.98524 16.7335 5.38981L6.58355 11.2909L3.02617 9.51842L20.5324 2.69059Z" fill="white"/>
</g>
<defs>
<clipPath id="clip0_173_4844">
<rect width="21.3871" height="21.3871" fill="white" transform="translate(0.709473 0.0644531)"/>
</clipPath>
</defs>
</svg>
