<svg width="16" height="16" viewBox="0 0 16 16" fill="none" xmlns="http://www.w3.org/2000/svg">
<g clip-path="url(#clip0_1304_21913)">
<path d="M0.639851 7.27433L4.36514 9.13094C4.50923 9.20203 4.67934 9.19695 4.81708 9.11634L8.13296 7.18864L6.12591 8.96718C6.02372 9.05795 5.96532 9.18743 5.96532 9.3239V13.656C5.96532 14.113 6.54865 14.3053 6.82222 13.9423L8.43256 11.8013L12.4149 14.0692C12.6942 14.2298 13.0522 14.0686 13.1169 13.7493L15.6007 1.37188C15.6749 0.999918 15.3049 0.696512 14.9609 0.834885L0.679205 6.40473C0.295822 6.55453 0.271067 7.09089 0.639851 7.27433ZM14.4962 2.03835L12.3134 12.9159L8.53983 10.7667C8.33417 10.6492 8.06949 10.7013 7.9235 10.8942L6.91743 12.2316V9.53781L12.3451 4.72902C12.7748 4.34881 12.281 3.67281 11.7903 3.96098L4.56064 8.16423L2.02676 6.90173L14.4962 2.03835Z" fill="#0088CC"/>
</g>
<defs>
<clipPath id="clip0_1304_21913">
<rect width="15.2338" height="15.2338" fill="white" transform="translate(0.376953 0.167969)"/>
</clipPath>
</defs>
</svg>
