<svg width="17" height="17" viewBox="0 0 17 17" fill="none" xmlns="http://www.w3.org/2000/svg">
<g clip-path="url(#clip0_1304_21917)">
<path d="M15.7186 9.60973C16.1998 5.55911 15.4874 3.00186 14.2024 1.84521L14.2031 1.84454C12.129 -0.130698 5.12465 -0.423052 2.64334 1.93325C1.52903 3.08587 1.13654 4.77749 1.09353 6.87168C1.05051 8.96655 0.999435 12.8908 4.65621 13.9554H4.65957L4.65621 15.5811C4.65621 15.5811 4.63134 16.2398 5.05206 16.3722C5.53327 16.5281 5.75103 16.2223 7.24774 14.4346C9.75056 14.6517 11.6727 14.1543 11.8911 14.0817C12.3965 13.9124 15.2562 13.534 15.7186 9.60973ZM7.4944 13.2907C7.4944 13.2907 5.91031 15.2659 5.41768 15.7787C5.25638 15.9454 5.07962 15.9299 5.08231 15.5993C5.08231 15.3822 5.09441 12.9002 5.09441 12.9002C1.99411 12.0117 2.17692 8.67016 2.21052 6.92209C2.24412 5.17334 2.56403 3.74114 3.50763 2.77671C5.68449 0.735611 11.8253 1.19195 13.3899 2.66246C15.3026 4.35811 14.6218 9.14868 14.6258 9.312C14.2326 12.5877 11.9153 12.7954 11.4892 12.9372C11.3071 12.9977 9.61682 13.4325 7.4944 13.2907Z" fill="#7360F2"/>
<path d="M8.36984 3.16016C8.11109 3.16016 8.11109 3.5634 8.36984 3.56676C10.3773 3.58222 12.0307 4.98149 12.0488 7.54815C12.0488 7.819 12.4453 7.81564 12.442 7.54479H12.4413C12.4198 4.77919 10.6146 3.17561 8.36984 3.16016Z" fill="#7360F2"/>
<path d="M11.0126 7.12343C11.0065 7.39092 11.4024 7.40369 11.4058 7.13284C11.4387 5.6079 10.4985 4.35178 8.73156 4.21938C8.47281 4.20057 8.44593 4.60717 8.70401 4.62599C10.2363 4.74226 11.0435 5.78801 11.0126 7.12343Z" fill="#7360F2"/>
<path d="M10.5885 8.85637C10.2565 8.66415 9.91845 8.78378 9.77866 8.97264L9.4863 9.35102C9.33777 9.54323 9.06021 9.51769 9.06021 9.51769C7.03456 8.98205 6.49287 6.86231 6.49287 6.86231C6.49287 6.86231 6.468 6.57533 6.6535 6.42143L7.01911 6.11899C7.20191 5.97382 7.31751 5.62434 7.13134 5.28091C6.634 4.38234 6.29998 4.07252 6.12995 3.8346C5.95117 3.6108 5.68234 3.56039 5.40276 3.71161H5.39671C4.81536 4.05168 4.1789 4.68814 4.38254 5.34342C4.73001 6.03431 5.36848 8.23671 7.40353 9.90078C8.3599 10.6878 9.87342 11.4943 10.5159 11.6804L10.522 11.6898C11.1551 11.9009 11.7707 11.2396 12.0993 10.6407V10.636C12.2452 10.3464 12.1968 10.0722 11.9837 9.89271C11.606 9.52441 11.0361 9.11781 10.5885 8.85637Z" fill="#7360F2"/>
<path d="M9.00696 5.71758C9.65283 5.75522 9.96601 6.0926 9.99962 6.78552C10.0117 7.05636 10.4049 7.03754 10.3928 6.7667C10.3498 5.86208 9.87797 5.35802 9.02847 5.31098C8.76972 5.29552 8.74552 5.70213 9.00696 5.71758Z" fill="#7360F2"/>
</g>
<defs>
<clipPath id="clip0_1304_21917">
<rect width="16.1299" height="16.1299" fill="white" transform="translate(0.15625 0.273438)"/>
</clipPath>
</defs>
</svg>
