<svg width="23" height="24" viewBox="0 0 23 24" fill="none" xmlns="http://www.w3.org/2000/svg">
<g clip-path="url(#clip0_173_4848)">
<path d="M21.9766 13.9151C22.6522 8.22836 21.652 4.63816 19.848 3.01431L19.8489 3.01337C16.9371 0.240279 7.10346 -0.170165 3.61988 3.13792C2.05548 4.7561 1.50445 7.13101 1.44406 10.0711C1.38367 13.0121 1.31196 18.5215 6.44581 20.0161H6.45053L6.44581 22.2986C6.44581 22.2986 6.4109 23.2232 7.00156 23.4091C7.67714 23.628 7.98285 23.1987 10.0841 20.6889C13.5979 20.9936 16.2965 20.2954 16.6031 20.1935C17.3127 19.9557 21.3275 19.4245 21.9766 13.9151ZM10.4304 19.0829C10.4304 19.0829 8.20647 21.856 7.51485 22.576C7.2884 22.81 7.04024 22.7883 7.04402 22.324C7.04402 22.0193 7.061 18.5347 7.061 18.5347C2.70841 17.2874 2.96506 12.596 3.01224 10.1419C3.05941 7.68676 3.50854 5.67606 4.83329 4.32207C7.88944 1.45651 16.5106 2.09718 18.7072 4.16167C21.3926 6.54224 20.4367 13.2679 20.4424 13.4971C19.8904 18.096 16.6371 18.3875 16.0389 18.5866C15.7832 18.6716 13.4101 19.282 10.4304 19.0829Z" fill="white"/>
<path d="M11.6606 4.86035C11.2974 4.86035 11.2974 5.42648 11.6606 5.4312C14.479 5.4529 16.8001 7.41737 16.8256 11.0208C16.8256 11.401 17.3823 11.3963 17.3776 11.0161H17.3766C17.3465 7.13336 14.8121 4.88205 11.6606 4.86035Z" fill="white"/>
<path d="M15.3681 10.4237C15.3596 10.7992 15.9154 10.8171 15.9201 10.4369C15.9663 8.29596 14.6463 6.53247 12.1657 6.34659C11.8025 6.32017 11.7647 6.89102 12.127 6.91744C14.2783 7.08067 15.4115 8.54883 15.3681 10.4237Z" fill="white"/>
<path d="M14.7735 12.8601C14.3074 12.5902 13.8328 12.7582 13.6366 13.0233L13.2261 13.5545C13.0176 13.8244 12.6279 13.7885 12.6279 13.7885C9.78405 13.0365 9.02355 10.0606 9.02355 10.0606C9.02355 10.0606 8.98864 9.65768 9.24906 9.44161L9.76235 9.01701C10.019 8.8132 10.1813 8.32256 9.91992 7.8404C9.2217 6.57888 8.75275 6.14391 8.51404 5.80989C8.26305 5.49569 7.88563 5.42492 7.49312 5.63722H7.48463C6.66846 6.11465 5.77492 7.0082 6.06081 7.92815C6.54863 8.89812 7.445 11.9901 10.3021 14.3264C11.6447 15.4313 13.7696 16.5635 14.6716 16.8249L14.6801 16.8381C15.5689 17.1344 16.4332 16.2059 16.8946 15.3652V15.3586C17.0994 14.9519 17.0314 14.567 16.7323 14.315C16.2021 13.798 15.4019 13.2271 14.7735 12.8601Z" fill="white"/>
<path d="M12.5542 8.45329C13.461 8.50612 13.9007 8.97979 13.9478 9.95258C13.9648 10.3328 14.5168 10.3064 14.4998 9.92616C14.4394 8.65615 13.7771 7.94849 12.5844 7.88244C12.2211 7.86074 12.1872 8.43158 12.5542 8.45329Z" fill="white"/>
</g>
<defs>
<clipPath id="clip0_173_4848">
<rect width="22.6452" height="22.6452" fill="white" transform="translate(0.128906 0.806641)"/>
</clipPath>
</defs>
</svg>
