<svg width="24" height="24" viewBox="0 0 24 24" fill="none" xmlns="http://www.w3.org/2000/svg">
<g clip-path="url(#clip0_173_4838)">
<path d="M11.3221 0.561924C5.34155 0.846684 0.622046 5.82734 0.640189 11.8147C0.645713 13.6383 1.08596 15.3595 1.86258 16.8803L0.670192 22.6683C0.605691 22.9814 0.888068 23.2556 1.19909 23.1819L6.87063 21.8382C8.32774 22.564 9.96438 22.9833 11.6965 23.0097C17.8092 23.103 22.9061 18.2494 23.0967 12.139C23.3009 5.58899 17.895 0.248893 11.3221 0.561924ZM18.0895 17.9982C16.4285 19.6592 14.2201 20.5739 11.8712 20.5739C10.4958 20.5739 9.17904 20.2653 7.9573 19.6567L7.16747 19.2633L3.69023 20.0871L4.42217 16.534L4.03305 15.772C3.39881 14.5299 3.07722 13.1868 3.07722 11.7799C3.07722 9.43093 3.99194 7.2226 5.6529 5.56158C7.29902 3.91547 9.54342 2.98585 11.8714 2.98585C14.2203 2.98591 16.4286 3.90063 18.0895 5.56153C19.7505 7.22249 20.6652 9.43082 20.6653 11.7797C20.6652 14.1078 19.7356 16.3521 18.0895 17.9982Z" fill="white"/>
<path d="M17.3218 14.2155L15.1464 13.5908C14.8604 13.5087 14.5524 13.5898 14.344 13.8022L13.812 14.3442C13.5877 14.5728 13.2473 14.6462 12.9504 14.5261C11.9213 14.1096 9.7565 12.1848 9.20366 11.2221C9.04417 10.9444 9.07054 10.5972 9.26638 10.3438L9.73083 9.74287C9.9128 9.50745 9.9512 9.19128 9.83086 8.91914L8.9156 6.84907C8.69637 6.35326 8.06278 6.20893 7.64886 6.55901C7.0417 7.07253 6.32129 7.85288 6.23372 8.7174C6.07932 10.2416 6.733 12.163 9.20491 14.4701C12.0606 17.1355 14.3475 17.4876 15.8364 17.1269C16.681 16.9224 17.3559 16.1023 17.7818 15.4309C18.0722 14.9731 17.8429 14.3651 17.3218 14.2155Z" fill="white"/>
</g>
<defs>
<clipPath id="clip0_173_4838">
<rect width="22.6452" height="22.6452" fill="white" transform="translate(0.548828 0.548828)"/>
</clipPath>
</defs>
</svg>
