<svg width="17" height="17" viewBox="0 0 17 17" fill="none" xmlns="http://www.w3.org/2000/svg">
<g clip-path="url(#clip0_1304_21907)">
<path d="M7.94653 0.386281C3.68665 0.589112 0.325005 4.13677 0.337928 8.40147C0.341862 9.7004 0.655445 10.9264 1.20862 12.0097L0.359299 16.1324C0.313355 16.3554 0.514489 16.5507 0.736029 16.4982L4.7758 15.5411C5.81368 16.0581 6.97944 16.3567 8.2132 16.3755C12.5672 16.442 16.1977 12.9848 16.3334 8.63246C16.4789 3.967 12.6283 0.163313 7.94653 0.386281ZM12.7668 12.8059C11.5838 13.989 10.0108 14.6406 8.33765 14.6406C7.35798 14.6406 6.42005 14.4208 5.54982 13.9873L4.98723 13.707L2.51044 14.2938L3.03179 11.763L2.75462 11.2202C2.30286 10.3355 2.0738 9.37879 2.0738 8.37671C2.0738 6.70356 2.72534 5.1306 3.90842 3.94748C5.08093 2.77497 6.67959 2.11282 8.33777 2.11282C10.0109 2.11285 11.5838 2.7644 12.7669 3.94744C13.95 5.13052 14.6015 6.70348 14.6015 8.37659C14.6015 10.0348 13.9393 11.6335 12.7668 12.8059Z" fill="#25D366"/>
<path d="M12.2197 10.1124L10.6702 9.66748C10.4665 9.609 10.2471 9.66679 10.0987 9.81805L9.71973 10.2041C9.55995 10.3669 9.3175 10.4192 9.10603 10.3336C8.37301 10.037 6.83106 8.66602 6.43728 7.98026C6.32367 7.78244 6.34246 7.53513 6.48195 7.35464L6.81278 6.92664C6.94239 6.75895 6.96974 6.53375 6.88403 6.3399L6.2321 4.86542C6.07594 4.51226 5.62464 4.40946 5.32981 4.65881C4.89734 5.02458 4.3842 5.58042 4.32182 6.19621C4.21184 7.28188 4.67745 8.65047 6.43817 10.2938C8.47227 12.1923 10.1012 12.4431 11.1617 12.1862C11.7633 12.0405 12.244 11.4564 12.5474 10.9781C12.7543 10.6521 12.5909 10.219 12.2197 10.1124Z" fill="#25D366"/>
</g>
<defs>
<clipPath id="clip0_1304_21907">
<rect width="16.1299" height="16.1299" fill="white" transform="translate(0.273438 0.376953)"/>
</clipPath>
</defs>
</svg>
