<svg width="2500" height="1067" viewBox="0 0 2500 1067" fill="none" xmlns="http://www.w3.org/2000/svg">
<path fill-rule="evenodd" clip-rule="evenodd" d="M1991.23 125.028C1901.53 124.884 1814.43 155.145 1744.15 210.875C1673.86 155.142 1586.76 124.879 1497.06 125.028C1407.37 124.89 1320.27 155.151 1249.99 210.875C1179.71 155.139 1092.61 124.876 1002.91 125.028C913.218 124.89 826.123 155.151 755.838 210.875C685.554 155.149 598.459 124.888 508.764 125.028C288.654 125.028 110.281 303.389 110.281 523.511C110.281 743.608 288.641 921.995 508.764 921.995C598.459 922.132 685.553 891.871 755.838 836.148C826.122 891.874 913.217 922.135 1002.91 921.995C1092.61 922.145 1179.71 891.882 1249.99 836.148C1320.27 891.872 1407.37 922.133 1497.06 921.995C1586.76 922.142 1673.86 891.88 1744.15 836.148C1814.43 891.88 1901.53 922.142 1991.23 921.995C2211.34 921.995 2389.7 743.621 2389.7 523.511C2389.7 303.402 2211.34 125.028 1991.23 125.028ZM690.639 771.052C639.863 808.094 576.428 830.7 508.764 830.7C338.964 830.7 201.562 693.312 201.562 523.511C201.562 353.711 338.964 216.31 508.764 216.31C576.428 216.31 639.824 238.929 690.639 275.983C634.652 346.322 604.255 433.612 604.442 523.511C604.484 613.377 634.856 700.597 690.639 771.052ZM755.851 706.035C716.691 653.249 695.609 589.237 695.736 523.511C695.571 457.78 716.658 393.756 755.851 340.988C795.037 393.76 816.123 457.782 815.966 523.511C816.089 589.236 795.007 653.247 755.851 706.035ZM1184.8 771.052C1132.05 809.892 1068.21 830.768 1002.7 830.61C937.331 830.743 873.644 809.864 821.037 771.052C876.826 700.605 907.199 613.387 907.234 523.524C907.422 433.625 877.025 346.335 821.037 275.996C873.639 237.174 937.328 216.29 1002.7 216.426C1070.86 216.426 1133.83 238.475 1184.8 275.996C1128.81 346.335 1098.42 433.625 1098.6 523.524C1098.64 613.386 1129.01 700.604 1184.8 771.052ZM1249.99 706.035C1210.83 653.249 1189.74 589.237 1189.87 523.511C1189.71 457.781 1210.8 393.759 1249.99 340.988C1289.18 393.756 1310.27 457.779 1310.11 523.511C1310.24 589.238 1289.15 653.251 1249.99 706.035ZM1678.95 771.052C1627.98 808.587 1565.01 830.61 1496.87 830.61C1428.72 830.61 1366.16 808.548 1315.19 771.052C1370.98 700.608 1401.35 613.388 1401.38 523.524C1401.57 433.625 1371.17 346.335 1315.19 275.996C1366.16 238.488 1428.72 216.426 1496.87 216.426C1565.01 216.426 1627.98 238.475 1678.95 275.996C1622.97 346.338 1592.57 433.626 1592.75 523.524C1592.8 613.385 1623.17 700.601 1678.95 771.052ZM1744.16 706.035C1705 653.249 1683.92 589.237 1684.05 523.511C1683.87 457.779 1704.96 393.754 1744.16 340.988C1783.35 393.76 1804.43 457.782 1804.28 523.511C1804.39 589.235 1783.31 653.244 1744.16 706.035ZM1991.23 830.7C1923.55 830.7 1860.12 808.094 1809.36 771.052C1865.14 700.602 1895.51 613.386 1895.56 523.524C1895.74 433.626 1865.34 346.338 1809.36 275.996C1860.17 238.955 1923.56 216.323 1991.23 216.323C2161.01 216.323 2298.44 353.724 2298.44 523.524C2298.44 693.299 2161.01 830.7 1991.23 830.7Z" fill="white"/>
</svg>
