<svg width="64" height="64" viewBox="0 0 64 64" fill="none" xmlns="http://www.w3.org/2000/svg">
<g clip-path="url(#clip0_930_440)">
<path fill-rule="evenodd" clip-rule="evenodd" d="M32.0001 0C49.6251 0 64 14.3749 64 31.9999C64 49.6251 49.6251 63.9999 32.0001 63.9999C14.3751 63.9999 0 49.6251 0 31.9999C0 14.3749 14.3751 0 32.0001 0Z" fill="black"/>
<path d="M13.4084 22.4031L5.85742 15.9085L8.68494 12.621C9.26037 11.9521 9.79897 11.4822 10.2975 11.2085C10.7993 10.9343 11.3069 10.8206 11.8216 10.8658C12.3343 10.9097 12.7667 11.0793 13.1149 11.3787C13.4365 11.6553 13.6529 12.0189 13.7622 12.4678C13.8736 12.9147 13.8388 13.4208 13.6622 13.9818C14.2517 13.5665 14.8295 13.3573 15.3966 13.3486C15.9657 13.3413 16.4699 13.5266 16.9095 13.9046C17.2569 14.2007 17.5198 14.5834 17.6714 15.0139C17.8264 15.4486 17.8759 15.8641 17.822 16.2611C17.7681 16.6582 17.6157 17.0842 17.3703 17.5401C17.1248 17.9962 16.762 18.5036 16.2813 19.0624L13.4084 22.4031ZM10.0289 17.4775L11.6582 15.5832C12.0985 15.0711 12.3861 14.6763 12.5211 14.4022C12.6978 14.0435 12.7644 13.7137 12.7166 13.4137C12.6687 13.1137 12.5139 12.8493 12.2501 12.6223C12.0005 12.4075 11.7194 12.2864 11.4101 12.2618C11.0976 12.2377 10.7955 12.3255 10.5043 12.5221C10.2113 12.7207 9.79373 13.1348 9.25149 13.7651L7.74666 15.5149L10.0289 17.4775ZM13.5151 20.476L15.3901 18.2961C15.7127 17.9209 15.9268 17.6471 16.0337 17.4763C16.2212 17.173 16.3438 16.8916 16.4015 16.6292C16.461 16.368 16.4467 16.1002 16.3639 15.8268C16.2776 15.5538 16.1174 15.3132 15.8766 15.106C15.5954 14.864 15.279 14.7374 14.9259 14.7248C14.5747 14.7136 14.2287 14.8205 13.8882 15.0459C13.5514 15.2704 13.1408 15.6624 12.6619 16.2192L10.9203 18.2441L13.5151 20.476ZM25.9631 11.2463V2.70508H28.2149L30.8878 8.75252C31.135 9.31543 31.3166 9.73696 31.4271 10.0174C31.556 9.70711 31.7559 9.24962 32.0293 8.64725L34.7337 2.70508H36.7461V11.2463H35.3046V4.09707L32.0215 11.2463H30.672L27.4046 3.97563V11.2463H25.9631ZM46.3894 16.2337L51.6156 9.1474L52.3288 10.0276L48.7894 14.5313C48.4251 14.9995 48.0471 15.4568 47.6559 15.9026C48.4979 15.4954 48.9832 15.2623 49.1172 15.2036L54.587 12.8143L55.4263 13.85L52.8272 17.4941C52.1847 18.3998 51.539 19.2008 50.8928 19.897C51.3767 19.64 51.9457 19.359 52.5944 19.0533L57.6723 16.6215L58.372 17.4849L50.3103 21.0721L49.6399 20.2446L53.5767 14.7911C53.9062 14.334 54.11 14.0564 54.1885 13.9578C53.8294 14.1359 53.5193 14.2822 53.2572 14.3971L47.0989 17.1091L46.3894 16.2337Z" fill="white"/>
<path fill-rule="evenodd" clip-rule="evenodd" d="M50.9024 32.3174C50.9024 42.5543 42.5534 50.9034 32.3164 50.9034V32.3174H50.9024Z" fill="#00ACEC"/>
<path fill-rule="evenodd" clip-rule="evenodd" d="M50.9024 31.6827C50.9024 21.4459 42.5534 13.0967 32.3164 13.0967V31.6827H50.9024Z" fill="white"/>
<path fill-rule="evenodd" clip-rule="evenodd" d="M13.0977 31.6827C13.0977 21.4459 21.4467 13.0967 31.6836 13.0967V31.6827H13.0977Z" fill="#00ACEC"/>
<path fill-rule="evenodd" clip-rule="evenodd" d="M13.0977 32.3174C13.0977 42.5543 21.4467 50.9034 31.6836 50.9034V32.3174H13.0977Z" fill="white"/>
</g>
<defs>
<clipPath id="clip0_930_440">
<rect width="64" height="64" fill="white"/>
</clipPath>
</defs>
</svg>
