<svg width="64" height="64" viewBox="0 0 64 64" fill="none" xmlns="http://www.w3.org/2000/svg">
<g clip-path="url(#clip0_668_22398)">
<path d="M31.9999 64C40.5474 64 48.5831 60.6712 54.6273 54.6273C60.6712 48.5832 64 40.5474 64 31.9999C64 23.4526 60.6712 15.4168 54.6273 9.3727C48.5832 3.32862 40.5474 0 31.9999 0C14.355 0 0 14.355 0 31.9999C0 40.5474 3.32862 48.5832 9.3727 54.6273C15.4168 60.6712 23.4526 64 31.9999 64Z" fill="black"/>
<path d="M1.10742 32.0002C1.10742 23.7487 4.32088 15.9908 10.1558 10.1558C15.9908 4.32075 23.7485 1.10742 32.0002 1.10742C40.2518 1.10742 48.0097 4.32075 53.8445 10.1558C59.6795 15.9908 62.8929 23.7485 62.8929 32.0002C62.8929 49.0346 49.0345 62.8931 32.0002 62.8931C23.7485 62.8931 15.9908 59.6796 10.1558 53.8447C4.32088 48.0096 1.10742 40.2518 1.10742 32.0002Z" fill="white"/>
<path d="M32.0004 2.38037C15.6422 2.38037 2.38086 15.6417 2.38086 31.9999C2.38086 48.3582 15.6422 61.6196 32.0004 61.6196C48.3586 61.6196 61.62 48.3582 61.62 31.9999C61.62 15.6417 48.3586 2.38037 32.0004 2.38037Z" fill="black"/>
<path d="M32.0001 50.9201C21.551 50.9201 13.0801 42.4493 13.0801 32.0001C13.0801 21.551 21.551 13.0801 32.0001 13.0801C42.4492 13.0801 50.9201 21.551 50.9201 32.0001C50.9201 42.4493 42.4493 50.9201 32.0001 50.9201Z" fill="white"/>
<path d="M14.2969 31.9997H31.9997V14.2969C22.2228 14.2969 14.2969 22.2229 14.2969 31.9997ZM31.9997 31.9997V49.7026C41.7765 49.7026 49.7025 41.7767 49.7025 31.9997H31.9997Z" fill="black"/>
<path d="M18.0967 13.9481C17.4695 13.3385 16.5001 13.1548 15.59 13.7191C15.7638 13.2686 15.6928 12.8088 15.6005 12.5551C15.2084 11.8402 15.0715 11.7507 14.7484 11.4795C13.7023 10.6018 12.6014 11.3512 11.8141 12.2895L8.00977 16.8232L13.99 21.8413L18.0019 17.0603C18.9186 15.9679 19.0603 14.8848 18.0967 13.9481ZM32.9916 11.7938L35.0453 6.3502V11.7938H36.6062V3.99756H34.261L32.1279 9.57958H32.15L30.0169 3.99756H27.6718V11.7938H29.2326V6.3502L31.2865 11.7938H32.9916ZM53.9773 15.0373L51.0386 19.1979L55.5944 17.035L56.8007 18.5246L49.6299 22.0006L48.2142 20.2383L51.0347 16.1142L51.018 16.0936L46.3976 17.9949L44.968 16.2438L49.8591 9.95241L51.0654 11.4421L48.0025 15.4487L52.6832 13.4392L53.9773 15.0373Z" fill="white"/>
<path d="M12.6444 13.4116C12.9091 13.096 13.5074 13.109 13.8921 13.4317C14.3152 13.7867 14.3162 14.29 14.0321 14.6284L11.7729 17.3208L10.3594 16.1346L12.6444 13.4116ZM16.6639 16.5877L14.282 19.4263L12.7884 18.173L15.1896 15.3113C15.4607 14.9881 16.0653 14.894 16.473 15.2363C16.9346 15.6234 16.9803 16.2107 16.6639 16.5877Z" fill="black"/>
</g>
<defs>
<clipPath id="clip0_668_22398">
<rect width="64" height="64" fill="white"/>
</clipPath>
</defs>
</svg>
