<svg width="64" height="64" viewBox="0 0 64 64" fill="none" xmlns="http://www.w3.org/2000/svg">
<path fill-rule="evenodd" clip-rule="evenodd" d="M32 64C14.3271 64 0 49.6726 0 32C0 14.3271 14.3271 0 32 0C49.6733 0 64 14.3271 64 32C64 49.6726 49.6733 64 32 64Z" fill="white"/>
<path fill-rule="evenodd" clip-rule="evenodd" d="M32.0078 36.8341L6.0273 47.5873C11.5013 56.7852 21.421 62.3976 32.1185 62.3422C42.7887 62.3145 52.6807 56.6457 58.099 47.4208L32.0078 36.8341ZM27.5075 29.2395L31.6476 1.81445C20.9774 1.9532 11.1412 7.70507 5.80626 16.958C0.443673 26.2108 0.387956 37.6032 5.63984 46.9118L27.5075 29.2395ZM36.37 29.6033L58.4875 46.7195C63.6283 37.4112 63.5169 26.102 58.1547 16.9048C55.533 12.3827 51.7853 8.61632 47.2763 5.97228C42.7672 3.32823 37.6505 1.89657 32.424 1.81664L36.37 29.6033Z" fill="#121212"/>
</svg>
