<svg width="66" height="66" viewBox="0 0 66 66" fill="none" xmlns="http://www.w3.org/2000/svg">
<g clip-path="url(#clip0_930_514)">
<path d="M65.2789 32.9998C65.2789 50.8404 50.8414 65.2779 33.0008 65.2779C15.1602 65.2779 0.722656 50.8404 0.722656 32.9998C0.722656 15.1592 15.1602 0.72168 33.0008 0.72168C50.8414 0.72168 65.2789 15.1592 65.2789 32.9998ZM33.0008 2.68105C16.1914 2.68105 2.68203 16.1904 2.68203 32.9998C2.68203 49.8092 16.2945 63.3186 33.0008 63.3186C49.8102 63.3186 63.3195 49.7061 63.3195 32.9998C63.3195 16.1904 49.8102 2.68105 33.0008 2.68105Z" fill="url(#paint0_linear_930_514)"/>
<path d="M33.0004 2.68164C16.191 2.68164 2.68164 16.191 2.68164 33.0004C2.68164 49.8098 16.2941 63.3191 33.0004 63.3191C49.8098 63.3191 63.3191 49.7066 63.3191 33.0004C63.3191 16.191 49.8098 2.68164 33.0004 2.68164ZM33.0004 61.3598C17.3254 61.3598 4.64102 48.6754 4.64102 33.0004C4.64102 17.3254 17.3254 4.64102 33.0004 4.64102C48.6754 4.64102 61.3598 17.3254 61.3598 33.0004C61.3598 48.6754 48.6754 61.3598 33.0004 61.3598Z" fill="url(#paint1_linear_930_514)"/>
<path opacity="0.4" d="M33 65.2781C50.8406 65.2781 65.2781 50.8406 65.2781 33C65.2781 15.1594 50.8406 0.721875 33 0.721875C15.1594 0.721875 0.721875 15.1594 0.721875 33C0.721875 50.8406 15.1594 65.2781 33 65.2781ZM33 0C51.15 0 66 14.85 66 33C66 51.15 51.15 66 33 66C14.85 66 0 51.15 0 33C0 14.85 14.85 0 33 0Z" fill="url(#paint2_linear_930_514)"/>
<path d="M2.26953 33.1029C2.26953 16.1904 15.9852 2.26855 33.0008 2.26855C50.0164 2.26855 63.732 16.0873 63.732 33.1029C63.732 50.0154 50.0164 63.7311 33.0008 63.7311C15.9852 63.7311 2.26953 50.0154 2.26953 33.1029ZM11.8602 11.8592C6.39453 17.3248 2.99141 24.8529 2.99141 33.1029C2.99141 41.3529 6.39453 48.8811 11.757 54.2436C17.2227 59.6061 24.7508 63.0092 33.0008 63.0092C41.2508 63.0092 48.7789 59.7092 54.1414 54.2436C59.607 48.8811 62.907 41.3529 62.907 33.1029C62.907 24.8529 59.5039 17.3248 54.1414 11.8592C48.7789 6.39355 41.2508 2.99043 33.0008 2.99043C24.7508 2.99043 17.2227 6.39355 11.8602 11.8592Z" fill="white"/>
<path opacity="0.4" d="M32.9996 61.4621C25.3684 61.4621 18.2527 58.4715 12.8902 53.109C7.52773 47.7465 4.53711 40.6309 4.53711 32.9996C4.53711 25.3684 7.52773 18.2527 12.8902 12.8902C18.2527 7.52773 25.3684 4.53711 32.9996 4.53711C40.6309 4.53711 47.7465 7.52773 53.109 12.8902C58.4715 18.2527 61.4621 25.3684 61.4621 32.9996C61.4621 40.6309 58.4715 47.7465 53.109 53.109C47.7465 58.4715 40.6309 61.4621 32.9996 61.4621ZM32.9996 60.6371C40.3215 60.6371 47.334 57.7496 52.4902 52.5934C57.7496 47.334 60.534 40.4246 60.534 33.1027C60.534 25.7809 57.6465 18.7684 52.4902 13.6121C47.2309 8.35273 40.3215 5.56836 32.9996 5.56836C25.6777 5.56836 18.6652 8.45586 13.509 13.6121C8.24961 18.6652 5.36211 25.6777 5.36211 32.9996C5.36211 40.3215 8.24961 47.334 13.4059 52.4902C18.6652 57.7496 25.6777 60.6371 32.9996 60.6371Z" fill="url(#paint3_linear_930_514)"/>
<path d="M58.0586 46.4066C57.543 45.9941 37.6398 30.216 37.6398 30.216L32.9992 3.71289C32.6898 3.81602 32.2773 4.12539 32.0711 4.53789L28.7711 30.3191L8.24922 46.0973C8.24922 46.0973 7.83672 46.6129 7.63047 46.9223C7.52734 47.1285 7.52734 47.4379 7.52734 47.7473L32.8961 37.3316L58.2648 47.7473C58.4711 47.2316 58.2648 46.716 58.0586 46.4066Z" fill="white"/>
<path d="M33.2063 33.8246L33 38.5683L56.3062 47.9527C57.1312 48.3652 57.75 48.1589 58.3687 47.7464L33.5156 33.7214C33.4125 33.6183 33.2063 33.7214 33.2063 33.8246Z" fill="#565F64"/>
<path d="M33.207 33.8246C33.207 33.8246 34.5477 36.1964 36.0945 37.8464C38.2602 40.2183 41.1477 41.8683 41.1477 41.8683L56.307 47.9527C57.132 48.3652 57.7508 48.1589 58.3695 47.7464L33.5164 33.7214C33.4133 33.6183 33.207 33.7214 33.207 33.8246Z" fill="url(#paint4_linear_930_514)"/>
<path d="M58.2652 46.8184C58.2652 46.7152 58.1621 46.6121 58.059 46.4059L36.8152 30.834L33.9277 32.6902C33.9277 32.6902 34.134 32.7934 34.2371 32.6902C34.5465 32.5871 35.1652 32.484 35.784 32.6902C36.2996 32.8965 58.2652 46.9215 58.2652 46.8184C58.2652 46.9215 58.2652 46.9215 58.2652 46.8184Z" fill="#A4AAAE" fill-opacity="0.6"/>
<path d="M57.5445 45.8908L37.7445 30.2158L36.8164 30.8346L58.0602 46.5096C57.957 46.3033 57.7508 46.0971 57.5445 45.8908Z" fill="#333E46"/>
<path d="M33.5152 32.2779L33.4121 32.3811C33.4121 32.3811 33.4121 32.5873 33.6184 32.4842C33.7215 32.3811 36.7121 30.8342 37.7434 30.2154L34.134 5.46543C34.0309 4.5373 33.6184 4.1248 32.8965 3.81543L33.309 32.4842L33.5152 32.2779Z" fill="#565F64"/>
<path d="M31.7621 5.46543V6.80605L29.4934 29.5967C29.4934 29.9061 29.5965 30.2154 29.9059 30.4217L31.2465 31.4529L32.1746 6.29043L32.2777 4.33105C31.9684 4.5373 31.8652 4.94981 31.7621 5.46543ZM30.5246 31.8654L29.2871 30.8342L8.35273 45.9936C8.35273 45.9936 7.73398 46.4061 7.63086 46.8186L8.35273 46.4061L30.3184 32.5873C30.7309 32.3811 30.834 32.1748 30.5246 31.8654Z" fill="#A4AAAE" fill-opacity="0.6"/>
<path d="M32.6898 33.8246C32.6898 33.7214 32.5867 33.6183 32.4836 33.7214L7.52734 47.8496C8.14609 48.2621 8.76484 48.3652 9.58984 48.0558L32.8961 38.6714L32.6898 33.8246Z" fill="#565F64"/>
<path d="M33.4121 32.3809C33.4121 32.3809 33.4121 32.484 33.5152 32.484H33.6184C33.7215 32.3809 36.7121 30.834 37.7434 30.2152L37.3309 27.2246L34.134 5.46523C34.134 5.05273 34.0309 4.74336 33.8246 4.53711C33.8246 4.53711 35.3715 25.3684 35.3715 27.6371C35.3715 30.6277 33.4121 32.3809 33.4121 32.3809Z" fill="url(#paint5_linear_930_514)"/>
<path d="M32.6898 33.8246C32.6898 33.7214 32.5867 33.6183 32.4836 33.7214L7.52734 47.8496C8.14609 48.2621 8.76484 48.3652 9.58984 48.0558L32.8961 38.6714L32.6898 33.8246Z" fill="url(#paint6_linear_930_514)" fill-opacity="0.8"/>
<path opacity="0.8" d="M9.59141 47.9531L32.8977 38.5688L32.6914 34.0312C32.2789 35.2688 31.557 36.6094 29.5977 37.6406C28.1539 38.4656 14.3352 45.2719 9.38516 47.6438C9.07578 47.85 8.66328 47.9531 8.45703 48.0562C8.86953 48.2625 9.17891 48.1594 9.59141 47.9531Z" fill="url(#paint7_linear_930_514)"/>
<path d="M33.5152 32.2779L33.4121 32.3811C33.4121 32.3811 33.4121 32.5873 33.6184 32.4842C33.7215 32.3811 36.7121 30.8342 37.7434 30.2154L34.134 5.46543C34.0309 4.5373 33.6184 4.1248 32.8965 3.81543L33.309 32.4842L33.5152 32.2779Z" fill="url(#paint8_linear_930_514)"/>
<path d="M33.5152 32.2779L33.4121 32.3811C33.4121 32.3811 33.4121 32.5873 33.6184 32.4842C33.7215 32.3811 36.7121 30.8342 37.7434 30.2154L34.134 5.46543C34.0309 4.5373 33.6184 4.1248 32.8965 3.81543L33.309 32.4842L33.5152 32.2779Z" fill="url(#paint9_linear_930_514)"/>
<path d="M5.26016 45.7875C4.53828 44.1375 0.413282 36.0938 4.95078 20.625H3.19766C2.26953 23.7188 1.54766 25.575 1.13516 28.3594C1.13516 28.3594 0.928906 29.3906 0.825781 30.525C0.722656 31.6594 0.722656 32.2781 0.722656 33C0.722656 39.1875 2.26953 42.7969 2.26953 42.7969C3.91953 47.9531 6.80703 52.5938 10.7258 56.1C14.1289 59.0906 19.3883 61.3594 23.7195 62.1844C22.9977 62.0812 10.6227 56.8219 5.26016 45.7875Z" fill="url(#paint10_linear_930_514)"/>
<path d="M33.4125 33.6189H32.4844C32.5875 33.6189 32.6906 33.6189 32.6906 33.722L32.8969 38.4658H33L33.2063 33.722C33.2063 33.6189 33.3094 33.5158 33.4125 33.6189Z" fill="url(#paint11_linear_930_514)"/>
<path d="M43.3125 2.37207C54.1406 6.49707 64.35 17.8408 64.35 32.1752C64.35 49.5002 50.5312 63.6283 33 63.6283V65.2783C50.5312 65.2783 65.2781 50.8408 65.2781 33.0002C65.2781 18.7689 56.2031 6.80645 43.3125 2.37207Z" fill="url(#paint12_linear_930_514)"/>
<path d="M60.6375 20.8316C53.4187 4.22852 37.125 3.30039 36.1969 3.19727H36.0938C48.5719 5.46602 56.5125 13.6129 59.2969 22.1723V22.2754C60.5344 25.5754 61.1531 29.0816 61.2563 32.8973C61.3594 36.5066 60.5344 40.5285 58.9875 44.241C58.8844 44.7566 58.7813 45.3754 58.6781 45.3754H60.3281C65.2781 36.0941 63.1125 26.7098 60.6375 20.8316Z" fill="url(#paint13_linear_930_514)"/>
<path d="M2.26953 33.1029C2.26953 16.1904 15.9852 2.26855 33.0008 2.26855C50.0164 2.26855 63.732 16.0873 63.732 33.1029C63.732 50.0154 50.0164 63.7311 33.0008 63.7311C15.9852 63.7311 2.26953 50.0154 2.26953 33.1029ZM11.8602 11.8592C6.39453 17.3248 2.99141 24.8529 2.99141 33.1029C2.99141 41.3529 6.39453 48.8811 11.757 54.2436C17.2227 59.6061 24.7508 63.0092 33.0008 63.0092C41.2508 63.0092 48.7789 59.7092 54.1414 54.2436C59.607 48.8811 62.907 41.3529 62.907 33.1029C62.907 24.8529 59.5039 17.3248 54.1414 11.8592C48.7789 6.39355 41.2508 2.99043 33.0008 2.99043C24.7508 2.99043 17.2227 6.39355 11.8602 11.8592Z" fill="#FBFBFB"/>
<path d="M8.14648 46.1996L29.184 31.0402C30.3184 31.659 32.1746 32.484 32.3809 32.484C32.5871 32.5871 32.5871 32.3809 32.5871 32.3809L30.009 30.2152C29.6996 30.009 29.5965 29.6996 29.5965 29.3902L32.0715 4.53711C31.9684 4.64023 31.9684 4.84648 31.8652 4.94961C31.7621 5.15586 31.7621 5.25898 31.7621 5.46523L28.1527 30.3184L8.35273 45.8902C8.24961 45.9934 8.14648 46.0965 8.14648 46.1996Z" fill="#333F47"/>
</g>
<defs>
<linearGradient id="paint0_linear_930_514" x1="8.24872" y1="12.2696" x2="57.7528" y2="53.73" gradientUnits="userSpaceOnUse">
<stop stop-color="white"/>
<stop offset="0.1" stop-color="#CDD0D0"/>
<stop offset="0.2" stop-color="#A5ACAF"/>
<stop offset="0.3" stop-color="#98A0A4"/>
<stop offset="0.4" stop-color="#828A8F"/>
<stop offset="0.5" stop-color="#667075"/>
<stop offset="0.6" stop-color="#535C63"/>
<stop offset="0.7" stop-color="#475158"/>
<stop offset="0.8" stop-color="#434D54"/>
<stop offset="1" stop-color="#475157"/>
</linearGradient>
<linearGradient id="paint1_linear_930_514" x1="9.76736" y1="13.4675" x2="56.1736" y2="52.4487" gradientUnits="userSpaceOnUse">
<stop stop-color="#0B1F2A"/>
<stop offset="0.2" stop-color="#333F47"/>
<stop offset="0.5" stop-color="#81898D"/>
<stop offset="0.7" stop-color="#B3B8B8"/>
<stop offset="0.8" stop-color="#DEE0DD"/>
<stop offset="1" stop-color="#FBFBFB"/>
</linearGradient>
<linearGradient id="paint2_linear_930_514" x1="44.2788" y1="64.0025" x2="21.6944" y2="1.92225" gradientUnits="userSpaceOnUse">
<stop stop-color="#E1E3E1"/>
<stop offset="0.1" stop-color="#C1C5C4"/>
<stop offset="0.3" stop-color="#9BA1A2"/>
<stop offset="0.5" stop-color="#7D8487"/>
<stop offset="0.7" stop-color="#687074" stop-opacity="0"/>
<stop offset="0.8" stop-color="#5B6469" stop-opacity="0"/>
<stop offset="1" stop-color="#576065" stop-opacity="0"/>
</linearGradient>
<linearGradient id="paint3_linear_930_514" x1="18.7694" y1="8.35377" x2="47.2298" y2="57.6455" gradientUnits="userSpaceOnUse">
<stop stop-color="#E1E3E1"/>
<stop offset="0.1" stop-color="#C1C5C4"/>
<stop offset="0.3" stop-color="#9BA1A2"/>
<stop offset="0.5" stop-color="#7D8487"/>
<stop offset="0.7" stop-color="#687074" stop-opacity="0"/>
<stop offset="0.8" stop-color="#5B6469" stop-opacity="0"/>
<stop offset="1" stop-color="#576065" stop-opacity="0"/>
</linearGradient>
<linearGradient id="paint4_linear_930_514" x1="45.879" y1="40.6236" x2="44.1259" y2="43.5111" gradientUnits="userSpaceOnUse">
<stop stop-color="#27343C"/>
<stop offset="1" stop-color="#00111E" stop-opacity="0"/>
</linearGradient>
<linearGradient id="paint5_linear_930_514" x1="40.8165" y1="30.0214" x2="37.929" y2="25.3807" gradientUnits="userSpaceOnUse">
<stop offset="0.1" stop-color="#02131F"/>
<stop offset="0.9" stop-color="#02131F" stop-opacity="0"/>
</linearGradient>
<linearGradient id="paint6_linear_930_514" x1="32.9807" y1="37.4711" x2="28.6494" y2="38.7086" gradientUnits="userSpaceOnUse">
<stop offset="0.2" stop-color="#02131F"/>
<stop offset="0.9" stop-color="#02131F" stop-opacity="0"/>
</linearGradient>
<linearGradient id="paint7_linear_930_514" x1="21.4415" y1="43.2135" x2="20.8228" y2="41.6666" gradientUnits="userSpaceOnUse">
<stop stop-color="#02131F"/>
<stop offset="0.1" stop-color="#02131F"/>
<stop offset="1" stop-color="#02131F" stop-opacity="0"/>
</linearGradient>
<linearGradient id="paint8_linear_930_514" x1="36.7142" y1="17.7517" x2="33.2079" y2="18.1642" gradientUnits="userSpaceOnUse">
<stop offset="0.3" stop-color="#02131F"/>
<stop offset="0.8" stop-color="#02131F" stop-opacity="0"/>
</linearGradient>
<linearGradient id="paint9_linear_930_514" x1="36.8235" y1="17.693" x2="34.4506" y2="18.0023" gradientUnits="userSpaceOnUse">
<stop offset="0.4" stop-color="#27343C"/>
<stop offset="1" stop-color="#3B474E" stop-opacity="0"/>
</linearGradient>
<linearGradient id="paint10_linear_930_514" x1="-0.370469" y1="33.857" x2="28.4014" y2="50.4601" gradientUnits="userSpaceOnUse">
<stop stop-color="#25323B" stop-opacity="0"/>
<stop offset="0.1" stop-color="#27343C"/>
</linearGradient>
<linearGradient id="paint11_linear_930_514" x1="32.9484" y1="38.5689" x2="32.9484" y2="33.6189" gradientUnits="userSpaceOnUse">
<stop offset="0.3" stop-color="#A5ABAF"/>
<stop offset="1" stop-color="#A5ABAF" stop-opacity="0"/>
</linearGradient>
<linearGradient id="paint12_linear_930_514" x1="49.1391" y1="2.37207" x2="49.1391" y2="65.2783" gradientUnits="userSpaceOnUse">
<stop stop-color="#6B7378"/>
<stop offset="0.2" stop-color="#333F47"/>
<stop offset="0.5" stop-color="#27343C"/>
<stop offset="0.8" stop-color="#333F47"/>
<stop offset="1" stop-color="#434D54"/>
</linearGradient>
<linearGradient id="paint13_linear_930_514" x1="59.0793" y1="8.3463" x2="45.1574" y2="28.765" gradientUnits="userSpaceOnUse">
<stop offset="0.7" stop-color="#49545B"/>
<stop offset="0.8" stop-color="white" stop-opacity="0"/>
</linearGradient>
<clipPath id="clip0_930_514">
<rect width="66" height="66" fill="white"/>
</clipPath>
</defs>
</svg>
