<svg width="67" height="67" viewBox="0 0 67 67" fill="none" xmlns="http://www.w3.org/2000/svg">
<path fill-rule="evenodd" clip-rule="evenodd" d="M47.7882 56C44.0002 59.4515 40.7387 61.3115 33.869 64.9156C27.4737 62.0074 23.2998 59.1404 19.68 56.3156C14.6779 52.4215 11.0845 46.0978 10.773 42.2198L8.27734 5.3061C25.1838 0.911525 43.1663 1.01163 58.7216 5.60155L56.1895 42.1409C55.8672 45.4496 52.9072 51.8842 47.7882 56Z" fill="#EDC95E" stroke="black" stroke-miterlimit="2.613"/>
<path fill-rule="evenodd" clip-rule="evenodd" d="M53.2932 40.9304L55.5783 8.30076C42.1912 4.03723 26.1555 3.97432 11.3809 7.85272L13.7132 40.9092C13.9558 44.3444 16.4306 49.5982 21.1745 53.624C24.0293 56.0485 29.6224 60.117 33.7535 61.6763C38.513 59.2682 42.8405 56.2744 46.2702 53.3192C50.5236 49.4456 53.0353 44.6287 53.2932 40.9304Z" fill="#EDC95E" stroke="black" stroke-miterlimit="2.613"/>
<path fill-rule="evenodd" clip-rule="evenodd" d="M45.7208 52.4581C42.4329 55.293 38.006 58.4704 33.7526 60.4996C29.9538 59.3244 24.3392 54.9924 21.6377 52.6632C16.9258 48.5953 15.0102 44.3374 14.7203 40.3116L12.4297 8.75739C26.4973 5.06321 41.8521 5.06321 54.6111 9.12653L52.3476 40.2594C52.0208 44.4003 50.0949 48.3583 45.7208 52.4581Z" fill="#EDC95E" stroke="black" stroke-miterlimit="2.613"/>
<path d="M13.4824 9.37061L13.936 14.809ZM13.936 14.809C27.3652 11.4527 41.4325 11.7895 53.1101 15.3206ZM53.1101 15.3206L53.611 9.78737ZM53.611 9.78737C41.5117 6.07789 26.8219 5.87698 13.4824 9.37061Z" stroke="black" stroke-miterlimit="2.613"/>
<path fill-rule="evenodd" clip-rule="evenodd" d="M46.8774 11.3888L43.8488 10.8886L43.732 12.3109L42.7459 12.1639L42.9781 8.39047L43.9861 8.53785L43.8801 9.98729L46.9514 10.4826L47.0512 9.03316L48.0804 9.22851L47.7689 13.012L46.7668 12.8274L46.8774 11.3888ZM32.2598 10.109C31.8907 10.109 31.5953 10.0088 31.3999 9.68211C31.2313 9.41342 31.2313 8.53854 31.3999 8.24865C31.5845 7.91149 31.9168 7.8166 32.1914 7.8166L36.4862 7.82216L36.4973 8.74918L32.4343 8.74397C32.2338 8.74397 32.2286 9.19201 32.45 9.19201H35.6527C36.0274 9.19201 36.36 9.41899 36.4653 9.71339C36.5814 10.03 36.5602 10.7468 36.4653 11.0415C36.3757 11.337 36.0378 11.4997 35.6155 11.4997H31.3787L31.3731 10.5514H35.1459C35.2016 10.547 35.2536 10.5218 35.2915 10.4807C35.3294 10.4397 35.3504 10.3859 35.3504 10.33C35.3504 10.2742 35.3294 10.2203 35.2915 10.1793C35.2536 10.1383 35.2016 10.113 35.1459 10.1086L32.2598 10.109ZM29.7753 10.4857C29.7743 10.4385 29.7639 10.392 29.7448 10.3488C29.7256 10.3057 29.698 10.2668 29.6637 10.2344C29.6293 10.202 29.5888 10.1768 29.5446 10.1602C29.5004 10.1436 29.4533 10.136 29.4061 10.1378L26.5566 10.3436L26.6146 11.7555L25.6914 11.8504L25.4961 8.12491L29.7388 7.8086C30.2876 7.76689 30.6095 8.17739 30.6356 8.52012C30.6672 8.92576 30.6832 9.44749 30.3665 9.66369C30.6303 9.85869 30.6992 10.1486 30.7044 10.5542L30.7152 11.5077L29.7916 11.5448L29.7753 10.4857Z" fill="black"/>
<path fill-rule="evenodd" clip-rule="evenodd" d="M29.1693 9.27632C29.5332 9.25512 29.5016 8.69133 29.1693 8.72296L26.457 8.92839L26.4887 9.44456L29.1693 9.27632Z" fill="#EDC95E"/>
<path fill-rule="evenodd" clip-rule="evenodd" d="M20.2832 8.78125C21.1539 8.57582 22.9374 8.29149 23.8714 8.22267C24.2986 8.19139 24.6312 8.41245 24.6893 8.74475C24.8266 9.50875 24.911 10.2988 24.8158 11.3586C24.7894 11.6642 24.5256 11.9064 24.1773 11.9805C22.9795 12.2439 21.634 12.3861 20.6364 12.481C20.383 12.5074 19.9822 12.3072 19.9137 11.9909C19.7396 11.2213 19.676 10.1462 19.7292 9.4083C19.7504 9.13475 20.0038 8.84486 20.2832 8.78125Z" fill="black"/>
<path fill-rule="evenodd" clip-rule="evenodd" d="M23.6732 11.0516C23.7945 11.0249 23.8474 10.8935 23.8581 10.7986C23.9002 10.5087 23.8634 9.74956 23.7945 9.49686C23.7737 9.39675 23.6892 9.33314 23.4994 9.34913C22.9822 9.38111 21.6155 9.57576 20.9401 9.72314C20.7608 9.76555 20.692 9.87087 20.6815 9.96576C20.6495 10.2132 20.7236 10.8931 20.7868 11.2723C20.8028 11.3624 20.9189 11.4253 21.0083 11.4201C21.9214 11.3467 22.9982 11.1994 23.6732 11.0516Z" fill="#EDC95E"/>
<path fill-rule="evenodd" clip-rule="evenodd" d="M38.635 8.93864C38.4348 8.93343 38.2975 9.05474 38.2819 9.16005C38.2343 9.47115 38.2179 9.87122 38.2179 10.393C38.2179 10.4614 38.334 10.6512 38.4345 10.6669C39.342 10.7937 41.1047 10.9519 42.065 11.0148L42.0066 11.9894C40.7459 11.9317 39.4268 11.7312 38.0601 11.6366C37.6114 11.6047 37.2843 11.3627 37.268 10.9307C37.2415 10.2192 37.2843 9.14407 37.4112 8.51701C37.4953 8.13258 37.8648 7.93202 38.2815 7.9428C39.5422 7.99042 40.545 8.1013 42.1968 8.32236L42.1335 9.29214C41.3323 9.22366 39.8123 8.98626 38.635 8.93864ZM17.9872 9.22158C19.2642 8.92126 19.4592 11.1872 18.3931 11.4507L15.4171 12.1938L15.5596 13.6586L14.6256 13.906L14.293 10.0909L17.9872 9.22158Z" fill="black"/>
<path fill-rule="evenodd" clip-rule="evenodd" d="M17.9721 10.7054C18.278 10.6366 18.2359 10.0888 17.9085 10.1573L15.2227 10.8055L15.2859 11.3693L17.9721 10.7054Z" fill="#EDC95E"/>
<path fill-rule="evenodd" clip-rule="evenodd" d="M49.5506 11.9539L49.4873 12.5654L52.4369 13.3085L52.3577 14.1618L48.4004 13.2296L48.7431 9.3877L52.7268 10.3519L52.6375 11.2476L49.6719 10.5313L49.6135 11.1795L52.5579 11.8963L52.4839 12.655L49.5506 11.9539Z" fill="black"/>
<path d="M25.5981 28.695V25.4965L25.6016 24.1478L25.6033 23.4944L33.1856 23.4888L33.1808 13.1289M33.1808 13.1289C27.2811 13.1289 20.8177 13.6871 13.9629 15.6006ZM13.9629 15.6006L15.3769 35.0608H25.5978L25.5981 28.695" stroke="black" stroke-miterlimit="2.613"/>
<path fill-rule="evenodd" clip-rule="evenodd" d="M25.5865 25.1847C25.5865 25.1162 24.7475 25.0526 24.3304 25.1051C23.2222 25.2368 20.4519 26.1065 19.2806 26.9129C19.2545 26.9814 19.2594 27.3658 19.1805 27.5452C19.112 27.7082 18.9378 27.8771 18.7689 27.9508C18.4679 28.0822 18.1196 27.6821 17.9667 27.7402C17.8082 27.7979 17.4707 27.9352 17.1064 27.6769C16.943 27.5612 16.8589 27.2344 16.9166 26.9918C16.9694 26.8177 17.1172 26.6807 17.2336 26.5702C17.3393 26.4649 17.2649 26.0592 17.6448 25.8166C17.9086 25.6484 18.2729 25.7857 18.5527 25.9327C18.616 25.9115 18.6584 25.8854 18.7057 25.8434C18.7422 25.7322 18.8005 25.395 18.8534 25.1315C18.917 24.8469 18.9382 24.6623 19.0223 24.3992C19.2333 23.7617 19.7397 22.8447 20.2677 22.3651C20.6845 21.9963 21.3334 21.7012 21.8135 21.7328C21.7658 21.8061 21.1697 22.3386 20.9952 22.576C20.5837 23.1235 20.2041 23.9668 20.0248 24.6835C19.9611 24.9258 19.9611 25.0158 20.0036 25.1736C20.3939 24.9994 20.9003 24.8312 21.1961 24.736C21.3122 24.4781 21.3755 24.1826 21.4759 23.9459C21.6341 23.5768 21.7349 23.4186 21.8979 23.1607C22.3675 22.4335 23.3595 21.7168 24.0929 21.7328C23.85 21.9434 23.3435 22.4704 23.1433 22.7863C22.98 23.0498 22.8267 23.3345 22.7106 23.6296C22.6105 23.8931 22.5788 24.0881 22.5524 24.3039C22.9323 24.1937 23.307 24.1145 23.5497 24.0985C23.7134 24.0088 23.7659 23.835 23.8559 23.6716C24.1354 23.1499 24.6838 22.5649 25.0325 22.3755C25.3119 22.2225 25.7235 22.0748 26.0189 22.1701C25.7023 22.4071 25.37 22.786 25.2223 23.013C25.0693 23.2552 24.8211 23.7245 24.8316 23.9459C25.0905 23.9668 25.4273 23.9532 25.5754 23.9164L25.5865 25.1847Z" fill="black"/>
<path fill-rule="evenodd" clip-rule="evenodd" d="M22.2256 16.6497C22.6268 16.0915 23.6817 15.2486 24.4947 15.2959C24.0515 15.6803 23.6608 16.1071 23.3866 16.5604C23.0275 17.145 22.7373 17.8781 22.6744 18.4415C22.9431 18.3414 23.5764 18.1624 23.9407 18.0832C24.2625 17.3824 24.6848 16.6077 25.2073 16.1912C25.5816 15.8909 26.1197 15.6327 26.6213 15.6907C26.5052 15.8541 26.315 15.9806 26.1725 16.1127C25.9136 16.339 25.7346 16.6448 25.5921 16.9556C25.4864 17.1874 25.307 17.883 25.3018 17.9149C25.6657 17.9097 26.3098 17.9514 26.4468 17.9938C26.8743 17.4353 27.8083 16.624 28.9272 16.8082C28.4416 17.0717 27.5552 17.8409 27.6081 18.2625C28.3359 18.7318 29.4228 19.7168 29.4705 20.6282C28.9744 20.1121 28.1566 19.6007 27.745 19.4586C26.7582 19.1106 25.5816 19.0634 24.6 19.2424C22.5527 19.6272 20.7428 20.5125 19.007 21.5507C18.9649 21.8302 18.8116 22.2515 18.6851 22.3936C18.5586 22.5358 18.3684 22.6731 18.163 22.7051C17.9044 22.7468 17.6406 22.6418 17.4188 22.5257C17.2763 22.4465 16.9016 22.5469 16.6646 22.4197C16.5008 22.3356 16.2475 22.0985 16.3163 21.7245C16.3743 21.3926 16.7066 21.1924 16.7539 20.8761C16.8227 20.4127 17.1599 20.2118 17.3344 20.1809C17.5241 20.1437 17.7195 20.2073 17.8936 20.2858C17.9673 20.3227 18.0462 20.3863 18.1154 20.4075C18.1839 20.3863 18.284 20.3018 18.3424 20.2758C18.358 20.2226 18.5322 19.2587 18.627 18.8371C18.7219 18.4155 18.8857 18.0568 19.023 17.6622C19.4345 16.4926 20.7063 15.3118 21.7248 15.3751C21.6719 15.4491 21.3445 15.6862 20.8909 16.2128C20.1575 17.072 19.9726 17.9838 19.6983 19.5486C20.2628 19.2851 20.7536 19.0957 21.2653 18.9108C21.3869 18.4262 21.5503 17.9518 21.7508 17.4933C21.8829 17.1982 22.0411 16.908 22.2256 16.6497Z" fill="black"/>
<path fill-rule="evenodd" clip-rule="evenodd" d="M52.978 17.9453L34.1191 17.9616L34.1348 23.505L52.5556 23.4946L52.978 17.9453Z" fill="#CA3132"/>
<path fill-rule="evenodd" clip-rule="evenodd" d="M38.4545 42.7432C38.3228 43.2747 38.2592 44.1708 38.27 44.1927C38.5918 44.0603 38.8925 43.9442 39.1567 43.8656C39.1772 43.8336 39.5526 43.0171 39.7215 42.7957C40.1167 42.1847 40.6496 41.6626 41.2985 41.315C41.7052 41.1092 42.2008 40.9198 42.6392 41.0835C42.0636 41.3571 41.6155 41.8527 41.3458 42.137C41.0979 42.4005 40.8074 42.7902 40.6756 43.1906C40.6544 43.2591 40.6336 43.4016 40.6336 43.4016C40.9023 43.3175 41.7625 43.1906 42.1216 43.143C42.1637 43.1374 42.2742 42.9007 42.3587 42.7846C42.4647 42.6428 42.5276 42.5531 42.6969 42.3637C43.13 41.8944 43.863 41.3936 44.5752 41.5041C44.1849 41.7519 43.757 42.1471 43.4143 42.769C43.3667 42.8639 43.3038 42.9956 43.3302 43.0533C43.4355 43.0748 43.9583 43.0641 44.2746 43.1016C44.6385 42.875 45.024 42.6741 45.4407 42.5851C45.91 42.4791 46.5221 42.5639 46.7654 42.7846C46.4804 42.769 46.2106 42.8218 45.9527 42.9219C45.8047 42.9803 45.5096 43.1173 45.398 43.3067C45.6785 43.3856 46.1373 43.6863 46.4272 43.9285C46.6274 44.0968 46.8704 44.3394 47.0233 44.5611C47.4088 45.0825 47.4877 46.02 47.2819 46.2998C47.2242 46.1361 47.1603 45.9734 47.0716 45.8198C46.8864 45.5094 46.5958 45.1722 46.3479 44.9873C45.1505 44.0763 43.4247 44.0286 42.0166 44.3126C40.8074 44.5611 38.6283 45.0141 37.2039 46.0255C37.2404 46.2056 37.1292 46.5049 36.9661 46.6217C36.7496 46.7791 36.4434 46.5633 36.2852 46.6481C36.0694 46.7586 35.8 46.6894 35.6891 46.6425C35.499 46.5629 35.3728 46.3683 35.3565 46.1416C35.3408 45.9623 35.5146 45.7464 35.5518 45.5518C35.5681 45.4722 35.4833 45.0825 35.816 44.8823C35.8792 44.8458 36.0694 44.777 36.2008 44.7982C36.3325 44.8246 36.4385 44.9087 36.5699 44.9299C36.7491 44.8663 36.9208 44.7832 37.0819 44.6821C37.1879 44.2761 37.2665 43.8069 37.3196 43.3908L38.4545 42.7432Z" fill="black"/>
<path d="M51.3074 40.2232C50.965 44.9553 48.722 48.2383 45.3928 51.4799C43.3343 53.4876 38.5015 57.1446 34.0954 59.3782L34.0898 44.2181C35.1396 44.176 36.3742 43.8597 37.3193 43.3905L38.4497 42.7307C40.7966 40.8798 41.6093 38.3476 41.6093 35.9023M51.307 40.2236L51.6184 35.9135L41.6089 35.9027" stroke="black" stroke-miterlimit="2.613"/>
<path fill-rule="evenodd" clip-rule="evenodd" d="M38.6366 48.3516C38.7954 48.1093 38.9856 47.7555 39.0798 47.6029C39.4124 47.0707 39.8924 46.6755 40.2202 46.5229C40.6682 46.307 41.3912 46.1802 41.7131 46.3383C41.3593 46.4231 41.0906 46.5862 40.842 46.76C40.5886 46.9337 40.0926 47.3874 39.9661 47.5768C39.8243 47.7878 39.7284 47.9772 39.6919 48.077C40.0923 47.988 40.573 47.914 40.8208 47.914C41.0009 47.6873 41.4753 47.1447 41.8288 46.8917C42.1139 46.6915 42.7208 46.4913 43.1003 46.6546C42.7364 46.7707 42.093 47.2765 41.8553 47.6397C41.8024 47.7245 41.7548 47.8142 41.7447 47.8611C41.9397 47.8775 42.3089 47.914 42.5098 47.9407C42.5303 47.9407 43.0795 47.6032 43.3273 47.5347C43.6499 47.4451 44.1772 47.3297 44.5091 47.6828C44.2668 47.6877 44.0392 47.7085 43.8602 47.7881C43.6023 47.9042 43.491 47.9883 43.3749 48.1514C43.8814 48.42 44.4097 48.6999 44.7211 49.1955C44.831 49.3693 45.0003 49.7802 44.905 50.0489C44.7469 49.8486 44.5303 49.6536 44.3565 49.5532C44.1087 49.4107 43.929 49.2741 43.628 49.158C42.6836 48.8048 41.4486 48.7099 40.4618 48.8417C39.1854 49.0054 37.6178 49.638 36.8163 50.1858C36.8691 50.4329 36.7478 50.7228 36.6053 50.7913C36.3046 50.9439 36.0147 50.686 35.9615 50.7016C35.8819 50.728 35.639 50.8122 35.4652 50.7388C35.2914 50.6703 35.1808 50.3641 35.2493 50.1691C35.3015 50.0217 35.5128 49.8107 35.5128 49.8107C35.4808 49.4896 35.6922 49.2949 35.9827 49.2574C36.1465 49.2417 36.2625 49.3686 36.3943 49.3947C36.5159 49.337 36.6001 49.2949 36.6637 49.2629C36.7377 48.9995 36.8482 48.7308 36.9216 48.5094C37.0432 48.1354 37.2229 47.8034 37.4499 47.4558C37.7763 46.955 38.3575 46.4808 39.0488 46.4701C38.8378 46.6338 38.7162 46.7235 38.5844 46.8868C38.3578 47.1712 38.1833 47.4294 38.0252 47.7346C37.8827 48.0033 37.7509 48.4041 37.729 48.7569C37.9828 48.6362 38.3731 48.4569 38.6366 48.3516ZM38.5347 51.2018C38.7141 51.1285 38.9039 51.0756 39.094 51.0965C38.6508 51.3808 38.2442 51.7972 38.1333 52.2918C38.1232 52.3454 38.1232 52.45 38.1705 52.482C38.2966 52.45 38.6185 52.3815 38.7033 52.3402C38.7562 52.2296 38.8879 52.0558 38.9776 51.9397C39.2939 51.5181 39.7482 51.0965 40.3752 51.2546C39.9644 51.4385 39.727 51.6971 39.5469 52.0239C39.5156 52.0822 39.4941 52.1921 39.5361 52.1921C39.6422 52.1921 40.0433 52.1764 40.101 52.1764C40.2855 52.0127 40.824 51.702 41.1935 51.8181C41.0093 51.9049 40.8402 52.0206 40.6926 52.1608C40.6561 52.2029 40.6078 52.2557 40.5977 52.319C40.9248 52.482 41.2147 52.6665 41.4844 52.8987C41.6269 53.0197 41.8327 53.2463 41.9588 53.636C41.6425 53.3624 40.6078 52.8723 40.0436 52.8459C39.6745 52.8303 39.2153 52.8987 38.9831 52.9512C38.0912 53.1514 37.1725 53.5522 36.387 54.0002C36.3919 54.1528 36.3658 54.3378 36.1916 54.4796C36.0755 54.5745 35.8225 54.6221 35.7273 54.4851C35.6751 54.4111 35.3314 54.49 35.2573 54.3955C35.2573 54.3955 35.1676 54.2582 35.1569 54.0948C35.1468 53.921 35.2629 53.8157 35.3578 53.726C35.3842 53.6947 35.379 53.3996 35.6 53.2988C35.7373 53.2355 35.875 53.2574 35.9911 53.3308C36.0387 53.3044 36.0752 53.278 36.1065 53.2574C36.1329 52.9147 36.1969 52.5984 36.323 52.256C36.4975 51.7708 37.0672 51.1806 37.558 51.2018C37.2261 51.5602 36.9567 52.0558 36.867 52.4667C36.8406 52.5984 36.8305 52.8563 36.8305 52.978C36.9479 52.906 37.0713 52.8442 37.1993 52.7934C37.2521 52.6672 37.4051 52.3509 37.4843 52.2081C37.6856 51.8393 38.1336 51.3652 38.5347 51.2018Z" fill="black"/>
<path fill-rule="evenodd" clip-rule="evenodd" d="M15.8809 40.7812C15.9441 42.6148 16.6935 44.8282 17.7224 46.3618H33.0723L33.0407 44.222C31.0671 44.222 28.0541 42.9207 26.8616 40.7924L15.8809 40.7812Z" fill="#CA3132"/>
<path d="M26.4336 35.9982C26.4336 45.747 40.7122 45.747 40.7122 36.0986L40.7178 24.3685L26.4339 24.3633V35.9978" stroke="black" stroke-miterlimit="2.613"/>
<path fill-rule="evenodd" clip-rule="evenodd" d="M31.0323 31.3273C31.2013 31.1427 31.3493 30.9001 31.3806 30.6946C31.4067 30.5261 30.9322 30.5368 30.7577 30.6422C30.6629 30.7002 30.5728 30.8159 30.4991 30.9216C30.4463 31.0005 30.2565 31.0638 30.1616 30.9741C30.0612 30.8792 30.2409 30.7158 30.2357 30.6157C30.2357 30.4475 29.9135 30.7002 29.7657 30.6317C29.6656 30.5841 29.6601 30.4319 29.7289 30.3422C29.7657 30.2942 29.8714 30.3158 29.919 30.2629C29.9666 30.2101 29.9666 30.1315 29.9826 30.0627C30.0038 29.9835 30.0879 29.947 30.1408 29.8889C30.3413 29.6939 30.7212 29.362 30.7949 29.3672C30.9687 29.3832 31.2169 29.4725 31.3699 29.3933C31.4015 29.378 31.4595 29.3255 31.4067 29.2935L30.9951 29.0248C30.9932 28.9824 31.0007 28.9401 31.017 28.9009C31.0334 28.8617 31.0582 28.8267 31.0897 28.7982C31.2798 28.6296 31.5753 28.7454 31.8235 28.7085C31.9972 28.6821 32.1613 28.6136 32.2875 28.4923C32.3191 28.6188 32.2399 28.7454 32.2399 28.8771C32.3984 29.0248 32.5621 29.151 32.715 29.2935C33.1686 29.7468 33.364 30.4051 33.3956 30.9849C33.422 31.2536 33.422 31.5278 33.422 31.9759C33.4961 31.7864 33.5433 31.5066 33.5593 31.2643C33.6278 30.5476 33.5169 29.9101 33.1109 29.3672C32.9458 29.1385 32.7583 28.9269 32.5513 28.7353C32.5725 28.5246 32.7522 28.1659 32.9208 28.2977C33.0317 28.3821 32.8683 28.5083 32.9844 28.5823C33.1113 28.6616 33.2958 28.6508 33.3747 28.6348C33.5597 28.5876 33.739 28.5403 33.9073 28.5246C33.9869 28.5191 34.1182 28.4822 34.145 28.5615C34.1666 28.614 34.1085 28.6508 34.0501 28.672C33.9816 28.6932 33.8763 28.6776 33.8179 28.7356C33.7703 28.7829 33.723 28.8354 33.739 28.9039C33.7595 28.9831 33.8443 29.0252 33.9285 28.9988C34.2469 28.9109 34.5747 28.8613 34.9048 28.851C35.0793 28.851 35.0421 28.9775 34.9577 29.0252C34.9 29.0564 34.8096 29.0832 34.7519 29.0884C34.4405 29.1253 34.2083 29.1465 34.2455 29.3258C34.2719 29.4468 34.4669 29.3307 34.5089 29.42C34.5566 29.5149 34.4248 29.5678 34.4356 29.631C34.4669 29.8309 34.8524 29.7892 35.0317 29.7468C35.1634 29.7151 35.3744 29.6098 35.4384 29.6943C35.4961 29.7676 35.4485 29.8837 35.3744 29.9049C35.1843 29.9577 34.8572 30.0523 34.7675 30.158C34.6834 30.2581 34.7839 30.4635 34.8836 30.4739C35.1103 30.5003 35.3588 30.5003 35.5381 30.5532C35.6066 30.574 35.665 30.6216 35.665 30.6953C35.665 30.7746 35.5854 30.801 35.5225 30.8219C35.4008 30.8587 35.1954 30.8587 35.0838 30.906C35.0473 30.922 34.9733 30.9484 34.9841 30.9904C35.0154 31.0697 35.1742 31.0485 35.306 31.0641C35.38 31.0697 35.5225 31.1274 35.5225 31.2063C35.5225 31.2908 35.4485 31.3168 35.316 31.3067C35.1103 31.2908 34.9208 31.3168 34.8311 31.354C34.804 31.3644 34.6466 31.3853 34.6511 31.4597C34.6619 31.5487 34.8311 31.491 34.8725 31.5806C34.9097 31.6648 34.7936 31.7124 34.7835 31.8177C34.7835 31.8601 34.804 31.881 34.8468 31.897C34.9841 31.955 35.1422 31.9494 35.2792 31.9234C35.4217 31.897 35.4745 32.0867 35.438 32.1079C35.2528 32.208 34.8412 32.1027 34.7463 32.1604C34.6146 32.2449 34.9678 32.4347 34.9573 32.4771C34.9465 32.5244 34.9045 32.5716 34.8725 32.5824C34.6939 32.6509 34.4617 32.5191 34.3296 32.5928C34.219 32.6613 34.2663 32.8351 34.1978 32.9251C34.113 33.0357 33.9229 32.9884 33.8388 33.0516C33.7282 33.1305 33.7227 33.32 33.8443 33.4361C33.9392 33.5258 34.0289 33.5887 34.1506 33.6464C34.6998 33.9206 35.2695 34.1949 35.8023 34.1577C36.0766 34.142 36.5246 34.1264 36.7731 34.1897C37.095 34.2686 37.4214 34.516 37.5914 34.6214C37.728 34.7055 37.9497 34.7274 38.1242 34.6641C38.2504 34.6214 38.3345 34.474 38.3088 34.3478C38.2292 33.9262 37.533 33.7944 37.5218 33.3728C37.5118 32.8883 37.4697 32.6248 37.3109 32.3186C37.2532 32.2028 37.2424 31.9341 37.38 31.8973C37.4906 31.8709 37.5274 32.0242 37.6171 31.987C38.0238 31.8285 38.0394 31.1858 38.4617 31.0645C38.7096 30.996 39.5431 30.9852 39.4746 30.8799C39.3008 30.6324 39.3797 30.3477 39.4746 30.216C39.5379 30.1319 39.7123 30.0471 39.7808 30.1319C39.8757 30.2421 39.6383 30.3738 39.6546 30.5375C39.6703 30.6901 39.8917 30.9852 39.7231 31.1434C39.6227 31.2379 38.8677 31.2699 38.6463 31.6071C38.509 31.8125 38.4937 31.9762 38.6571 31.9602C38.7888 31.9446 38.8993 31.7864 39.0203 31.6967C39.2368 31.5389 39.4113 31.4753 39.533 31.5911C39.5963 31.6491 39.5118 31.76 39.3957 31.7913C39.3008 31.8229 39.0686 32.0711 39.1315 32.1337C39.2264 32.2338 39.7541 31.7756 39.8865 31.8705C39.955 31.923 39.6272 32.2605 39.6856 32.3502C39.7541 32.4607 39.9762 32.2869 40.0446 32.3714C40.1444 32.4979 39.8702 32.7454 39.712 32.856C39.591 32.9352 39.638 33.23 39.4642 33.3196C39.2688 33.4145 39.1791 33.5828 39.2 33.6092C39.2212 33.6512 39.2685 33.6825 39.3425 33.6356C39.5584 33.4983 39.8278 33.3353 39.9386 33.3777C40.0019 33.4041 39.9129 33.7041 39.8333 33.8462C39.7537 33.9887 40.1552 33.9102 40.0968 34.0308C40.0471 34.1415 40.0324 34.2647 40.0547 34.384C40.0867 34.5477 39.6223 34.5842 39.5803 34.6951C39.5326 34.8219 39.6272 34.8532 39.6752 34.8588C39.955 34.9008 39.9174 35.1587 39.8069 35.2696C39.6595 35.4177 39.4058 35.4754 39.1844 35.4385C38.9942 35.4066 38.5667 35.3273 38.314 35.1379C38.2344 35.0802 38.1187 35.1222 38.1023 35.2011C38.0867 35.2908 38.1819 35.4545 38.224 35.5915C38.2824 35.7966 38.2504 36.0552 38.1819 36.2554C38.0345 36.6714 37.6383 37.019 37.5274 37.5196C37.501 37.652 37.5382 37.815 37.5914 37.9419C37.7068 38.2154 37.8757 38.474 38.0658 38.7055C38.0922 38.7796 38.1291 38.8637 38.0978 38.9322C38.0557 39.0375 37.728 39.2641 37.6334 39.3538C37.3328 39.6329 37.0741 39.9968 37.0158 40.3917C36.9945 40.5335 36.6894 40.676 36.4829 40.7344C36.3303 40.7758 36.1718 40.8185 36.0449 40.9183C36.0293 41.0344 36.0978 41.1348 36.1134 41.2502C36.1398 41.4505 35.8868 41.5509 35.6911 41.6142C35.5985 41.6499 35.5004 41.6694 35.4012 41.6719C35.3647 41.6719 35.3536 41.6086 35.3591 41.5777C35.4168 41.3034 35.4697 41.082 35.575 40.8561C35.6177 40.7713 35.6862 40.7028 35.755 40.6451L36.5093 40.0125L37.1006 39.164C37.1527 39.0851 37.1739 39.0166 37.1739 38.9589C37.1739 38.7952 37.1054 38.6426 36.9893 38.5373C36.842 38.4056 36.6254 38.3847 36.4617 38.2996C36.2507 38.1949 35.9445 37.8991 35.9024 37.8779C35.7863 37.8202 35.7178 38.0305 35.7022 38.1522C35.6758 38.3367 35.7335 38.5105 35.7286 38.6948C35.7286 38.7796 35.7178 38.8272 35.6758 38.8793C35.1801 39.1637 34.5625 39.269 34.1985 39.7226C34.1346 39.8015 34.0776 39.8863 33.9928 39.944C33.7863 40.0865 33.4439 39.9228 33.2906 40.1442C33.2222 40.2447 33.3014 40.3764 33.275 40.4869C33.259 40.5502 33.1377 40.6343 33.0431 40.6819C32.9164 40.7386 32.7806 40.7723 32.642 40.7817C32.4891 40.7084 32.584 40.4925 32.6365 40.3392C32.6893 40.1811 32.7633 40.0236 32.8846 39.9176C33.0644 39.7601 33.2906 39.5599 33.4338 39.4904C33.5548 39.4327 33.7397 39.4327 33.8871 39.375C34.0429 39.3273 34.1906 39.2561 34.3251 39.164C34.5416 39.0274 34.7418 38.8585 34.8635 38.6263C35.0008 38.3635 34.9851 38.0107 34.8106 37.7837C34.6525 37.578 34.4679 37.3777 34.3626 37.1456C34.3042 37.0194 34.3463 36.8456 34.4366 36.7295C34.4311 36.7246 34.3682 36.6819 34.3306 36.693C33.5763 36.725 32.8113 36.6409 32.1095 36.361C31.9246 36.287 31.7348 36.05 31.6027 36.0347C31.4814 36.0183 31.4074 36.1713 31.2861 36.2029C31.0907 36.2557 30.8373 36.2241 30.6107 36.2029C30.3469 36.1765 29.798 36.0604 29.4021 35.9342C29.3389 35.945 29.2704 35.9554 29.2124 35.9926C29.1279 36.0503 29.1123 36.1765 29.1067 36.2825C29.0963 36.4243 29.1383 36.556 29.1223 36.7034C29.1175 36.7775 29.0754 36.8567 29.0963 36.9255C29.1175 37.0097 29.2016 37.0465 29.2596 37.0993C29.3545 37.189 29.3705 37.3729 29.3705 37.5203C29.3705 37.684 29.3125 37.8998 29.4498 38.0111C29.5342 38.0795 29.6503 37.9895 29.756 38.0111C29.8721 38.0316 29.9086 38.1741 29.9141 38.2846C29.9197 38.4108 29.814 38.6798 29.7452 38.7483C29.6976 38.7959 29.6183 38.7591 29.5606 38.7327C29.4081 38.6642 29.2652 38.5533 29.1811 38.4063C29.1442 38.3423 29.1442 38.2638 29.107 38.196C29.049 38.0799 28.9433 38.0114 28.838 37.9318C28.7115 37.8369 28.6851 37.6638 28.6639 37.5102C28.6482 37.3684 28.6746 37.2304 28.6851 37.0886C28.7122 36.8064 28.6944 36.5218 28.6322 36.2453C28.5846 36.035 28.4689 35.8237 28.5214 35.6134C28.5478 35.5129 28.6162 35.4184 28.7115 35.3763C29.2231 35.3499 29.7299 35.2651 30.2152 35.1122L29.8988 34.8011C29.8193 34.8011 29.7563 34.8807 29.6771 34.8807C29.5926 34.8807 29.4765 34.7597 29.4452 34.7169C29.2815 34.4747 29.1762 34.1956 29.1022 33.9112C29.0334 33.8007 28.9492 33.6891 28.8224 33.637C28.7344 33.5985 28.6389 33.5804 28.5429 33.5842C28.2787 33.7002 28.0361 33.9269 28.0149 34.2168C28.0097 34.2908 28.0518 34.3541 28.0413 34.4271C28.0257 34.5539 27.9305 34.638 27.8408 34.7277C27.7511 34.8174 27.6666 34.9071 27.6298 35.0333C27.5982 35.1386 27.6353 35.2491 27.6823 35.3496C27.7142 35.418 27.7511 35.4862 27.7247 35.5599C27.6611 35.7336 27.2447 35.913 27.1233 35.913C27.0813 35.913 27.0441 35.8553 27.0285 35.8077C26.9808 35.6495 26.9916 35.4813 27.0232 35.3225C27.1341 35.2015 27.2186 35.0597 27.2659 34.9015C27.3291 34.6912 27.2975 34.4642 27.3979 34.2689C27.6614 33.8216 28.3368 32.9258 28.4692 32.7937C28.5273 32.7357 28.6694 32.7041 28.7278 32.7409C29.0128 32.9255 29.1818 33.1521 29.4557 33.2943C29.6037 33.368 29.7883 33.4788 29.9204 33.3732C30.0521 33.2678 30.0733 32.5619 30.1578 32.3825C30.3097 32.0704 30.7372 31.6592 31.0323 31.3273ZM36.2848 26.9379L36.1687 27.3804H35.7464L36.2955 25.3039H36.7756L37.3029 27.3647H36.8812L36.7756 26.9379H36.2848ZM35.176 25.9007C35.1815 25.7637 35.1395 25.5847 35.0286 25.5423C34.9118 25.5003 34.7908 25.5368 34.7387 25.616C34.6483 25.7637 34.6483 25.9639 34.6539 26.2691C34.6539 26.4537 34.6594 26.7123 34.6959 26.8333C34.7856 27.1127 35.023 27.1287 35.1391 26.9546C35.1975 26.8705 35.1975 26.7071 35.1919 26.5597H34.949V26.2538H35.5771V27.371H35.2764V27.218C35.2708 27.2288 35.1391 27.3286 35.0755 27.3606C34.9702 27.4078 34.77 27.4078 34.6063 27.339C34.469 27.2813 34.3376 27.0971 34.2792 26.86C34.2215 26.6119 34.2472 26.2903 34.2472 26.0164C34.2528 25.7269 34.4054 25.405 34.6163 25.2841C34.7644 25.1996 35.0387 25.1996 35.2131 25.2629C35.4241 25.3369 35.5872 25.6424 35.5559 25.9003L35.176 25.9007ZM28.1074 25.3355C28.2763 25.4408 28.366 25.6358 28.3347 25.8628H28.0017C28.0017 25.6522 27.912 25.5514 27.733 25.5465C27.6221 25.5409 27.4848 25.6678 27.4848 25.7627C27.4793 26.0415 27.7278 26.0999 27.8964 26.1523C28.0229 26.1895 28.1758 26.2684 28.2499 26.379C28.3872 26.5788 28.4028 26.7902 28.2923 27.0641C28.2398 27.1955 28.0389 27.3536 27.8703 27.3905C27.6802 27.4329 27.448 27.4117 27.2582 27.2691C27.1053 27.153 27.0364 26.9264 27.0681 26.721H27.4428C27.4428 26.8214 27.4584 26.8948 27.5008 26.9584C27.5325 27.0008 27.5905 27.0689 27.691 27.0745C27.7307 27.0775 27.7706 27.0717 27.8079 27.0575C27.8451 27.0433 27.8788 27.0211 27.9065 26.9924C27.9341 26.9638 27.9552 26.9293 27.968 26.8916C27.9809 26.8539 27.9853 26.8138 27.9809 26.7742C27.9596 26.4527 27.4216 26.4315 27.2367 26.2257C27.0149 25.973 27.0841 25.567 27.2634 25.4036C27.5113 25.1725 27.8491 25.1725 28.1074 25.3355ZM38.762 26.7095C38.7669 26.7888 38.7728 27.0679 38.7832 27.2472C38.7888 27.2997 38.8409 27.3682 38.8409 27.3734H38.445C38.3929 27.3734 38.3873 27.2785 38.3818 27.1996C38.3717 26.989 38.3926 26.4881 38.1868 26.4881H37.933V27.3682H37.5371V25.3129H38.25C38.6084 25.3129 38.7885 25.5187 38.7885 25.7978C38.7885 25.9824 38.7829 26.1982 38.5719 26.2879C38.6824 26.3936 38.7457 26.5517 38.762 26.7095Z" fill="black"/>
<path fill-rule="evenodd" clip-rule="evenodd" d="M38.22 25.6094H37.9238V26.1631H38.1404C38.4998 26.1631 38.4942 25.6094 38.22 25.6094Z" fill="#EDC95E"/>
<path fill-rule="evenodd" clip-rule="evenodd" d="M29.3108 27.3773H28.9149V25.6435H28.4609V25.2959H29.7696V25.6435H29.3108V27.3773ZM31.8583 27.3773V25.6435H31.4043V25.2959H32.7182V25.6435H32.2542V27.3773H31.8583ZM32.8962 25.2962H34.2101V25.6497H33.7457V27.378H33.3498V25.6497H32.8962V25.2962ZM39.7607 25.6497V27.3835H39.3648V25.6497H38.9105V25.2969H40.2195V25.6497H39.7607ZM30.8047 26.7805V25.2997H31.1895V26.7436C31.1895 27.6077 29.9337 27.6077 29.9337 26.77V25.2997H30.3185V26.7857C30.3188 27.1075 30.8047 27.1075 30.8047 26.7805Z" fill="black"/>
<path d="M31.6935 28.3348C31.8096 28.235 31.973 28.0974 32.1631 27.9767C32.3321 27.8659 32.1419 28.1189 32.1315 28.2242C32.0995 28.5086 31.8833 28.5402 31.6459 28.4877C31.6039 28.4773 31.6198 28.398 31.6935 28.3348Z" stroke="black" stroke-miterlimit="2.613"/>
<path fill-rule="evenodd" clip-rule="evenodd" d="M41.6157 34.978L51.6944 34.9724L52.1424 29.4082L41.6157 29.4134V34.978ZM33.1157 52.3085L22.7207 52.2873C24.8629 54.2105 29.823 57.8101 33.0841 59.2696L33.1157 52.3085Z" fill="#CA3132"/>
<path fill-rule="evenodd" clip-rule="evenodd" d="M25.5974 30.3646V31.2555C25.1859 30.95 23.2755 30.7285 22.0989 31.187C21.8143 31.2972 20.8855 31.698 20.4632 32.0299L19.2762 32.9681C19.1597 33.0623 19.1496 33.2684 19.1496 33.4265C19.1496 33.7741 18.7433 34.0376 18.5163 33.9636C18.3318 33.9003 18.0784 33.8638 17.8462 33.9159C17.598 33.9688 17.3766 33.658 17.3554 33.4787C17.3238 33.2576 17.4982 32.9681 17.5083 32.8728C17.5188 32.7831 17.4607 32.4303 17.7878 32.2141C17.9355 32.1193 18.1416 32.1245 18.289 32.2037C18.332 32.229 18.3831 32.2365 18.4315 32.2246C18.4844 32.2037 18.6269 32.0772 18.6637 32.0456C18.6797 31.8353 18.6481 31.503 18.6693 31.3188C18.7166 30.96 18.7378 30.755 18.8486 30.4067C18.9435 30.1064 19.1496 29.6691 19.3022 29.4216C19.5768 28.9736 20.1205 28.5415 20.5265 28.5784C20.368 28.789 20.3155 28.8999 20.1994 29.1161C19.9832 29.5113 19.7826 30.1648 19.6877 30.6069C19.6241 30.8916 19.5925 31.113 19.6081 31.4133C19.9196 31.1815 20.2466 30.992 20.4628 30.8704C20.5673 30.3475 20.7449 29.842 20.9905 29.3688C21.2543 28.8682 21.9665 28.3253 22.4309 28.3674C21.9929 28.8418 21.6818 29.5005 21.5657 29.9221C21.5181 30.0904 21.4601 30.2854 21.4865 30.391C21.6603 30.2965 22.0197 30.2016 22.1935 30.1856C22.3096 29.8957 22.4677 29.5478 22.5998 29.3427C23.0114 28.7101 23.6603 28.3253 24.0302 28.3413C23.7399 28.7309 23.4914 29.0844 23.3124 29.6058C23.2592 29.7584 23.2331 29.9221 23.2331 30.001C23.4598 29.9638 23.8133 29.9638 23.9561 29.9638C24.3406 29.6187 24.3027 29.5241 24.7267 29.2002C24.9905 28.9944 25.481 28.715 25.5971 28.6938V29.3166C25.3962 29.4963 24.9902 29.8822 24.9106 30.0827C25.0854 30.1467 25.4337 30.2541 25.5974 30.3646Z" fill="black"/>
<path fill-rule="evenodd" clip-rule="evenodd" d="M36.7184 26.5604L36.529 25.7275L36.3496 26.5604H36.7184Z" fill="#EDC95E"/>
<path fill-rule="evenodd" clip-rule="evenodd" d="M52.5018 24.0472L41.6552 24.0517V28.854L52.1691 28.8669L52.4889 24.237L52.5018 24.0472ZM53.0009 17.4166L53.0972 15.8511C46.2907 13.7506 39.9972 13.1211 34.0986 13.1211L34.0958 17.3905L53.0009 17.4166ZM26.6025 40.2178C25.8653 38.8566 25.5743 37.3617 25.5743 35.898L15.5645 35.9087L15.8759 40.2188L26.6025 40.2178ZM33.0798 51.5822L33.0816 47.09L18.1019 47.0737C19.0744 48.6256 20.3233 50.0511 21.7801 51.4693C21.82 51.5086 21.8614 51.5489 21.9038 51.5895L33.0798 51.5822Z" fill="black"/>
</svg>
