<svg width="66" height="66" viewBox="0 0 66 66" fill="none" xmlns="http://www.w3.org/2000/svg">
<path fill-rule="evenodd" clip-rule="evenodd" d="M47.2191 55.4208C43.4492 58.8602 40.2039 60.714 33.3672 64.3051C27.0033 61.4066 22.8497 58.5496 19.2476 55.7358C14.2697 51.855 10.694 45.5534 10.3838 41.6887L7.90039 4.90485C24.7243 0.525535 42.6192 0.625174 58.0989 5.19898L55.5792 41.6103C55.2583 44.908 52.3123 51.3195 47.2191 55.4208ZM52.6968 40.404L54.9707 7.88923C41.6485 3.64105 25.6912 3.57805 10.9885 7.44274L13.3093 40.3832C13.551 43.8065 16.0136 49.0422 20.7343 53.0541C23.5752 55.4697 29.1413 59.5238 33.2522 61.0779C37.9889 58.6784 42.2943 55.6957 45.7077 52.75C49.9398 48.8898 52.4393 44.0903 52.6968 40.404ZM45.1612 51.8913C41.8896 54.7168 37.4846 57.8833 33.2522 59.9049C29.4717 58.7338 23.8847 54.4172 21.1962 52.0964C16.507 48.0423 14.6009 43.8 14.3122 39.7874L12.0332 8.34394C26.0323 4.66312 41.3126 4.66312 54.0089 8.71133L51.7566 39.735C51.431 43.8623 49.5142 47.8057 45.1612 51.8913ZM13.0796 8.95512L13.5312 14.3743C26.8948 11.0294 40.8942 11.3656 52.5143 14.8838L53.0132 9.37012C40.9723 5.6732 26.3541 5.47358 13.0796 8.95512ZM46.3117 10.9664L43.2976 10.4675L43.1818 11.8854L42.2001 11.7382L42.4309 7.9786L43.4342 8.12583L43.329 9.56974L46.3853 10.0631L46.485 8.61923L47.5087 8.81337L47.1992 12.5836L46.2015 12.4L46.3117 10.9664ZM31.7655 9.6906C31.3977 9.6906 31.1036 9.59096 30.9095 9.26534C30.7417 8.99758 30.7417 8.12583 30.9095 7.83718C31.0933 7.50129 31.4241 7.40678 31.6973 7.40678L35.9715 7.41192L35.9814 8.33606L31.9387 8.33058C31.7391 8.33058 31.734 8.77708 31.9545 8.77708H35.1415C35.5148 8.77708 35.8452 9.00272 35.9499 9.29684C36.0657 9.61185 36.0448 10.3261 35.9499 10.6202C35.8609 10.9143 35.5247 11.077 35.1046 11.077H30.8886L30.8831 10.1316H34.6372C34.6927 10.1272 34.7445 10.1021 34.7822 10.0612C34.82 10.0204 34.841 9.96676 34.841 9.91111C34.841 9.85546 34.82 9.80185 34.7822 9.76098C34.7445 9.72011 34.6927 9.69498 34.6372 9.6906H31.7655ZM29.2926 10.0662C29.2918 10.0192 29.2815 9.97281 29.2625 9.92979C29.2434 9.88678 29.216 9.848 29.1818 9.81572C29.1476 9.78345 29.1072 9.75833 29.0632 9.74185C29.0191 9.72536 28.9722 9.71783 28.9252 9.71971L26.0895 9.92447L26.147 11.3317L25.228 11.4262L25.0335 7.71392L29.2556 7.39857C29.8018 7.35679 30.1219 7.76631 30.1479 8.10768C30.1795 8.51206 30.1952 9.03182 29.8798 9.24719C30.1428 9.44134 30.211 9.73032 30.2161 10.1347L30.2267 11.0852L29.3077 11.1218L29.2926 10.0662ZM28.6903 8.86131C29.0526 8.84042 29.0211 8.2782 28.6903 8.31004L25.9912 8.5148L26.0227 9.02943L28.6903 8.86131ZM19.8482 8.36825C20.7144 8.16349 22.4891 7.87998 23.4187 7.8115C23.844 7.78034 24.1747 8.00085 24.2326 8.33161C24.3692 9.09311 24.4535 9.88064 24.359 10.9363C24.3326 11.2407 24.07 11.4824 23.7235 11.556C22.5319 11.8186 21.1924 11.9604 20.1998 12.0549C19.9478 12.0813 19.5489 11.8816 19.4804 11.5666C19.3072 10.7996 19.2442 9.72861 19.2965 8.99347C19.3178 8.7199 19.5698 8.43125 19.8482 8.36825ZM23.2208 10.6295C23.3413 10.6034 23.3941 10.472 23.4047 10.3775C23.4468 10.0885 23.4098 9.33245 23.3413 9.0801C23.3205 8.98046 23.2366 8.91746 23.0476 8.93321C22.5329 8.96471 21.1726 9.1592 20.5008 9.30609C20.3224 9.3482 20.2539 9.45298 20.2436 9.54748C20.2121 9.79435 20.2854 10.4716 20.3488 10.85C20.3645 10.9393 20.4802 11.002 20.5693 10.9972C21.4773 10.9236 22.5487 10.7767 23.2208 10.6295ZM38.1115 8.52473C37.9116 8.51925 37.7753 8.64012 37.7599 8.74523C37.7123 9.05511 37.6962 9.454 37.6962 9.97411C37.6962 10.0423 37.8119 10.2313 37.9116 10.247C38.8152 10.373 40.5686 10.5309 41.5243 10.5939L41.4667 11.5653C40.2115 11.5077 38.8987 11.3081 37.539 11.2133C37.0929 11.1818 36.7673 10.9404 36.7512 10.51C36.7251 9.80086 36.7673 8.72948 36.8929 8.10494C36.9772 7.72145 37.3442 7.52217 37.7595 7.53245C39.0141 7.5797 40.0119 7.68995 41.6557 7.91046L41.5927 8.87706C40.7946 8.80823 39.2825 8.57198 38.1115 8.52473ZM17.5633 8.80652C18.834 8.50726 19.0281 10.7651 17.9673 11.0277L15.0059 11.7683L15.1477 13.228L14.2184 13.4752L13.8876 9.6728L17.5633 8.80652ZM17.5479 10.2854C17.8523 10.2172 17.8105 9.67143 17.4846 9.73957L14.8118 10.3853L14.8751 10.9476L17.5479 10.2854ZM48.9718 11.5293L48.9088 12.1384L51.8439 12.8787L51.7651 13.7296L47.8268 12.8003L48.1686 8.9719L52.1329 9.93302L52.0439 10.8257L49.0927 10.1114L49.0352 10.7575L51.9651 11.4714L51.8915 12.2275L48.9718 11.5293ZM20.5669 22.4249C20.1573 22.971 19.7793 23.8113 19.6009 24.5252C19.5376 24.7669 19.5376 24.8559 19.5801 25.0134C19.9683 24.8402 20.4727 24.6721 20.7665 24.5775C20.8822 24.3207 20.9449 24.0263 21.0449 23.79C21.202 23.4226 21.302 23.2648 21.465 23.0076C21.9324 22.2831 22.9195 21.5689 23.6492 21.5846C23.4074 21.7945 22.9034 22.3198 22.7041 22.6348C22.5415 22.8974 22.3891 23.1809 22.2734 23.475C22.1738 23.738 22.1423 23.9318 22.1159 24.1472C22.4939 24.0369 22.8668 23.9581 23.1082 23.9424C23.2712 23.853 23.3235 23.6794 23.4129 23.5168C23.6909 22.997 24.2371 22.4139 24.5839 22.2253C24.8619 22.0729 25.2718 21.926 25.5656 22.0205C25.2506 22.2567 24.9198 22.6348 24.7729 22.8607C24.6206 23.1021 24.3737 23.5699 24.3843 23.79C24.6418 23.8113 25.0092 23.79 25.1564 23.7534L25.1403 23.0285L32.6858 23.023L32.6807 12.6993C26.8099 12.6993 20.3775 13.256 13.5565 15.1622L14.9638 34.5541H25.1348V30.7637C24.7253 30.4593 22.8243 30.2385 21.6536 30.6952C21.3701 30.8055 20.446 31.2047 20.0259 31.5352L18.8446 32.4703C18.7288 32.5648 18.7186 32.7695 18.7186 32.9267C18.7186 33.2732 18.3142 33.5358 18.0886 33.4622C17.9047 33.3992 17.6527 33.3626 17.4216 33.4153C17.1747 33.4673 16.9545 33.1571 16.9333 32.9794C16.9018 32.7586 17.0754 32.4703 17.0857 32.3754C17.0963 32.286 17.0384 31.9341 17.3637 31.719C17.5106 31.6249 17.7153 31.6297 17.8626 31.7088C17.9054 31.7337 17.9561 31.7413 18.0043 31.73C18.0571 31.7088 18.1988 31.5831 18.2354 31.5516C18.2512 31.3417 18.2197 31.0106 18.2409 30.8271C18.2882 30.4699 18.3091 30.2652 18.4193 29.9183C18.5138 29.6191 18.7186 29.1835 18.8706 28.9363C19.1438 28.4902 19.6845 28.0594 20.0892 28.0961C19.9314 28.3063 19.879 28.4166 19.7636 28.6319C19.5482 29.0257 19.3486 29.6769 19.2544 30.118C19.1911 30.4015 19.1599 30.6223 19.1757 30.9212C19.4856 30.6904 19.8108 30.5011 20.0262 30.3806C20.1258 29.8605 20.3309 29.2989 20.5511 28.8843C20.8137 28.3851 21.5225 27.8441 21.9851 27.8862C21.5492 28.3587 21.239 29.0151 21.1236 29.4352C21.0764 29.603 21.0185 29.7978 21.0452 29.9026C21.2181 29.8081 21.5756 29.7136 21.7485 29.6978C21.8642 29.4092 22.0217 29.0623 22.1532 28.8576C22.5627 28.2272 23.2085 27.8441 23.5762 27.8598C23.2872 28.2484 23.0404 28.6001 22.862 29.1202C22.8092 29.2722 22.7832 29.4352 22.7832 29.514C23.0089 29.4773 23.3609 29.4773 23.5026 29.4773C23.7652 29.2411 23.9539 28.9572 24.2693 28.7158C24.5319 28.5107 25.0201 28.2327 25.1355 28.2115V25.024C25.1355 24.9556 24.3008 24.8929 23.8858 24.9453C22.7832 25.0768 20.0266 25.943 18.8607 26.7467C18.8343 26.8151 18.8398 27.1983 18.7607 27.3767C18.6926 27.5393 18.5193 27.7074 18.3515 27.7811C18.0523 27.9125 17.7054 27.5133 17.553 27.5712C17.3955 27.629 17.0596 27.7653 16.697 27.5082C16.5344 27.3928 16.4505 27.0668 16.508 26.8258C16.5608 26.6522 16.7077 26.5159 16.823 26.4056C16.9282 26.3005 16.8545 25.8961 17.2322 25.6547C17.4952 25.4866 17.8571 25.6232 18.1358 25.7701C18.1925 25.7521 18.2444 25.7217 18.2878 25.6811C18.3245 25.5705 18.3823 25.2346 18.4351 24.972C18.4981 24.6881 18.5193 24.5046 18.6032 24.2423C18.8134 23.6072 19.3171 22.6933 19.8427 22.2153C20.2573 21.8476 20.9031 21.5538 21.3811 21.5853C21.3335 21.6579 20.7405 22.1886 20.5669 22.4249ZM21.7807 16.2089C22.1799 15.6525 23.2301 14.8122 24.0388 14.8598C23.5975 15.243 23.2088 15.6683 22.9359 16.1199C22.5792 16.703 22.2902 17.4327 22.2272 17.9949C22.4949 17.8949 23.1249 17.7165 23.4872 17.6377C23.8077 16.9392 24.2278 16.1675 24.7479 15.7525C25.1205 15.4532 25.656 15.1961 26.1552 15.2536C26.0395 15.4166 25.8505 15.5426 25.7087 15.6737C25.4516 15.8994 25.2732 16.2041 25.1311 16.514C25.026 16.7448 24.8476 17.4381 24.8421 17.4696C25.2044 17.4645 25.845 17.5063 25.9816 17.5484C26.4072 16.9916 27.3368 16.1829 28.4496 16.3668C27.9665 16.629 27.0845 17.3953 27.1372 17.8158C27.8617 18.2835 28.9434 19.2652 28.9906 20.1739C28.4972 19.6593 27.6833 19.1498 27.2735 19.008C26.2915 18.6615 25.1205 18.6143 24.1439 18.7927C22.1066 19.1762 20.3056 20.0582 18.5782 21.0929C18.5364 21.371 18.3837 21.7911 18.2577 21.9332C18.1317 22.0749 17.9427 22.2112 17.7379 22.2427C17.4808 22.2848 17.2178 22.1797 16.9977 22.0643C16.8556 21.9856 16.483 22.0856 16.2468 21.9592C16.0841 21.875 15.8318 21.6387 15.9003 21.2662C15.9578 20.9354 16.2885 20.7358 16.3358 20.4208C16.4039 19.9585 16.7402 19.7589 16.9134 19.7278C17.1024 19.6911 17.2969 19.7541 17.4698 19.8329C17.5435 19.8695 17.6219 19.9325 17.6907 19.9538C17.7588 19.9325 17.8585 19.8486 17.9163 19.8226C17.9321 19.7699 18.1057 18.8091 18.1998 18.389C18.2943 17.9689 18.457 17.6114 18.5936 17.218C19.0035 16.0524 20.2686 14.8759 21.2825 14.9389C21.2298 15.0126 20.9041 15.2488 20.4525 15.7741C19.7228 16.6297 19.539 17.5385 19.2657 19.0981C19.8276 18.8355 20.3159 18.6465 20.8254 18.4626C20.9468 17.9792 21.1085 17.5067 21.3085 17.0502C21.4396 16.755 21.5971 16.4664 21.7807 16.2089ZM52.3832 17.5001L33.6168 17.5162L33.6329 23.0402L51.9634 23.0296L52.3832 17.5001ZM35.7716 46.1013C35.5562 46.2115 35.2888 46.1434 35.1785 46.0958C34.9892 46.017 34.8635 45.8222 34.8474 45.5969C34.832 45.4185 35.0053 45.2032 35.0419 45.0083C35.0573 44.9296 34.9738 44.5416 35.3042 44.3417C35.3679 44.305 35.5562 44.2365 35.6873 44.2581C35.8191 44.2841 35.9239 44.3684 36.0551 44.3893C36.2335 44.326 36.4044 44.2432 36.5646 44.1424C36.6697 43.7377 36.7484 43.271 36.8005 42.8556C35.8609 43.323 34.6317 43.638 33.587 43.6801L33.5925 58.7879C37.977 56.561 42.7867 52.9171 44.8342 50.9161C48.148 47.6866 50.3794 44.4153 50.7205 39.6997L51.03 35.4043L41.0695 35.3937C41.0695 37.8299 40.2556 40.3719 37.929 42.2095C37.7979 42.7399 37.7352 43.6326 37.7452 43.6541C38.0656 43.5223 38.3652 43.4072 38.6279 43.3285C38.6488 43.297 39.0216 42.4831 39.1898 42.2626C39.5835 41.6535 40.1139 41.133 40.7593 40.7865C41.164 40.5818 41.6574 40.3927 42.0933 40.5557C41.5208 40.8286 41.074 41.322 40.8066 41.6055C40.5597 41.8685 40.2711 42.2568 40.1399 42.656C40.122 42.7252 40.108 42.7952 40.0978 42.8659C40.3659 42.7817 41.2212 42.656 41.5783 42.6084C41.6205 42.603 41.7307 42.367 41.8149 42.2513C41.9194 42.1096 41.9827 42.0205 42.1505 41.8312C42.5812 41.3638 43.3109 40.8649 44.0197 40.9752C43.6317 41.222 43.2058 41.6158 42.8648 42.2352C42.8172 42.3301 42.7545 42.4612 42.7805 42.5187C42.8856 42.5399 43.4057 42.5293 43.7208 42.5663C44.0827 42.341 44.4665 42.1411 44.8812 42.052C45.3485 41.9469 45.958 42.0308 46.1994 42.2513C45.9159 42.2352 45.6478 42.2879 45.391 42.3876C45.2438 42.4458 44.9496 42.5821 44.8394 42.7707C45.1174 42.8495 45.5749 43.1491 45.8632 43.3908C46.0631 43.5586 46.3045 43.8007 46.4569 44.0208C46.84 44.5413 46.9191 45.4754 46.7137 45.7541C46.6562 45.5907 46.5932 45.4285 46.5038 45.2761C46.3199 44.9665 46.0309 44.63 45.7841 44.4461C44.5925 43.5381 42.8757 43.4905 41.4732 43.774C40.2707 44.0208 38.1019 44.4728 36.6844 45.4805C36.721 45.6589 36.6108 45.9585 36.4485 46.0735C36.2335 46.2321 35.9294 46.017 35.7716 46.1013ZM38.1115 47.7992C38.2687 47.5578 38.458 47.2062 38.5522 47.0535C38.8833 46.5231 39.3613 46.1293 39.6862 45.9766C40.1331 45.7613 40.8518 45.6356 41.1723 45.7928C40.8206 45.877 40.5529 46.0396 40.3063 46.2129C40.0543 46.3868 39.5599 46.8381 39.4342 47.0275C39.2925 47.2374 39.1983 47.426 39.1613 47.5263C39.5599 47.4366 40.0382 47.363 40.2848 47.363C40.4631 47.137 40.936 46.5967 41.288 46.3444C41.5715 46.1444 42.1755 45.9451 42.5532 46.1078C42.1912 46.2235 41.5506 46.7279 41.314 47.0901C41.262 47.1737 41.2144 47.2634 41.2038 47.3103C41.3982 47.3264 41.7656 47.363 41.9656 47.389C41.9865 47.389 42.5326 47.0535 42.7795 46.985C43.1 46.8953 43.6249 46.7803 43.956 47.1322C43.7146 47.137 43.4886 47.1583 43.3099 47.2374C43.0524 47.3524 42.9421 47.4366 42.8271 47.5993C43.3308 47.8674 43.8563 48.1457 44.1659 48.6391C44.2761 48.8124 44.4439 49.2223 44.3497 49.4897C44.1919 49.2904 43.9765 49.0959 43.8033 48.9963C43.5564 48.8545 43.378 48.7182 43.0784 48.6025C42.1389 48.2509 40.9103 48.1564 39.928 48.2875C38.6573 48.4501 37.0977 49.0805 36.2999 49.6263C36.3519 49.8732 36.2317 50.1618 36.09 50.2303C35.7904 50.3827 35.5021 50.1252 35.4494 50.1413C35.3706 50.1673 35.1289 50.2515 34.956 50.1779C34.782 50.1098 34.6724 49.8047 34.7406 49.6109C34.7926 49.4637 35.0035 49.2538 35.0035 49.2538C34.9714 48.9333 35.1816 48.7395 35.4702 48.7022C35.6336 48.6867 35.7483 48.8124 35.8801 48.8391C36.0006 48.7809 36.0849 48.7395 36.1475 48.7073C36.2211 48.445 36.3314 48.1769 36.405 47.9564C36.5255 47.5839 36.7039 47.2528 36.9299 46.9066C37.2555 46.4077 37.8335 45.9349 38.5207 45.9249C38.3108 46.0876 38.1896 46.1769 38.0585 46.3396C37.8332 46.6231 37.6592 46.8806 37.5021 47.185C37.3603 47.4531 37.2285 47.8516 37.2079 48.2036C37.5052 48.0601 37.8065 47.9253 38.1115 47.7992ZM38.0098 50.6395C38.1882 50.5658 38.3769 50.5138 38.5662 50.535C38.1249 50.8179 37.7208 51.2325 37.6106 51.7266C37.6 51.7786 37.6 51.8838 37.6472 51.9153C37.7729 51.8838 38.0934 51.8156 38.1776 51.7735C38.2297 51.6632 38.3608 51.49 38.4505 51.3743C38.7655 50.9548 39.2175 50.535 39.842 50.6922C39.4322 50.8761 39.1959 51.1329 39.0175 51.4585C38.986 51.5167 38.9655 51.627 39.0069 51.627C39.112 51.627 39.5113 51.6109 39.5688 51.6109C39.7527 51.4482 40.2885 51.138 40.6563 51.2537C40.4724 51.3397 40.3039 51.4551 40.1574 51.5954C40.1207 51.6369 40.0732 51.6896 40.0632 51.7526C40.3882 51.9152 40.6771 52.0991 40.9452 52.3306C41.087 52.4511 41.2918 52.6771 41.4174 53.0654C41.1024 52.7925 40.0732 52.3035 39.5116 52.2775C39.1439 52.2621 38.6878 52.3302 38.4563 52.3826C37.5688 52.5826 36.6553 52.9818 35.8729 53.428C35.8784 53.5804 35.8517 53.7635 35.6791 53.9056C35.5634 54.0005 35.3114 54.0474 35.2162 53.9111C35.1641 53.8375 34.8224 53.9166 34.7495 53.8221C34.7495 53.8221 34.6598 53.6858 34.6492 53.5225C34.6392 53.3492 34.7543 53.2445 34.8491 53.1547C34.8751 53.1232 34.87 52.8298 35.0905 52.7295C35.2268 52.6665 35.3634 52.6881 35.4791 52.7617C35.5267 52.735 35.5634 52.7089 35.5949 52.6881C35.6209 52.3463 35.6839 52.0313 35.8102 51.6903C35.9835 51.2068 36.5505 50.6189 37.0388 50.6398C36.7077 50.9969 36.4403 51.4903 36.3506 51.9005C36.3245 52.0317 36.3146 52.2892 36.3146 52.4093C36.4314 52.3378 36.5542 52.2765 36.6817 52.2262C36.7344 52.0998 36.8864 51.7848 36.9652 51.643C37.1638 51.2746 37.6106 50.8024 38.0098 50.6395ZM15.4661 40.2554C15.5291 42.0825 16.2749 44.2886 17.2986 45.816H32.5735L32.542 43.6846C30.5783 43.6846 27.5799 42.3872 26.3932 40.2661L15.4661 40.2554ZM25.9672 35.4899C25.9672 45.2042 40.1759 45.2042 40.1759 35.5895L40.1813 23.9006L25.9672 23.8955V35.4899ZM30.5448 30.8343C30.7129 30.6504 30.8601 30.409 30.8913 30.2042C30.9177 30.0361 30.4452 30.0467 30.2719 30.1518C30.1774 30.2094 30.088 30.3251 30.0144 30.4302C29.962 30.509 29.773 30.572 29.6785 30.483C29.5785 30.3885 29.7573 30.2255 29.7518 30.1258C29.7518 29.9577 29.4313 30.2097 29.2844 30.1412C29.1848 30.094 29.1793 29.942 29.2478 29.8526C29.2844 29.8053 29.3895 29.8262 29.4368 29.7742C29.484 29.7215 29.484 29.6427 29.4998 29.5746C29.521 29.4958 29.6049 29.4588 29.6573 29.4013C29.8569 29.2072 30.2349 28.8761 30.3085 28.8815C30.4814 28.8973 30.7287 28.9867 30.8807 28.9076C30.9122 28.8918 30.9701 28.8394 30.9173 28.8079L30.5078 28.5395C30.506 28.4972 30.5135 28.455 30.5298 28.4159C30.5462 28.3769 30.5709 28.3419 30.6023 28.3135C30.7913 28.1454 31.0854 28.2611 31.3323 28.2241C31.5056 28.1978 31.6682 28.1296 31.7942 28.0091C31.8257 28.1351 31.747 28.2611 31.747 28.3922C31.9045 28.5395 32.0675 28.6651 32.2198 28.8072C32.6714 29.2585 32.8656 29.9153 32.8971 30.4929C32.9235 30.7606 32.9235 31.0335 32.9235 31.48C32.9971 31.291 33.0443 31.0126 33.0601 30.7709C33.1282 30.0567 33.018 29.4215 32.6139 28.8805C32.4497 28.6524 32.2632 28.4413 32.0572 28.2501C32.0784 28.0403 32.2568 27.6831 32.4249 27.8146C32.5352 27.8985 32.3725 28.0245 32.4879 28.0981C32.6143 28.1765 32.7978 28.1663 32.8765 28.1502C33.0604 28.1033 33.2388 28.056 33.4066 28.0403C33.4853 28.0351 33.6165 27.9981 33.6432 28.0769C33.6641 28.1293 33.6066 28.1663 33.5483 28.1871C33.4802 28.2084 33.3751 28.1926 33.3176 28.2501C33.27 28.2974 33.2234 28.3501 33.2388 28.4183C33.2597 28.497 33.3439 28.5391 33.4282 28.5128C33.7448 28.4252 34.0708 28.3758 34.3992 28.3655C34.5731 28.3655 34.5355 28.4919 34.4519 28.5388C34.3944 28.5703 34.3047 28.5967 34.2472 28.6021C33.9377 28.6384 33.7062 28.6597 33.7428 28.8381C33.7688 28.9589 33.9637 28.8432 34.0051 28.9326C34.0527 29.0271 33.9216 29.0794 33.9322 29.1428C33.9637 29.3424 34.3468 29.3003 34.5252 29.2582C34.6564 29.2267 34.8662 29.1219 34.9292 29.2058C34.9875 29.2791 34.9399 29.3948 34.8662 29.416C34.6769 29.4684 34.352 29.5629 34.2622 29.6677C34.178 29.7677 34.2783 29.9724 34.378 29.983C34.604 30.0091 34.8508 30.0091 35.0292 30.0615C35.0967 30.0827 35.1549 30.1299 35.1549 30.2032C35.1549 30.282 35.0761 30.3083 35.0131 30.3292C34.8919 30.3659 34.6875 30.3659 34.5773 30.4134C34.5406 30.4292 34.467 30.4556 34.4776 30.4973C34.5091 30.5761 34.667 30.5549 34.7981 30.5706C34.8717 30.5761 35.0135 30.634 35.0135 30.7127C35.0135 30.7969 34.9399 30.823 34.8087 30.8127C34.604 30.7969 34.415 30.823 34.3259 30.8599C34.2992 30.8702 34.1421 30.8911 34.1469 30.9651C34.1575 31.0541 34.3259 30.9966 34.3677 31.0859C34.4043 31.1702 34.2893 31.2171 34.2787 31.3222C34.2787 31.3643 34.2996 31.3852 34.3417 31.4009C34.478 31.4585 34.6351 31.453 34.7724 31.4273C34.9142 31.4009 34.9662 31.5903 34.9296 31.6112C34.7464 31.7108 34.3365 31.606 34.242 31.6636C34.1109 31.7474 34.4622 31.9364 34.4519 31.9786C34.4413 32.0258 34.3992 32.0731 34.3677 32.0837C34.1893 32.1518 33.9585 32.0203 33.8274 32.0943C33.7171 32.1624 33.7637 32.3357 33.6956 32.4251C33.6113 32.5353 33.4227 32.4881 33.3384 32.5511C33.2289 32.6295 33.2234 32.8188 33.3439 32.9345C33.4388 33.0236 33.5278 33.0862 33.6483 33.1444C34.1948 33.4173 34.7618 33.6902 35.2922 33.6533C35.5651 33.6378 36.0119 33.6224 36.2584 33.6854C36.5789 33.7638 36.9046 34.0104 37.0723 34.1162C37.2086 34.1997 37.4295 34.2213 37.6027 34.1576C37.7284 34.1162 37.8126 33.9689 37.7866 33.8426C37.7078 33.4225 37.0141 33.2917 37.0042 32.8715C36.9936 32.3884 36.9515 32.1258 36.7943 31.8211C36.7361 31.7057 36.7262 31.4379 36.8624 31.4013C36.9727 31.3749 37.0097 31.5273 37.0984 31.4906C37.5031 31.3331 37.5192 30.6925 37.939 30.5713C38.1851 30.5032 39.0151 30.4929 38.9466 30.3878C38.7734 30.1406 38.8525 29.8574 38.9466 29.7259C39.0097 29.642 39.1826 29.5578 39.2517 29.642C39.3459 29.7523 39.1093 29.8834 39.1254 30.0464C39.1408 30.1988 39.362 30.4929 39.1935 30.6504C39.0939 30.7449 38.343 30.7767 38.1221 31.1126C37.9859 31.317 37.9705 31.48 38.1328 31.4643C38.2639 31.4485 38.3742 31.291 38.4954 31.2017C38.7107 31.0445 38.884 30.9811 39.0049 31.0965C39.0679 31.1541 38.9836 31.2647 38.8679 31.2962C38.7737 31.3277 38.543 31.5745 38.6056 31.6375C38.6998 31.7372 39.225 31.2808 39.3565 31.3749C39.4246 31.4273 39.099 31.7635 39.1565 31.8526C39.2247 31.9628 39.4455 31.7896 39.5137 31.8738C39.6133 31.9998 39.3404 32.2467 39.1826 32.3569C39.062 32.4353 39.1089 32.7298 38.9357 32.8192C38.7419 32.9137 38.6522 33.0811 38.6734 33.1078C38.6943 33.1492 38.7415 33.1814 38.8152 33.1338C39.0305 32.9976 39.298 32.8346 39.4082 32.8767C39.4712 32.903 39.3822 33.202 39.3031 33.3437C39.224 33.4855 39.6236 33.4067 39.5654 33.5276C39.5239 33.6173 39.4972 33.7536 39.5239 33.8792C39.5554 34.0426 39.0932 34.0785 39.0511 34.1888C39.0042 34.3151 39.0987 34.3466 39.1452 34.3521C39.424 34.3942 39.3873 34.651 39.2771 34.7613C39.1298 34.9085 38.8778 34.966 38.657 34.929C38.4676 34.8975 38.0431 34.8195 37.791 34.6301C37.7123 34.5726 37.5966 34.614 37.5812 34.6931C37.5651 34.7828 37.6596 34.9451 37.7017 35.0818C37.7599 35.2865 37.7277 35.544 37.6596 35.744C37.513 36.1586 37.1192 36.5051 37.009 37.004C36.9823 37.1351 37.0196 37.2981 37.072 37.4241C37.1877 37.6977 37.3555 37.9545 37.5442 38.186C37.5709 38.2596 37.6079 38.3431 37.5764 38.4113C37.5342 38.5164 37.2086 38.7424 37.1141 38.8321C36.8145 39.1101 36.557 39.4727 36.4995 39.8665C36.4783 40.0082 36.1739 40.15 35.9691 40.2075C35.8174 40.2496 35.6596 40.2917 35.5339 40.3914C35.5178 40.5064 35.586 40.6067 35.6014 40.7218C35.6281 40.9218 35.3761 41.0214 35.1813 41.0844C35.0922 41.1159 34.9974 41.1426 34.8923 41.1426C34.8556 41.1426 34.8454 41.0789 34.8508 41.0478C34.9084 40.7749 34.9604 40.5544 35.0655 40.3287C35.1076 40.2445 35.1758 40.1763 35.2446 40.1181L35.9948 39.4881L36.5834 38.6427C36.6354 38.564 36.657 38.4955 36.657 38.438C36.657 38.2747 36.5889 38.123 36.4731 38.0178C36.3259 37.886 36.1105 37.8655 35.9482 37.7812C35.7383 37.6761 35.4333 37.3827 35.3911 37.3611C35.2761 37.3036 35.208 37.5135 35.1919 37.634C35.1658 37.8179 35.2234 37.9911 35.2179 38.175C35.2179 38.2592 35.208 38.3061 35.1658 38.3589C34.6724 38.6424 34.0578 38.7475 33.6952 39.1988C33.6322 39.2775 33.5747 39.3621 33.4905 39.4196C33.2857 39.5614 32.9447 39.3988 32.792 39.6189C32.7238 39.7192 32.8026 39.8504 32.7766 39.9606C32.7608 40.0236 32.6399 40.1079 32.5454 40.1544C32.4191 40.2126 32.2832 40.2441 32.1462 40.2548C31.9938 40.1811 32.0883 39.9658 32.1407 39.8134C32.1931 39.6556 32.2671 39.4984 32.3876 39.3933C32.566 39.2354 32.7916 39.0361 32.9337 38.968C33.0543 38.9098 33.2378 38.9098 33.385 38.8523C33.5401 38.8048 33.6871 38.734 33.8209 38.6424C34.0356 38.5061 34.2355 38.338 34.3564 38.1069C34.4927 37.8439 34.4769 37.4929 34.3037 37.267C34.1458 37.0622 33.9626 36.8622 33.8575 36.6318C33.7993 36.5055 33.8414 36.3322 33.9311 36.2165C33.9257 36.2117 33.8623 36.1689 33.826 36.1798C33.0748 36.212 32.3136 36.1278 31.6151 35.8494C31.4313 35.7758 31.2423 35.5392 31.1108 35.5238C30.9903 35.5077 30.9166 35.6601 30.7958 35.6916C30.6016 35.7443 30.3493 35.7128 30.1236 35.6916C29.861 35.6655 29.3149 35.5498 28.9211 35.4242C28.8581 35.4341 28.79 35.445 28.7321 35.4817C28.6479 35.5392 28.6321 35.6655 28.627 35.7707C28.6164 35.9124 28.6585 36.0436 28.6424 36.1908C28.6373 36.2644 28.5952 36.3432 28.6164 36.4116C28.6376 36.4952 28.7215 36.5322 28.779 36.5849C28.8735 36.6739 28.8893 36.8578 28.8893 37.005C28.8893 37.1677 28.8318 37.3834 28.968 37.494C29.0523 37.5614 29.1677 37.4727 29.2728 37.494C29.3882 37.5149 29.4248 37.6566 29.4303 37.7669C29.4358 37.8925 29.3306 38.1599 29.2622 38.2291C29.2149 38.276 29.1362 38.239 29.0783 38.213C28.9263 38.1449 28.7842 38.0346 28.7003 37.8874C28.6636 37.8244 28.6636 37.7456 28.6267 37.6775C28.5688 37.5618 28.4637 37.4943 28.3589 37.4152C28.2329 37.3204 28.2069 37.1471 28.1856 36.9951C28.1699 36.8527 28.1963 36.7164 28.2069 36.5743C28.2341 36.2933 28.2163 36.0098 28.1541 35.7344C28.1069 35.5245 27.9912 35.3142 28.0439 35.1044C28.0703 35.0047 28.1384 34.9099 28.2332 34.8678C28.7411 34.844 29.2439 34.7559 29.7295 34.6055L29.4145 34.2953C29.3358 34.2953 29.2728 34.374 29.194 34.374C29.1098 34.374 28.9944 34.2535 28.9629 34.2114C28.7999 33.97 28.6951 33.6909 28.6215 33.4074C28.5534 33.2972 28.4695 33.1872 28.3431 33.1345C28.2555 33.0965 28.1606 33.0785 28.0651 33.0818C27.8025 33.1975 27.5611 33.4235 27.5399 33.7125C27.5347 33.7861 27.5765 33.8488 27.5662 33.9224C27.5508 34.048 27.456 34.1323 27.3666 34.222C27.2773 34.311 27.1934 34.4004 27.1567 34.5264C27.1249 34.6315 27.1619 34.7417 27.2088 34.8414C27.2403 34.9095 27.2773 34.9777 27.2509 35.0513C27.1879 35.2245 26.7732 35.4029 26.6524 35.4029C26.6103 35.4029 26.5736 35.3454 26.5579 35.2978C26.5106 35.14 26.5212 34.9722 26.5527 34.815C26.6636 34.6948 26.7461 34.5512 26.7941 34.3949C26.8575 34.185 26.8256 33.959 26.9256 33.7642C27.1879 33.318 27.86 32.4254 27.9912 32.2943C28.049 32.2367 28.1908 32.2049 28.2486 32.2419C28.5322 32.4257 28.7003 32.6514 28.9732 32.7931C29.1204 32.8668 29.3039 32.9773 29.4354 32.8722C29.5666 32.7671 29.5874 32.0635 29.6717 31.8847C29.8254 31.5749 30.2507 31.165 30.5448 30.8343ZM35.7716 26.4601L35.6558 26.9011H35.2357L35.7822 24.8323H36.2598L36.7854 26.8853H36.3646L36.2595 26.4601H35.7716ZM36.202 26.0845L36.0126 25.2548L35.8342 26.0845H36.202ZM34.668 25.427C34.6735 25.2904 34.6314 25.112 34.5214 25.0699C34.4057 25.0278 34.2848 25.0648 34.2325 25.1435C34.1427 25.2904 34.1428 25.49 34.1482 25.7944C34.1482 25.9783 34.1537 26.2355 34.1903 26.3567C34.2794 26.6347 34.516 26.6508 34.631 26.4772C34.6892 26.3933 34.6892 26.2303 34.6837 26.0834H34.4417V25.7787H35.0669V26.8918H34.768V26.7398C34.7625 26.7504 34.631 26.8501 34.568 26.8819C34.4629 26.9288 34.2636 26.9288 34.1013 26.8607C33.9644 26.8028 33.8332 26.6193 33.7757 26.3827C33.7175 26.1358 33.7435 25.8153 33.7435 25.5424C33.749 25.2535 33.9014 24.9333 34.1112 24.8124C34.2585 24.7285 34.5314 24.7285 34.7043 24.7915C34.9149 24.8652 35.0775 25.1696 35.046 25.427H34.668ZM27.6337 24.8635C27.8018 24.9686 27.8908 25.1631 27.86 25.3887H27.5289C27.5289 25.1788 27.4399 25.0788 27.2612 25.0737C27.1509 25.0686 27.0143 25.1946 27.0143 25.2891C27.0088 25.5671 27.2557 25.625 27.4238 25.6773C27.5498 25.7143 27.7022 25.7931 27.7758 25.9033C27.9121 26.1029 27.9282 26.3128 27.8179 26.5861C27.7655 26.7172 27.5659 26.8747 27.3978 26.9117C27.2088 26.9538 26.9776 26.9329 26.7886 26.7908C26.6363 26.6754 26.5678 26.4495 26.5993 26.2447H26.9722C26.9722 26.3447 26.9879 26.418 27.03 26.481C27.0615 26.5231 27.1194 26.5912 27.219 26.5964C27.2586 26.5992 27.2983 26.5934 27.3354 26.5792C27.3725 26.5651 27.406 26.5429 27.4335 26.5144C27.461 26.4858 27.482 26.4515 27.4948 26.414C27.5076 26.3764 27.512 26.3365 27.5077 26.2971C27.4868 25.9766 26.9513 25.9557 26.7674 25.751C26.5466 25.499 26.615 25.0946 26.7934 24.9316C27.0407 24.7008 27.3769 24.7008 27.6337 24.8635ZM38.2365 26.2331C38.242 26.3118 38.2471 26.5902 38.2574 26.7686C38.2629 26.821 38.3156 26.8894 38.3156 26.8946H37.9218C37.8691 26.8946 37.8636 26.8001 37.8588 26.7217C37.8482 26.5118 37.8688 26.0129 37.6644 26.0129H37.4123V26.8898H37.0186V24.8419H37.7274C38.0845 24.8419 38.2629 25.047 38.2629 25.325C38.2629 25.5089 38.2574 25.7243 38.0475 25.8133C38.1574 25.9181 38.2204 26.0756 38.2365 26.2331ZM37.6969 25.1374H37.4028V25.689H37.6181C37.9749 25.689 37.9698 25.1374 37.6969 25.1374ZM28.8311 26.8983H28.4373V25.1706H27.9857V24.8241H29.2878V25.1706H28.8311V26.8983ZM31.3662 26.8983V25.1706H30.9146V24.8241H32.2219V25.1706H31.7596V26.8983H31.3662ZM32.3992 24.8244H33.7065V25.1761H33.2443V26.8983H32.8509V25.1761H32.3992V24.8244ZM39.2302 25.1764V26.9038H38.8364V25.1764H38.3851V24.8248H39.6873V25.1764H39.2302ZM30.3178 26.3033V24.8278H30.7009V26.2666C30.7009 27.1278 29.4512 27.1278 29.4512 26.293V24.8278H29.8343V26.3087C29.8347 26.6292 30.3178 26.6292 30.3178 26.3033ZM31.2019 27.8526C31.3176 27.753 31.4799 27.6167 31.6689 27.4958C31.837 27.3856 31.648 27.6379 31.6374 27.7427C31.6059 28.0262 31.3905 28.0577 31.1543 28.0053C31.1128 27.9947 31.1286 27.9156 31.2019 27.8526ZM41.0767 34.473L51.106 34.4675L51.5522 28.9223L41.0767 28.9278V34.473ZM32.6184 51.7427L22.2741 51.7218C24.4059 53.6386 29.3419 57.2249 32.5869 58.6794L32.6184 51.7427ZM25.13 28.7761C24.9304 28.9545 24.5315 29.3958 24.4524 29.5951C24.626 29.6581 24.9671 29.8105 25.13 29.9207V28.7761Z" fill="white"/>
</svg>
