<svg width="776" height="407" viewBox="0 0 776 407" fill="none" xmlns="http://www.w3.org/2000/svg">
<g clip-path="url(#clip0_1304_21603)">
<path fill-rule="evenodd" clip-rule="evenodd" d="M776 203.5C776 315.874 602.264 406.974 388.017 406.974C173.712 406.974 0 315.874 0 203.5C0 91.126 173.712 0.0263672 388.017 0.0263672C602.264 0.0263672 776 91.126 776 203.5Z" fill="#FFFFB3"/>
<path fill-rule="evenodd" clip-rule="evenodd" d="M759.946 203.352C759.946 306.555 593.355 390.219 387.876 390.219C182.388 390.219 15.8008 306.555 15.8008 203.352C15.8008 100.152 182.388 16.4927 387.876 16.4927C593.355 16.4917 759.946 100.152 759.946 203.352ZM387.876 31.2041C190.446 31.2041 30.3857 108.279 30.3857 203.351C30.3857 298.424 190.446 375.499 387.876 375.499C585.3 375.499 745.354 298.424 745.354 203.351C745.354 108.279 585.3 31.2041 387.876 31.2041Z" fill="#134833"/>
<path fill-rule="evenodd" clip-rule="evenodd" d="M736.101 203.352C736.101 293.314 580.193 366.246 387.875 366.246C195.551 366.246 39.6445 293.314 39.6445 203.352C39.6445 113.395 195.551 40.4683 387.875 40.4683C580.194 40.4683 736.101 113.394 736.101 203.352ZM611.05 127.092H551.326L544.051 147.891H582.709L538.614 163.16L535.7 171.596L603.552 149.342L611.05 127.092ZM230.264 163.598H205.935C205.935 163.598 228.483 103.491 230.291 98.9464C233.508 90.895 235.428 91.449 235.428 91.449H201.827C205.986 93.4398 202.301 101.286 202.301 101.286C202.301 101.286 175.387 176.246 173.512 179.991C171.638 183.744 170.234 184.215 170.234 184.215H228.425L236.564 162.014C235.863 164.128 230.264 163.598 230.264 163.598ZM332.338 184.119H359.746C359.746 184.119 357.869 181.338 359.041 178.295C360.665 174.069 375.205 134.49 375.205 134.49L381.527 184.119H406.355L438.901 95.838C438.901 95.838 440.234 91.6974 442.049 91.6974L415.669 91.6198C415.669 91.6198 416.424 94.667 415.484 97.0109C414.552 99.3548 399.555 139.411 399.555 139.411L393.7 91.6207H365.367C365.367 91.6207 366.833 93.9607 365.895 96.5365C365.13 98.6262 335.856 178.994 335.856 178.994C335.856 178.994 333.983 184.119 332.338 184.119ZM457.65 91.646C457.65 91.646 459.991 95.3937 456.939 104.057C453.894 112.727 430.005 177.143 430.005 177.143C430.005 177.143 428.126 183.203 425.556 184.379L463.031 184.337C463.031 184.337 508.461 186.016 522.518 138.256C522.518 138.256 540.318 91.1735 488.79 91.646H457.65ZM461.625 163.007C461.625 163.007 461.745 162.97 465.954 162.97C472.33 162.97 484.137 161.564 492.071 142.242C505.11 110.482 486.918 111.556 486.918 111.556H479.89L461.625 163.007ZM128.352 258.913H188.074L195.342 238.109H156.69L200.781 222.843L203.703 214.411L135.848 236.665L128.352 258.913ZM233.013 297.282C232.069 297.282 232.069 294.259 232.069 294.259L243.054 265.106C243.054 265.106 256.737 291.961 257.677 293.836C258.615 295.713 258.141 297.273 258.141 297.273H290.877C287.756 297.273 284.535 291.34 284.535 291.34L268.238 262.092C291.033 262.092 298.324 239.494 298.324 239.494C309.565 203.576 271.731 204.511 271.731 204.511H233.013C235.82 207.636 233.632 214.195 233.632 214.195C233.632 214.195 209.587 282.951 207.717 288.265C205.841 293.573 202.408 297.282 202.408 297.282H233.013ZM256.215 225.839L249.87 244.495H255.803C255.803 244.495 267.362 245.513 271.626 236.322C271.626 236.322 276.615 225.791 262.67 225.791C259.617 225.791 256.215 225.839 256.215 225.839ZM571.748 297.623C569.406 297.67 571.037 291.939 571.037 291.939L580.838 265.446C580.838 265.446 594.049 292.305 594.976 294.185C595.916 296.057 595.451 297.618 595.451 297.618H629.35C626.224 297.618 622.787 291.684 622.787 291.684L606.483 262.427C629.29 262.427 636.15 240.645 636.15 240.645C648.125 203.034 609.989 204.856 609.989 204.856H571.578C574.394 207.98 572.207 214.54 572.207 214.54C572.207 214.54 547.159 283.559 545.279 288.863C543.407 294.185 539.811 297.57 539.811 297.57L571.748 297.623ZM594.069 244.832C594.069 244.832 605.539 245.699 609.049 236.711C613.192 226.124 602.853 226.405 602.853 226.405H594.375L588.131 244.832H594.069ZM338.808 299.577C372.601 299.577 392.711 266.425 392.711 242.641C392.711 217.692 382.457 202.123 359.041 202.123C329.166 202.123 309.678 224.795 304.649 252.982C300.026 278.903 314.662 299.577 338.808 299.577ZM340.936 277.655C349.366 279.211 358.633 273.145 363.472 253.759C370.811 224.424 357.285 224.183 354.816 223.881C347.337 222.967 337.353 231.582 333.296 249.545C331.439 257.748 329.469 275.529 340.936 277.655ZM400.732 204.856C400.732 204.856 403.056 206.104 403.056 212.034V292.304C403.056 292.304 402.738 296.699 401.077 297.618H426.186C426.186 297.618 426.186 295.738 428.678 292.616C431.178 289.493 483.327 219.539 483.327 219.539C483.327 219.539 495.22 204.856 498.337 204.856H462.402C462.402 204.856 465.217 206.733 463.031 210.167C460.845 213.604 428.902 261.388 428.902 261.388L429.302 213.19C429.302 213.19 429.246 205.462 432.347 204.813L400.732 204.856ZM552.533 226.741L560.652 204.835L499.764 204.842C499.764 204.842 501.946 206.769 499.143 214.574C496.327 222.39 471.658 288.898 471.658 288.898C471.658 288.898 467.286 297.64 466.045 297.64H528.805L536.302 275.468C536.302 275.468 535.367 276.715 529.433 276.715H502.885L508.512 261.724H529.114C529.114 261.724 533.492 261.414 534.427 262.664L542.856 238.966C542.856 238.966 542.24 241.11 536.609 241.11H516.624L522.566 224.562H547.855C547.855 224.563 551.291 224.089 552.533 226.741ZM235.098 184.203H265.137C265.137 184.203 265.043 181.896 265.826 180.397C267.254 177.69 270.981 171.16 270.981 171.16H301.214L301.272 179.306C301.272 179.306 301.427 182.114 299.202 184.28H329.183C329.183 184.28 326.956 183.03 326.546 179.342L322.785 97.8278C322.785 97.8278 322.623 92.618 325.102 91.5208H295.361C295.361 91.5208 297.443 94.0956 293.462 99.9515C289.484 105.808 238.676 181.154 238.676 181.154C238.676 181.154 237.666 183.091 235.098 184.203ZM300.638 123.069L283.944 150.235H300.877L300.638 123.069Z" fill="#134833"/>
</g>
<defs>
<clipPath id="clip0_1304_21603">
<rect width="776" height="407" fill="white"/>
</clipPath>
</defs>
</svg>
