<svg width="119" height="64" viewBox="0 0 119 64" fill="none" xmlns="http://www.w3.org/2000/svg">
<path fill-rule="evenodd" clip-rule="evenodd" d="M113.75 32.4996C113.75 48.2089 89.458 60.9445 59.5024 60.9445C29.5382 60.9445 5.25 48.2089 5.25 32.4996C5.25 16.7902 29.5382 4.05469 59.5024 4.05469C89.458 4.05469 113.75 16.7902 113.75 32.4996Z" fill="#FFFAC3"/>
<path fill-rule="evenodd" clip-rule="evenodd" d="M111.506 32.4788C111.506 46.9066 88.2129 58.6012 59.4827 58.6012C30.7514 58.6012 7.45898 46.9066 7.45898 32.4788C7.45898 18.0517 30.7514 6.35645 59.4827 6.35645C88.2129 6.35645 111.506 18.0517 111.506 32.4788ZM59.4827 8.41287C31.8781 8.41287 9.49874 19.1877 9.49874 32.4788C9.49874 45.7694 31.8781 56.5442 59.4827 56.5442C87.0862 56.5442 109.464 45.7694 109.464 32.4788C109.465 19.1877 87.0862 8.41287 59.4827 8.41287Z" fill="#2B6352"/>
<path fill-rule="evenodd" clip-rule="evenodd" d="M108.172 32.4797C108.172 45.0566 86.3721 55.2517 59.4824 55.2517C32.5914 55.2517 10.793 45.0566 10.793 32.4797C10.793 19.9041 32.592 9.70898 59.4824 9.70898C86.3721 9.70837 108.172 19.9041 108.172 32.4797ZM90.6869 21.8185H82.3371L81.3196 24.7263H86.7253L80.5603 26.8611L80.1528 28.0403L89.6386 24.9294L90.6869 21.8185ZM37.4451 26.9222H34.044C34.044 26.9222 37.1963 18.5193 37.4494 17.8841C37.8994 16.758 38.1674 16.8358 38.1674 16.8358H33.4693C34.0508 17.1136 33.5353 18.2113 33.5353 18.2113C33.5353 18.2113 29.7725 28.6904 29.5101 29.2139C29.2477 29.738 29.0514 29.8041 29.0514 29.8041H37.1882L38.326 26.7006C38.2279 26.9957 37.4451 26.9222 37.4451 26.9222ZM51.7172 29.7911H55.5498C55.5498 29.7911 55.2874 29.4022 55.451 28.9768C55.6776 28.386 57.7105 22.8532 57.7105 22.8532L58.5946 29.7911H62.066L66.6166 17.4495C66.6166 17.4495 66.8024 16.8704 67.0568 16.8704L63.368 16.8593C63.368 16.8593 63.4742 17.2852 63.3415 17.6131C63.2125 17.9403 61.1159 23.5403 61.1159 23.5403L60.2973 16.8593H56.3351C56.3351 16.8593 56.54 17.1865 56.4091 17.547L52.2086 29.0744C52.2086 29.0744 51.9469 29.7911 51.7172 29.7911ZM69.2379 16.863C69.2379 16.863 69.5645 17.3871 69.1391 18.5984C68.7125 19.8109 65.3732 28.8157 65.3732 28.8157C65.3732 28.8157 65.1102 29.6627 64.7497 29.8275L69.9898 29.822C69.9898 29.822 76.3419 30.0566 78.3075 23.3798C78.3075 23.3798 80.7961 16.7975 73.5915 16.8636L69.2379 16.863ZM69.7941 26.8395C69.7941 26.8395 69.8108 26.8346 70.3992 26.8346C71.29 26.8346 72.9408 26.6383 74.0515 23.9367C75.8745 19.4972 73.3304 19.6473 73.3304 19.6473H72.3475L69.7941 26.8395ZM23.1957 40.2467H31.5456L32.5617 37.3383H27.1574L33.3223 35.2041L33.7304 34.0262L24.2434 37.1371L23.1957 40.2467ZM37.8297 45.6097C37.6976 45.6097 37.6976 45.1875 37.6976 45.1875L39.2329 41.1117C39.2329 41.1117 41.1467 44.8664 41.2776 45.1282C41.4085 45.3912 41.3425 45.6091 41.3425 45.6091H45.9196C45.4825 45.6091 45.0324 44.7794 45.0324 44.7794L42.7544 40.6894C45.9418 40.6894 46.9604 37.5316 46.9604 37.5316C48.5322 32.51 43.2427 32.6409 43.2427 32.6409H37.8291C38.2217 33.0773 37.9155 33.9947 37.9155 33.9947C37.9155 33.9947 34.554 43.6058 34.2922 44.3485C34.0298 45.0912 33.5495 45.6085 33.5495 45.6085L37.8297 45.6097ZM41.0739 35.6239L40.1868 38.2311H41.0165C41.0165 38.2311 42.6327 38.3743 43.2285 37.0889C43.2285 37.0889 43.9261 35.6165 41.9765 35.6165C41.5493 35.6165 41.0739 35.6239 41.0739 35.6239ZM85.1905 45.6579C84.8639 45.6653 85.0917 44.8634 85.0917 44.8634L86.4629 41.1592C86.4629 41.1592 88.3088 44.9152 88.4391 45.1782C88.5706 45.44 88.5051 45.6579 88.5051 45.6579H93.2452C92.8075 45.6579 92.3278 44.8269 92.3278 44.8269L90.0491 40.7382C93.2372 40.7382 94.1972 37.6921 94.1972 37.6921C95.8708 32.4347 90.5387 32.689 90.5387 32.689H85.1683C85.5615 33.1255 85.2566 34.0429 85.2566 34.0429C85.2566 34.0429 81.7537 43.6916 81.4919 44.4331C81.3271 44.8889 81.066 45.304 80.7264 45.6499L85.1905 45.6579ZM88.3125 38.2786C88.3125 38.2786 89.9164 38.399 90.4072 37.1426C90.9869 35.6635 89.5417 35.7017 89.5417 35.7017H88.3563L87.4821 38.2786H88.3125ZM52.6216 45.932C57.3463 45.932 60.1584 41.2969 60.1584 37.9724C60.1584 34.4843 58.7242 32.3075 55.451 32.3075C51.2739 32.3075 48.5489 35.4776 47.8457 39.4182C47.1994 43.0415 49.2459 45.932 52.6216 45.932ZM52.9192 42.8668C54.0977 43.0854 55.3936 42.2365 56.0702 39.5269C57.0963 35.4258 55.2053 35.3924 54.8602 35.3498C53.8144 35.222 52.4185 36.4265 51.8512 38.9373C51.5913 40.0838 51.3159 42.5692 52.9192 42.8668ZM61.2801 32.6902C61.2801 32.6902 61.6042 32.865 61.6042 33.6934V44.9158C61.6042 44.9158 61.5598 45.5295 61.3283 45.6585H64.8386C64.8386 45.6585 64.8386 45.3955 65.1868 44.959C65.5362 44.5226 72.8279 34.7423 72.8279 34.7423C72.8279 34.7423 74.4904 32.6902 74.9269 32.6902H69.9022C69.9022 32.6902 70.2967 32.952 69.9905 33.4317C69.6855 33.9126 65.2183 40.5931 65.2183 40.5931L65.2751 33.8552C65.2751 33.8552 65.2664 32.7748 65.7004 32.6847L61.2801 32.6902ZM82.5044 35.7493L83.6403 32.6865L75.1263 32.6878C75.1263 32.6878 75.4325 32.9582 75.0392 34.0491C74.646 35.1418 71.1962 44.4392 71.1962 44.4392C71.1962 44.4392 70.5862 45.661 70.4121 45.661H79.1867L80.2343 42.5618C80.2343 42.5618 80.1041 42.7353 79.2743 42.7353H75.5628L76.3487 40.6394H79.2293C79.2293 40.6394 79.8405 40.5962 79.972 40.7709L81.1499 37.4587C81.1499 37.4587 81.0641 37.7575 80.2769 37.7575H77.4834L78.3131 35.4449H81.85C81.8506 35.4449 82.3315 35.3788 82.5044 35.7493ZM38.1211 29.8022H42.3216C42.3216 29.8022 42.3086 29.48 42.4179 29.2707C42.6173 28.8922 43.1384 27.9792 43.1384 27.9792H47.366L47.3741 29.1176C47.3741 29.1176 47.3957 29.5102 47.0845 29.8127H51.2764C51.2764 29.8127 50.9653 29.638 50.9078 29.1225L50.3812 17.7279C50.3812 17.7279 50.3584 16.9994 50.7053 16.8457H46.5468C46.5468 16.8457 46.8382 17.2056 46.2813 18.0248C45.7251 18.8435 38.6211 29.3769 38.6211 29.3769C38.6211 29.3769 38.4804 29.6467 38.1211 29.8022ZM47.2845 21.2567L44.9503 25.0541H47.3173L47.2845 21.2567Z" fill="#2B6352"/>
</svg>
