<svg width="8" height="12" viewBox="0 0 8 12" fill="none" xmlns="http://www.w3.org/2000/svg">
<path d="M0.889032 6.63415L6.20968 11.4688C6.33274 11.5807 6.49261 11.638 6.65978 11.63C6.82694 11.622 6.98062 11.5497 7.09243 11.4266L7.44849 11.0348C7.68015 10.7796 7.66121 10.3837 7.40625 10.1521L2.93837 6.09222L7.00274 1.61939C7.11456 1.49623 7.17191 1.33645 7.16392 1.16938C7.15591 1.00212 7.08357 0.848544 6.9605 0.736537L6.56868 0.380675C6.44553 0.268765 6.28575 0.211512 6.11858 0.21951C5.95142 0.227507 5.79774 0.299758 5.68593 0.422911L0.84665 5.74833C0.734571 5.87187 0.677446 6.03239 0.685824 6.19972C0.693491 6.36773 0.765676 6.52197 0.889032 6.63415Z" fill="white"/>
</svg>
