<svg width="8" height="12" viewBox="0 0 8 12" fill="none" xmlns="http://www.w3.org/2000/svg"><path d="M7.18519 6.63415L1.86454 11.4688C1.74148 11.5807 1.5816 11.638 1.41444 11.63C1.24728 11.622 1.0936 11.5497 0.981784 11.4266L0.625733 11.0348C0.394064 10.7796 0.413007 10.3837 0.667968 10.1521L5.13585 6.09222L1.07147 1.61939C0.959657 1.49623 0.90231 1.33645 0.910304 1.16938C0.918306 1.00212 0.990646 0.848544 1.11371 0.736537L1.50553 0.380675C1.62869 0.268765 1.78847 0.211512 1.95563 0.21951C2.1228 0.227507 2.27647 0.299758 2.38829 0.422911L7.22757 5.74833C7.33965 5.87187 7.39677 6.03239 7.3884 6.19972C7.38073 6.36773 7.30854 6.52197 7.18519 6.63415Z" fill="white"/></svg>
