<svg width="26" height="26" viewBox="0 0 26 26" fill="none" xmlns="http://www.w3.org/2000/svg">
<mask id="mask0_1_3506" style="mask-type:luminance" maskUnits="userSpaceOnUse" x="1" y="1" width="24" height="24">
<path d="M1.36816 1.36843H24.6313V24.6316H1.36816V1.36843Z" fill="white"/>
</mask>
<g mask="url(#mask0_1_3506)">
<path d="M23.9498 15.5559H21.7598" stroke="white" stroke-miterlimit="10" stroke-linecap="round" stroke-linejoin="round"/>
<path d="M22.4826 10.0825L20.5859 11.1775" stroke="white" stroke-miterlimit="10" stroke-linecap="round" stroke-linejoin="round"/>
<path d="M22.4826 21.0291L20.5859 19.934" stroke="white" stroke-miterlimit="10" stroke-linecap="round" stroke-linejoin="round"/>
</g>
<path d="M18.4749 6.07319L17.3799 7.96973" stroke="white" stroke-miterlimit="10" stroke-linecap="round" stroke-linejoin="round"/>
<path d="M13 4.6032V6.79321" stroke="white" stroke-miterlimit="10" stroke-linecap="round" stroke-linejoin="round"/>
<path d="M15.1896 21.3958H10.8096" stroke="white" stroke-miterlimit="10" stroke-linecap="round" stroke-linejoin="round"/>
<mask id="mask1_1_3506" style="mask-type:luminance" maskUnits="userSpaceOnUse" x="1" y="1" width="24" height="24">
<path d="M1.36816 1.36843H24.6313V24.6316H1.36816V1.36843Z" fill="white"/>
</mask>
<g mask="url(#mask1_1_3506)">
<path d="M2.0498 15.5559H4.23981" stroke="white" stroke-miterlimit="10" stroke-linecap="round" stroke-linejoin="round"/>
<path d="M3.5166 10.0825L5.41323 11.1775" stroke="white" stroke-miterlimit="10" stroke-linecap="round" stroke-linejoin="round"/>
<path d="M3.5166 21.0291L5.41323 19.934" stroke="white" stroke-miterlimit="10" stroke-linecap="round" stroke-linejoin="round"/>
</g>
<path d="M7.52441 6.07319L8.61942 7.96973" stroke="white" stroke-miterlimit="10" stroke-linecap="round" stroke-linejoin="round"/>
<mask id="mask2_1_3506" style="mask-type:luminance" maskUnits="userSpaceOnUse" x="1" y="1" width="24" height="24">
<path d="M1.36816 1.36843H24.6313V24.6316H1.36816V1.36843Z" fill="white"/>
</mask>
<g mask="url(#mask2_1_3506)">
<path d="M11.9674 14.5255C12.5372 13.9554 13.4624 13.9554 14.0321 14.5255C14.602 15.0953 14.602 16.0202 14.0321 16.59C13.4624 17.1598 12.5372 17.1598 11.9674 16.59C11.3976 16.0202 11.3976 15.0953 11.9674 14.5255Z" stroke="white" stroke-miterlimit="10" stroke-linecap="round" stroke-linejoin="round"/>
<path d="M8.35449 10.91L11.9678 14.5234" stroke="white" stroke-miterlimit="10" stroke-linecap="round" stroke-linejoin="round"/>
<path d="M14.0332 16.5873L15.1909 17.7451" stroke="white" stroke-miterlimit="10" stroke-linecap="round" stroke-linejoin="round"/>
<path d="M3.51675 21.0291C2.58386 19.4179 2.0498 17.548 2.0498 15.554C2.0498 9.51033 6.95633 4.60399 12.9998 4.60399C19.0434 4.60399 23.9499 9.51033 23.9499 15.554C23.9499 17.548 23.4158 19.4179 22.4829 21.0291" stroke="white" stroke-miterlimit="10" stroke-linecap="round" stroke-linejoin="round"/>
</g>
</svg>
