<svg width="25" height="25" viewBox="0 0 25 25" fill="none" xmlns="http://www.w3.org/2000/svg">
<g clip-path="url(#clip0_345_136)">
<path d="M5.91741 23.9347C5.65629 23.9347 5.39699 23.8533 5.1757 23.6933C4.76347 23.3945 4.5709 22.881 4.68309 22.3855L6.21636 15.6314L1.0165 11.0713C0.634276 10.7376 0.48826 10.2092 0.645187 9.72569C0.802114 9.2431 1.22907 8.90142 1.73458 8.85469L8.61463 8.23007L11.3348 1.86445C11.5353 1.39676 11.9921 1.09473 12.4996 1.09473C13.0071 1.09473 13.4639 1.39676 13.6645 1.86336L16.3846 8.23007L23.2635 8.85469C23.7701 8.90033 24.1971 9.2431 24.354 9.72569C24.511 10.2083 24.3658 10.7376 23.9836 11.0713L18.7838 15.6305L20.317 22.3844C20.4294 22.881 20.2367 23.3945 19.8246 23.6924C19.4135 23.9902 18.8652 24.0131 18.4323 23.7529L12.4996 20.2076L6.56694 23.7549C6.36637 23.874 6.14289 23.9347 5.91741 23.9347ZM12.4996 18.6803C12.7251 18.6803 12.9484 18.7409 13.1491 18.86L18.7481 22.2087L17.3011 15.834C17.1978 15.3803 17.3518 14.9066 17.7024 14.5997L22.6122 10.2938L16.1164 9.70387C15.6487 9.66114 15.2465 9.36711 15.0637 8.93615L12.4996 2.92893L9.93241 8.93706C9.75166 9.36511 9.34944 9.65914 8.88284 9.70187L2.38611 10.2918L7.29575 14.5977C7.64743 14.9055 7.80126 15.3783 7.69707 15.8331L6.25109 22.2076L11.8501 18.86C12.0506 18.7409 12.2741 18.6803 12.4996 18.6803ZM8.56208 8.35318C8.56208 8.35318 8.56208 8.35427 8.56098 8.35518L8.56208 8.35318ZM16.4351 8.35027L16.4362 8.35227C16.4362 8.35118 16.4362 8.35118 16.4351 8.35027Z" fill="white"/>
</g>
<defs>
<clipPath id="clip0_345_136">
<rect width="23.8333" height="23.8333" fill="white" transform="translate(0.583008 0.583252)"/>
</clipPath>
</defs>
</svg>
