<svg width="23" height="23" viewBox="0 0 23 23" fill="none" xmlns="http://www.w3.org/2000/svg">
<g clip-path="url(#clip0_345_148)">
<path d="M18.9795 4.44727V3.36914C18.9795 1.5114 17.4681 0 15.6104 0H7.34473C5.48698 0 3.97559 1.5114 3.97559 3.36914V4.44727H18.9795Z" fill="white"/>
<path d="M5.32324 14.3301V19.8105V20.9785V21.6523C5.32324 22.3966 5.92659 23 6.6709 23H16.2842C17.0285 23 17.6318 22.3966 17.6318 21.6523V20.9785V19.8105V14.3301H5.32324ZM13.2744 20.0801H9.68066C9.30853 20.0801 9.00684 19.7784 9.00684 19.4062C9.00684 19.0341 9.30853 18.7324 9.68066 18.7324H13.2744C13.6465 18.7324 13.9482 19.0341 13.9482 19.4062C13.9482 19.7784 13.6465 20.0801 13.2744 20.0801ZM13.2744 17.2051H9.68066C9.30853 17.2051 9.00684 16.9034 9.00684 16.5312C9.00684 16.1591 9.30853 15.8574 9.68066 15.8574H13.2744C13.6465 15.8574 13.9482 16.1591 13.9482 16.5312C13.9482 16.9034 13.6465 17.2051 13.2744 17.2051Z" fill="white"/>
<path d="M19.6084 5.79492H3.3916C1.53386 5.79492 0.0224609 7.30632 0.0224609 9.16406V14.5547C0.0224609 16.4124 1.53386 17.9238 3.3916 17.9238H3.97559V14.3301H3.57129C3.19916 14.3301 2.89746 14.0284 2.89746 13.6562C2.89746 13.2841 3.19916 12.9824 3.57129 12.9824H4.64941H18.3057H19.3838C19.7559 12.9824 20.0576 13.2841 20.0576 13.6562C20.0576 14.0284 19.7559 14.3301 19.3838 14.3301H18.9795V17.9238H19.6084C21.4661 17.9238 22.9775 16.4124 22.9775 14.5547V9.16406C22.9775 7.30632 21.4661 5.79492 19.6084 5.79492ZM5.72754 10.0176H3.57129C3.19916 10.0176 2.89746 9.71588 2.89746 9.34375C2.89746 8.97162 3.19916 8.66992 3.57129 8.66992H5.72754C6.09967 8.66992 6.40137 8.97162 6.40137 9.34375C6.40137 9.71588 6.09967 10.0176 5.72754 10.0176Z" fill="white"/>
</g>
<defs>
<clipPath id="clip0_345_148">
<rect width="23" height="23" fill="white"/>
</clipPath>
</defs>
</svg>
