<svg width="23" height="23" viewBox="0 0 23 23" fill="none" xmlns="http://www.w3.org/2000/svg">
<g clip-path="url(#clip0_345_164)">
<path d="M18.2383 14.9141C16.9068 14.9141 15.7334 15.5691 14.9964 16.5652L8.62455 13.3024C8.73034 12.9419 8.80469 12.5682 8.80469 12.1738C8.80469 11.639 8.69503 11.1305 8.5056 10.6628L15.174 6.65005C15.9161 7.521 17.0069 8.08594 18.2383 8.08594C20.4677 8.08594 22.2812 6.2724 22.2812 4.04297C22.2812 1.81354 20.4677 0 18.2383 0C16.0089 0 14.1953 1.81354 14.1953 4.04297C14.1953 4.55674 14.3011 5.0441 14.4766 5.49655L7.78833 9.5211C7.04685 8.67603 5.97178 8.13086 4.76172 8.13086C2.53229 8.13086 0.71875 9.9444 0.71875 12.1738C0.71875 14.4033 2.53229 16.2168 4.76172 16.2168C6.11521 16.2168 7.30838 15.5426 8.04259 14.5185L14.3935 17.7706C14.2765 18.1482 14.1953 18.5415 14.1953 18.957C14.1953 21.1865 16.0089 23 18.2383 23C20.4677 23 22.2812 21.1865 22.2812 18.957C22.2812 16.7276 20.4677 14.9141 18.2383 14.9141Z" fill="white"/>
</g>
<defs>
<clipPath id="clip0_345_164">
<rect width="23" height="23" fill="white"/>
</clipPath>
</defs>
</svg>
