<svg width="30" height="30" viewBox="0 0 30 30" fill="none" xmlns="http://www.w3.org/2000/svg">
<path d="M14.9999 2.3999C12.5079 2.3999 10.0718 3.13888 7.99972 4.52339C5.92766 5.90789 4.31269 7.87574 3.35903 10.1781C2.40536 12.4804 2.15584 15.0139 2.64201 17.458C3.12819 19.9022 4.32822 22.1473 6.09036 23.9094C7.8525 25.6716 10.0976 26.8716 12.5418 27.3578C14.9859 27.844 17.5194 27.5944 19.8217 26.6408C22.1241 25.6871 24.0919 24.0721 25.4764 22.0001C26.8609 19.928 27.5999 17.4919 27.5999 14.9999C27.5967 11.6591 26.2682 8.45614 23.9059 6.09387C21.5437 3.7316 18.3407 2.40308 14.9999 2.3999ZM14.9999 26.3999C12.7452 26.3999 10.5411 25.7313 8.66641 24.4787C6.79169 23.226 5.33052 21.4456 4.46768 19.3625C3.60484 17.2794 3.37908 14.9873 3.81896 12.7759C4.25883 10.5645 5.34457 8.5332 6.93889 6.93888C8.53321 5.34457 10.5645 4.25882 12.7759 3.81895C14.9873 3.37908 17.2794 3.60484 19.3625 4.46768C21.4456 5.33051 23.226 6.79168 24.4787 8.6664C25.7313 10.5411 26.3999 12.7452 26.3999 14.9999C26.3967 18.0224 25.1946 20.9202 23.0574 23.0574C20.9202 25.1946 18.0224 26.3967 14.9999 26.3999ZM23.8439 13.3199C23.78 12.9093 23.6713 12.5069 23.5199 12.1199C23.0823 10.8025 22.342 9.60607 21.3584 8.62659C20.3747 7.6471 19.1751 6.91187 17.8559 6.4799C17.4671 6.33419 17.0653 6.2257 16.6559 6.1559C15.5456 5.94781 14.4062 5.94781 13.2959 6.1559C12.8866 6.2257 12.4848 6.33419 12.0959 6.4799C10.783 6.92066 9.59132 7.66241 8.61619 8.64587C7.64106 9.62934 6.90948 10.8273 6.47991 12.1439C6.33419 12.5328 6.22571 12.9346 6.15591 13.3439C5.94781 14.4542 5.94781 15.5936 6.15591 16.7039C6.22571 17.1132 6.33419 17.5151 6.47991 17.9039C6.91427 19.2257 7.65315 20.427 8.63699 21.4108C9.62083 22.3947 10.8221 23.1335 12.1439 23.5679C12.5328 23.7136 12.9346 23.8221 13.3439 23.8919C14.4542 24.1 15.5936 24.1 16.7039 23.8919C17.1133 23.8221 17.5151 23.7136 17.9039 23.5679C19.2257 23.1335 20.427 22.3947 21.4108 21.4108C22.3947 20.427 23.1335 19.2257 23.5679 17.9039C23.7136 17.5151 23.8221 17.1132 23.8919 16.7039C23.9845 16.1409 24.0207 15.5701 23.9999 14.9999C23.9907 14.4367 23.9386 13.8751 23.8439 13.3199ZM17.6879 7.6799C18.7469 8.07485 19.7086 8.69287 20.5078 9.49206C21.3069 10.2912 21.925 11.2529 22.3199 12.3119L17.2679 13.0319L16.9679 12.7319L17.6879 7.6799ZM14.9999 7.1999C15.5074 7.19905 16.0137 7.24728 16.5119 7.3439L15.8399 12.1439C15.2913 11.9839 14.7085 11.9839 14.1599 12.1439L13.4879 7.3439C13.9861 7.24728 14.4924 7.19905 14.9999 7.1999ZM7.19991 14.9999C7.19906 14.4924 7.24729 13.9861 7.34391 13.4879L12.1439 14.1599C11.9839 14.7085 11.9839 15.2913 12.1439 15.8399L7.34391 16.5119C7.24729 16.0137 7.19906 15.5074 7.19991 14.9999ZM12.3119 22.3199C11.2529 21.925 10.2913 21.3069 9.49206 20.5077C8.69287 19.7086 8.07485 18.7469 7.67991 17.6879L12.7319 16.9679L13.0319 17.2679L12.3119 22.3199ZM12.7319 13.0319L7.67991 12.3119C8.07485 11.2529 8.69287 10.2912 9.49206 9.49206C10.2913 8.69287 11.2529 8.07485 12.3119 7.6799L13.0319 12.7319L12.7319 13.0319ZM14.9999 22.7999C14.4924 22.8007 13.9861 22.7525 13.4879 22.6559L14.1599 17.8559C14.7085 18.0159 15.2913 18.0159 15.8399 17.8559L16.5119 22.6559C16.0137 22.7525 15.5074 22.8007 14.9999 22.7999ZM16.6199 15.7679C16.4473 16.1449 16.1449 16.4473 15.7679 16.6199C15.5292 16.7383 15.2664 16.7999 14.9999 16.7999C14.7335 16.7999 14.4706 16.7383 14.2319 16.6199C13.8549 16.4473 13.5525 16.1449 13.3799 15.7679C13.2615 15.5292 13.1999 15.2664 13.1999 14.9999C13.1999 14.7334 13.2615 14.4706 13.3799 14.2319C13.5525 13.8549 13.8549 13.5525 14.2319 13.3799C14.4706 13.2615 14.7335 13.1999 14.9999 13.1999C15.2664 13.1999 15.5292 13.2615 15.7679 13.3799C16.1449 13.5525 16.4473 13.8549 16.6199 14.2319C16.7383 14.4706 16.8 14.7334 16.8 14.9999C16.8 15.2664 16.7383 15.5292 16.6199 15.7679ZM17.6879 22.3199L16.9679 17.2679L17.2679 16.9679L22.3199 17.6879C21.925 18.7469 21.3069 19.7086 20.5078 20.5077C19.7086 21.3069 18.7469 21.925 17.6879 22.3199ZM22.6559 16.5119L17.8559 15.8399C18.0159 15.2913 18.0159 14.7085 17.8559 14.1599L22.6559 13.4879C22.8478 14.4868 22.8478 15.513 22.6559 16.5119Z" fill="white"/>
</svg>
