<svg width="20" height="20" viewBox="0 0 20 20" fill="none" xmlns="http://www.w3.org/2000/svg">
<g clip-path="url(#clip0_668_28895)">
<path d="M3.02198 20H16.9775C18.4405 20 19.6294 18.8111 19.6294 17.3481V4.13331C19.6294 2.67035 18.4405 1.48145 16.9775 1.48145H15.9257V0.740727C15.9257 0.333315 15.5923 0 15.1849 0C14.7775 0 14.4442 0.333315 14.4442 0.740727V1.48145H5.55533V0.740727C5.55533 0.333315 5.22195 0 4.81454 0C4.40713 0 4.07381 0.333315 4.07381 0.740727V1.48145H3.02198C1.55902 1.48145 0.370117 2.67035 0.370117 4.13331V17.3481C0.370117 18.8111 1.55902 20 3.02198 20ZM1.85163 4.13331C1.85163 3.48889 2.37755 2.96297 3.02198 2.96297H4.07381V3.7037C4.07381 4.11111 4.40713 4.44442 4.81454 4.44442C5.22195 4.44442 5.55527 4.11111 5.55527 3.7037V2.96297H14.4442V3.7037C14.4442 4.11111 14.7775 4.44442 15.1849 4.44442C15.5923 4.44442 15.9256 4.11111 15.9256 3.7037V2.96297H16.9775C17.6219 2.96297 18.1478 3.48889 18.1478 4.13331V17.3481C18.1478 17.9926 17.6219 18.5185 16.9775 18.5185H3.02198C2.37755 18.5185 1.85163 17.9926 1.85163 17.3481V4.13331Z" fill="white"/>
<path d="M5.74036 8.51832C6.25173 8.51832 6.66627 8.10378 6.66627 7.59241C6.66627 7.08105 6.25173 6.6665 5.74036 6.6665C5.229 6.6665 4.81445 7.08105 4.81445 7.59241C4.81445 8.10378 5.229 8.51832 5.74036 8.51832Z" fill="white"/>
<path d="M9.81458 8.51832C10.3259 8.51832 10.7405 8.10378 10.7405 7.59241C10.7405 7.08105 10.3259 6.6665 9.81458 6.6665C9.30322 6.6665 8.88867 7.08105 8.88867 7.59241C8.88867 8.10378 9.30322 8.51832 9.81458 8.51832Z" fill="white"/>
<path d="M13.8888 8.51832C14.4002 8.51832 14.8147 8.10378 14.8147 7.59241C14.8147 7.08105 14.4002 6.6665 13.8888 6.6665C13.3774 6.6665 12.9629 7.08105 12.9629 7.59241C12.9629 8.10378 13.3774 8.51832 13.8888 8.51832Z" fill="white"/>
<path d="M5.74036 12.2224C6.25173 12.2224 6.66627 11.8079 6.66627 11.2965C6.66627 10.7851 6.25173 10.3706 5.74036 10.3706C5.229 10.3706 4.81445 10.7851 4.81445 11.2965C4.81445 11.8079 5.229 12.2224 5.74036 12.2224Z" fill="white"/>
<path d="M9.81458 12.2224C10.3259 12.2224 10.7405 11.8079 10.7405 11.2965C10.7405 10.7851 10.3259 10.3706 9.81458 10.3706C9.30322 10.3706 8.88867 10.7851 8.88867 11.2965C8.88867 11.8079 9.30322 12.2224 9.81458 12.2224Z" fill="white"/>
<path d="M13.8888 12.2224C14.4002 12.2224 14.8147 11.8079 14.8147 11.2965C14.8147 10.7851 14.4002 10.3706 13.8888 10.3706C13.3774 10.3706 12.9629 10.7851 12.9629 11.2965C12.9629 11.8079 13.3774 12.2224 13.8888 12.2224Z" fill="white"/>
<path d="M5.74036 15.926C6.25173 15.926 6.66627 15.5115 6.66627 15.0001C6.66627 14.4888 6.25173 14.0742 5.74036 14.0742C5.229 14.0742 4.81445 14.4888 4.81445 15.0001C4.81445 15.5115 5.229 15.926 5.74036 15.926Z" fill="white"/>
<path d="M9.81458 15.926C10.3259 15.926 10.7405 15.5115 10.7405 15.0001C10.7405 14.4888 10.3259 14.0742 9.81458 14.0742C9.30322 14.0742 8.88867 14.4888 8.88867 15.0001C8.88867 15.5115 9.30322 15.926 9.81458 15.926Z" fill="white"/>
<path d="M13.8888 15.926C14.4002 15.926 14.8147 15.5115 14.8147 15.0001C14.8147 14.4888 14.4002 14.0742 13.8888 14.0742C13.3774 14.0742 12.9629 14.4888 12.9629 15.0001C12.9629 15.5115 13.3774 15.926 13.8888 15.926Z" fill="white"/>
</g>
<defs>
<clipPath id="clip0_668_28895">
<rect width="20" height="20" fill="white"/>
</clipPath>
</defs>
</svg>
