<svg width="25" height="25" viewBox="0 0 25 25" fill="none" xmlns="http://www.w3.org/2000/svg">
<g clip-path="url(#clip0_668_44205)">
<path d="M13.1149 2.97046H5.38353C4.96405 2.97046 4.62451 3.30999 4.62451 3.72948V9.08611C4.62451 9.50509 4.96405 9.84513 5.38353 9.84513H13.1149C13.5339 9.84513 13.8739 9.50509 13.8739 9.08611V3.72948C13.8739 3.30999 13.5339 2.97046 13.1149 2.97046ZM12.3559 8.3271H6.14255V4.48849H12.3559V8.3271Z" fill="white"/>
<path d="M23.8817 4.34216L23.8815 4.34206L20.6413 1.27543C20.3369 0.987308 19.8565 1.00051 19.5683 1.30498C19.2802 1.60945 19.2934 2.08981 19.5979 2.37798L21.2792 3.96933C20.2262 4.35947 19.4733 5.37453 19.4733 6.56158C19.4733 7.79675 20.2885 8.84572 21.4088 9.1979V18.5885C21.4088 18.84 21.2039 19.0444 20.9529 19.0444C20.7014 19.0444 20.497 18.84 20.497 18.5885V13.8168C20.497 12.5619 19.4754 11.5402 18.2205 11.5402H16.46V2.53267C16.46 1.27675 15.4389 0.255615 14.183 0.255615H4.31476C3.05935 0.255615 2.03771 1.27675 2.03771 2.53267V19.4223H1.77509C0.795956 19.4223 0 20.2188 0 21.1979V23.9855C0 24.405 0.339534 24.7445 0.759017 24.7445H17.7392C18.1582 24.7445 18.4983 24.405 18.4983 23.9855V21.1979C18.4983 20.2188 17.7018 19.4223 16.7227 19.4223H16.46V13.0582H18.2205C18.6384 13.0582 18.979 13.3988 18.979 13.8167V18.5884C18.979 19.6768 19.8645 20.5624 20.9529 20.5624C22.0414 20.5624 22.9269 19.6768 22.9269 18.5884V9.23782C24.1175 8.93017 25 7.8468 25 6.56153C25 5.65375 24.5598 4.84666 23.8817 4.34216ZM14.942 19.4223H3.55574V2.53267C3.55574 2.1142 3.89629 1.77365 4.31476 1.77365H14.183C14.602 1.77365 14.942 2.1142 14.942 2.53267C14.942 2.82312 14.942 19.1663 14.942 19.4223ZM16.9802 21.1979V23.2265H1.51803V21.1979C1.51803 21.0557 1.6334 20.9404 1.77509 20.9404C2.36272 20.9404 16.0161 20.9404 16.7227 20.9404C16.8649 20.9404 16.9802 21.0557 16.9802 21.1979ZM22.2367 7.80682C21.5515 7.80682 20.9914 7.24905 20.9914 6.56153C20.9914 5.87487 21.55 5.31624 22.2367 5.31624C22.9233 5.31624 23.482 5.87487 23.482 6.56153C23.482 7.24854 22.9229 7.80682 22.2367 7.80682Z" fill="white"/>
</g>
<defs>
<clipPath id="clip0_668_44205">
<rect width="25" height="25" fill="white"/>
</clipPath>
</defs>
</svg>
