<svg width="22" height="22" viewBox="0 0 22 22" fill="none" xmlns="http://www.w3.org/2000/svg">
<g clip-path="url(#clip0_668_28865)">
<path d="M11.5409 2.61426H4.73727C4.36813 2.61426 4.06934 2.91305 4.06934 3.28219V7.99603C4.06934 8.36473 4.36813 8.66397 4.73727 8.66397H11.5409C11.9096 8.66397 12.2088 8.36473 12.2088 7.99603V3.28219C12.2088 2.91305 11.9096 2.61426 11.5409 2.61426ZM10.8729 7.3281H5.40521V3.95013H10.8729V7.3281Z" fill="white"/>
<path d="M21.0159 3.82126L21.0157 3.82117L18.1644 1.12254C17.8964 0.868987 17.4737 0.880609 17.2201 1.14854C16.9666 1.41647 16.9782 1.83919 17.2461 2.09278L18.7257 3.49317C17.7991 3.83649 17.1365 4.72974 17.1365 5.77435C17.1365 6.8613 17.8539 7.78439 18.8398 8.09431V16.358C18.8398 16.5793 18.6594 16.7592 18.4386 16.7592C18.2173 16.7592 18.0374 16.5793 18.0374 16.358V12.1589C18.0374 11.0546 17.1383 10.1556 16.034 10.1556H14.4848V2.2289C14.4848 1.12369 13.5862 0.225098 12.481 0.225098H3.79699C2.69222 0.225098 1.79318 1.12369 1.79318 2.2289V17.0918H1.56208C0.700441 17.0918 0 17.7927 0 18.6543V21.1074C0 21.4766 0.29879 21.7754 0.667935 21.7754H15.6105C15.9792 21.7754 16.2785 21.4766 16.2785 21.1074V18.6543C16.2785 17.7927 15.5776 17.0918 14.7159 17.0918H14.4848V11.4914H16.034C16.4018 11.4914 16.7015 11.7911 16.7015 12.1589V16.358C16.7015 17.3158 17.4808 18.095 18.4386 18.095C19.3964 18.095 20.1756 17.3158 20.1756 16.358V8.12944C21.2234 7.85871 22 6.90534 22 5.7743C22 4.97545 21.6126 4.26521 21.0159 3.82126ZM13.149 17.0918H3.12905V2.2289C3.12905 1.86065 3.42873 1.56097 3.79699 1.56097H12.481C12.8497 1.56097 13.149 1.86065 13.149 2.2289C13.149 2.4845 13.149 16.8665 13.149 17.0918ZM14.9426 18.6543V20.4395H1.33587V18.6543C1.33587 18.5292 1.4374 18.4277 1.56208 18.4277C2.07919 18.4277 14.0942 18.4277 14.7159 18.4277C14.8411 18.4277 14.9426 18.5292 14.9426 18.6543ZM19.5683 6.87016C18.9653 6.87016 18.4724 6.37932 18.4724 5.7743C18.4724 5.17004 18.964 4.67844 19.5683 4.67844C20.1725 4.67844 20.6641 5.17004 20.6641 5.7743C20.6641 6.37887 20.1721 6.87016 19.5683 6.87016Z" fill="white"/>
</g>
<defs>
<clipPath id="clip0_668_28865">
<rect width="22" height="22" fill="white"/>
</clipPath>
</defs>
</svg>
