<svg width="29" height="29" viewBox="0 0 29 29" fill="none" xmlns="http://www.w3.org/2000/svg">
<g clip-path="url(#clip0_668_28959)">
<mask id="mask0_668_28959" style="mask-type:luminance" maskUnits="userSpaceOnUse" x="0" y="0" width="29" height="29">
<path d="M0 0.000654221H28.3333V28.334H0V0.000654221Z" fill="white"/>
</mask>
<g mask="url(#mask0_668_28959)">
<path d="M22.1904 16.7256L26.3755 20.9108C27.8786 22.4139 27.8787 24.8735 26.3756 26.3765L26.3755 26.3766C24.8725 27.8797 22.4129 27.8797 20.9098 26.3766L16.7246 22.1914" stroke="white" stroke-miterlimit="22.926" stroke-linecap="round" stroke-linejoin="round"/>
<path d="M11.9255 23.0215C18.0366 23.0215 23.0209 18.0373 23.0209 11.9261C23.0209 5.81496 18.0366 0.83073 11.9255 0.83073C5.81431 0.83073 0.830078 5.81496 0.830078 11.9261C0.830078 18.0373 5.81431 23.0215 11.9255 23.0215Z" stroke="white" stroke-miterlimit="22.926" stroke-linecap="round" stroke-linejoin="round"/>
<path d="M7.04199 9.85156L8.09403 7.24135C8.33996 6.63114 8.95682 6.3099 9.61474 6.3099H14.1981C14.8558 6.3099 15.4726 6.63097 15.7186 7.24091L16.7047 9.68555" stroke="white" stroke-miterlimit="22.926" stroke-linecap="round" stroke-linejoin="round"/>
<path d="M7.81086 9.79522H16.0022C17.4192 9.79522 18.5748 10.9626 18.5748 12.3936V14.8184H5.23828V12.3936C5.23828 10.9625 6.39397 9.79522 7.81086 9.79522Z" stroke="white" stroke-miterlimit="22.926" stroke-linecap="round" stroke-linejoin="round"/>
<path d="M5.23633 12.3086H6.64907" stroke="white" stroke-miterlimit="22.926" stroke-linecap="round" stroke-linejoin="round"/>
<path d="M5.8252 9.35352H6.85073" stroke="white" stroke-miterlimit="22.926" stroke-linecap="round" stroke-linejoin="round"/>
<path d="M16.9629 9.35352H17.9885" stroke="white" stroke-miterlimit="22.926" stroke-linecap="round" stroke-linejoin="round"/>
<path d="M5.23828 14.002V15.9941" stroke="white" stroke-miterlimit="22.926" stroke-linecap="round" stroke-linejoin="round"/>
<path d="M18.5742 14.002V15.9941" stroke="white" stroke-miterlimit="22.926" stroke-linecap="round" stroke-linejoin="round"/>
<path d="M17.1348 12.3086H18.5474" stroke="white" stroke-miterlimit="22.926" stroke-linecap="round" stroke-linejoin="round"/>
<path d="M9.77637 12.3086H14.0374" stroke="white" stroke-miterlimit="22.926" stroke-linecap="round" stroke-linejoin="round"/>
</g>
</g>
<defs>
<clipPath id="clip0_668_28959">
<rect width="28.3333" height="28.3333" fill="white" transform="matrix(1 0 0 -1 0 28.334)"/>
</clipPath>
</defs>
</svg>
