<svg width="28" height="23" viewBox="0 0 28 23" fill="none" xmlns="http://www.w3.org/2000/svg">
<g clip-path="url(#clip0_668_28913)">
<path d="M14.0478 21.9521C15.8243 21.9521 17.2645 20.5449 17.2645 18.8091C17.2645 17.0732 15.8243 15.666 14.0478 15.666C12.2712 15.666 10.8311 17.0732 10.8311 18.8091C10.8311 20.5449 12.2712 21.9521 14.0478 21.9521Z" stroke="white" stroke-width="1.3" stroke-miterlimit="10"/>
<path d="M16.8885 16.8075C16.8885 16.8075 17.7066 14.2631 18.5996 12.6643C19.5976 10.8761 20.5342 9.75643 20.5342 9.75643L18.8973 8.73877C18.8973 8.73877 17.93 10.9192 17.1862 12.0101C16.4423 13.1003 14.5078 15.499 14.5078 15.499L15.9213 16.2258L16.8885 16.8075Z" stroke="white" stroke-miterlimit="10"/>
<path d="M11.0275 16.9789C11.0275 16.9789 10.2094 14.4344 9.31636 12.8357C8.31837 11.0474 7.38184 9.92782 7.38184 9.92782L9.01869 8.91016C9.01869 8.91016 9.98595 11.0906 10.7298 12.1814C11.4737 13.2717 13.4082 15.6704 13.4082 15.6704L11.9947 16.3972L11.0275 16.9789Z" stroke="white" stroke-miterlimit="10"/>
<path d="M12.3751 22.8144L8.7832 17.7461" stroke="white" stroke-miterlimit="10"/>
<path d="M12.4261 8.48893L8.4572 1.60859C8.4572 1.60859 8.26516 1.04566 7.11289 1.60859C5.96063 2.17153 1.67165 4.73602 1.67165 4.73602C1.67165 4.73602 0.96749 5.17386 1.47961 5.86189C1.99172 6.54993 5.25647 12.492 5.25647 12.492C5.25647 12.492 4.80837 11.6164 5.44851 10.9909C6.08866 10.3654 10.9538 7.73835 10.9538 7.73835C10.9538 7.73835 11.6579 7.23796 12.4261 8.48893Z" stroke="white" stroke-miterlimit="10"/>
<path d="M7.20878 8.55131C7.93355 8.55131 8.52108 7.97723 8.52108 7.26906C8.52108 6.5609 7.93355 5.98682 7.20878 5.98682C6.48402 5.98682 5.89648 6.5609 5.89648 7.26906C5.89648 7.97723 6.48402 8.55131 7.20878 8.55131Z" stroke="white" stroke-miterlimit="10"/>
<path d="M9.11436 2.74805L2.04395 6.77305" stroke="white" stroke-miterlimit="10"/>
<path d="M15.5684 8.42595L19.5373 1.5456C19.5373 1.5456 19.7293 0.982667 20.8816 1.5456C22.0338 2.10854 26.3228 4.67303 26.3228 4.67303C26.3228 4.67303 27.027 5.11087 26.5149 5.79891C26.0027 6.48694 22.738 12.4291 22.738 12.4291C22.738 12.4291 23.1861 11.5534 22.546 10.9279C21.9058 10.3024 17.0407 7.67536 17.0407 7.67536C17.0407 7.67536 16.3365 7.17498 15.5684 8.42595Z" stroke="white" stroke-miterlimit="10"/>
<path d="M20.7859 8.48832C21.5107 8.48832 22.0982 7.91424 22.0982 7.20607C22.0982 6.49791 21.5107 5.92383 20.7859 5.92383C20.0612 5.92383 19.4736 6.49791 19.4736 7.20607C19.4736 7.91424 20.0612 8.48832 20.7859 8.48832Z" stroke="white" stroke-miterlimit="10"/>
<path d="M18.8799 2.68506L25.9503 6.71006" stroke="white" stroke-miterlimit="10"/>
<path d="M15.6982 22.8061L19.2901 17.7378" stroke="white" stroke-miterlimit="10"/>
</g>
<defs>
<clipPath id="clip0_668_28913">
<rect width="28" height="23" fill="white"/>
</clipPath>
</defs>
</svg>
