<svg width="27" height="21" viewBox="0 0 27 21" fill="none" xmlns="http://www.w3.org/2000/svg">
<g clip-path="url(#clip0_668_28883)">
<path d="M26.9785 2.86135C26.9179 2.66938 26.7398 2.53886 26.5384 2.53886H22.905C21.5089 1.33525 19.5124 0.379207 17.6712 0.257632C14.5877 0.053947 11.9043 0.443666 9 1.49976L6.30394 2.70511C6.06439 2.7922 5.94078 3.05705 6.02793 3.29659C6.09614 3.48413 6.27315 3.60058 6.46174 3.60053C6.51409 3.60053 6.5674 3.59153 6.61946 3.57261L9.18761 2.63874C11.9708 1.62668 14.8805 1.21243 17.8354 1.40758C19.0849 1.4901 20.2984 1.88575 21.3558 2.54306C21.1291 2.57236 20.9538 2.76566 20.9538 3.00032C20.9538 3.25524 21.1605 3.46188 21.4154 3.46188H25.0778L24.3458 3.97592C23.6385 4.47246 22.7314 4.5926 21.9193 4.2973C21.6799 4.2102 21.4149 4.33376 21.3278 4.57331C21.2407 4.81286 21.3643 5.0777 21.6038 5.1648C21.9999 5.3088 22.4125 5.37956 22.8232 5.37956C23.0469 5.37956 23.2699 5.35842 23.4893 5.31683L22.9221 16.7866C22.9214 16.7996 22.9199 16.8126 22.919 16.8256C22.1762 16.7148 21.4232 17.0415 21.0005 17.6749C20.859 17.887 20.9162 18.1736 21.1282 18.3151C21.207 18.3676 21.296 18.3928 21.384 18.3928C21.5331 18.3928 21.6794 18.3207 21.7684 18.1874C21.966 17.8912 22.3002 17.7219 22.6464 17.7273C22.3931 18.1698 21.9902 18.5044 21.5073 18.6709L21.1005 18.8112C21.0367 18.8332 20.9714 18.8487 20.9056 18.8586L20.4092 16.873C20.3474 16.6257 20.0967 16.4754 19.8495 16.5372C19.6022 16.599 19.4518 16.8496 19.5137 17.0969L19.8757 18.545L19.5008 18.3326C19.2216 18.1743 19.0817 17.8576 19.1528 17.5446C19.2711 17.0241 19.2392 16.4831 19.0605 15.9801L18.0395 13.1059C18.1582 13.1263 18.2791 13.1415 18.4023 13.1499L20.4841 13.2916C20.4947 13.2924 20.5053 13.2927 20.5159 13.2927C20.7565 13.2927 20.9593 13.1061 20.9759 12.8625C20.9932 12.6082 20.801 12.388 20.5467 12.3707L18.465 12.229C17.1268 12.1379 16.4799 11.1419 16.3325 10.3167C16.1852 9.49144 16.4473 8.33307 17.6712 7.78441L19.5273 6.95241C19.7599 6.84814 19.8639 6.57504 19.7596 6.34241C19.6554 6.10984 19.3824 6.00575 19.1496 6.11007L17.2936 6.94207C16.6948 7.21051 15.7691 7.2683 15.4353 7.78441C14.6093 8.0121 11.7413 9.36668 9.47802 11.3785C9.28749 11.5479 9.27032 11.8396 9.43967 12.0301C9.53087 12.1327 9.65757 12.1851 9.78482 12.185C9.89389 12.185 10.0034 12.1466 10.0913 12.0685C11.7776 10.5695 14.1732 9.64804 15.4353 9.23601C15.3552 9.6407 15.3497 10.0645 15.4238 10.479C15.4741 10.7611 15.5609 11.0344 15.6787 11.2914C15.5076 11.7965 14.9619 13.3369 14.1457 14.9698C12.8664 17.5295 11.514 19.1556 10.2349 19.6724C9.99852 19.7679 9.88433 20.0369 9.97983 20.2732C10.0524 20.4529 10.2253 20.562 10.4079 20.562C10.4655 20.562 10.524 20.5512 10.5807 20.5283C13.5 19.6724 16 14.9998 16.3275 12.2308C16.3418 12.2451 16.3557 12.2597 16.3702 12.2737C16.5362 12.4334 16.7176 12.5724 16.9121 12.6903L18.1907 16.2892C18.3107 16.627 18.3321 16.9905 18.2527 17.3401C18.0906 18.0535 18.4023 18.545 19 18.9998L19.5 19.4998C19.8075 19.6741 20.2761 19.8616 20.6223 19.8616C20.8445 19.8616 21.1696 19.9356 21.384 19.8616L21.9193 19.7944C22.6305 19.5491 23.2883 18.9742 23.6508 18.3151C23.8709 17.915 23.9774 17.2817 24 16.8256L24.5991 5.1648C24.7532 5.0873 24.733 4.8322 24.8763 4.73158L26.8037 3.37824C26.9684 3.26244 27.0392 3.05331 26.9785 2.86135Z" fill="white"/>
</g>
<path d="M3 6H7" stroke="white" stroke-linecap="round"/>
<path d="M3 12H7" stroke="white" stroke-linecap="round"/>
<path d="M1 9H5" stroke="white" stroke-linecap="round"/>
<defs>
<clipPath id="clip0_668_28883">
<rect width="21" height="21" fill="white" transform="translate(6)"/>
</clipPath>
</defs>
</svg>
