<svg width="16" height="15" viewBox="0 0 16 15" fill="none" xmlns="http://www.w3.org/2000/svg">
<g clip-path="url(#clip0_930_17991)">
<path d="M8.27877 12.949C8.27751 12.949 8.27613 12.949 8.27476 12.949C7.82215 12.9459 3.82083 12.9094 2.68717 12.6028C1.8949 12.3899 1.26948 11.7651 1.05593 10.9727C0.759298 9.8591 0.778181 7.71504 0.780241 7.54384C0.778295 7.37344 0.759184 5.21165 1.05501 4.08886C1.05536 4.08783 1.05559 4.08669 1.05593 4.08566C1.26707 3.30231 1.90657 2.65823 2.68523 2.44469C2.68717 2.44412 2.68923 2.44366 2.69118 2.44309C3.81202 2.14851 7.82123 2.11246 8.27476 2.10938H8.28289C8.73665 2.11246 12.7486 2.14897 13.8718 2.45602C14.6621 2.66842 15.287 3.29235 15.5011 4.08371C15.8089 5.2073 15.7804 7.37378 15.7773 7.55666C15.7795 7.73679 15.7974 9.86162 15.5025 10.9809C15.5023 10.982 15.5019 10.983 15.5017 10.9841C15.2881 11.7764 14.6628 12.4012 13.8696 12.6144C13.8685 12.6147 13.8674 12.615 13.8664 12.6153C12.7456 12.9098 8.7363 12.9458 8.28289 12.949C8.28151 12.949 8.28014 12.949 8.27877 12.949ZM2.18775 4.38939C1.92728 5.38045 1.95189 7.51466 1.95212 7.53617V7.55162C1.94434 8.14351 1.97169 9.85761 2.18787 10.6695C2.29269 11.0582 2.60111 11.3662 2.99227 11.4713C3.82872 11.6976 7.08766 11.7688 8.27877 11.7771C9.47296 11.7688 12.7367 11.6995 13.567 11.4823C13.9569 11.3768 14.2643 11.0699 14.3698 10.6807C14.5862 9.85693 14.6133 8.15118 14.6054 7.56307C14.6054 7.55689 14.6054 7.55071 14.6055 7.54453C14.6163 6.94554 14.5951 5.21142 14.3708 4.39305C14.3706 4.39225 14.3704 4.39145 14.3702 4.39064C14.265 4.00017 13.9564 3.69221 13.5653 3.58704C12.7369 3.36056 9.47273 3.28961 8.27877 3.28125C7.08537 3.28961 3.82483 3.35873 2.99204 3.57571C2.60832 3.68214 2.29292 4.00109 2.18775 4.38939ZM6.7852 9.90213V5.15614L10.8868 7.52919L6.7852 9.90213Z" fill="black"/>
</g>
<defs>
<clipPath id="clip0_930_17991">
<rect width="15" height="15" fill="white" transform="translate(0.779297)"/>
</clipPath>
</defs>
</svg>
