<svg width="8" height="26" viewBox="0 0 8 26" fill="none" xmlns="http://www.w3.org/2000/svg">
<path d="M5.20312 12.6108V6.68555" stroke="#1D1D1D" stroke-linecap="round"/>
<path d="M7.26499 3.12188C7.26499 1.52046 5.87709 1.04004 5.18314 1C4.38243 1 3.14133 1.48043 2.94115 3.12188C2.74097 4.76334 4.14222 6.56494 5.18314 6.56494C6.22407 6.56494 7.26499 5.12366 7.26499 3.12188Z" stroke="#1D1D1D" stroke-linecap="round"/>
<path d="M1 19.3752V23.6608C1 24.213 1.44771 24.6608 2 24.6608H4.20373C4.75602 24.6608 5.20373 24.213 5.20373 23.6608V23.4988C5.20373 22.9466 5.65145 22.4988 6.20373 22.4988H6.24555C6.79783 22.4988 7.24555 22.0511 7.24555 21.4988V10.2871C7.24555 9.73482 6.79783 9.28711 6.24555 9.28711H4.08185C3.52956 9.28711 3.08185 9.73482 3.08185 10.2871V17.3752C3.08185 17.9275 2.63413 18.3752 2.08185 18.3752H2C1.44772 18.3752 1 18.8229 1 19.3752Z" stroke="#1D1D1D" stroke-linecap="round"/>
</svg>
