<svg width="27" height="21" viewBox="0 0 27 21" fill="none" xmlns="http://www.w3.org/2000/svg">
<g clip-path="url(#clip0_935_25417)">
<mask id="path-1-inside-1_935_25417" fill="white">
<path d="M26.9785 2.86183C26.9179 2.66987 26.7398 2.53934 26.5384 2.53934H22.905C21.5089 1.33574 19.5124 0.379695 17.6712 0.258121C14.5877 0.0544353 11.9043 0.444154 9 1.50024L6.30394 2.7056C6.06439 2.79269 5.94078 3.05753 6.02793 3.29708C6.09614 3.48461 6.27315 3.60106 6.46174 3.60102C6.51409 3.60102 6.5674 3.59202 6.61946 3.57309L9.18761 2.63922C11.9708 1.62717 14.8805 1.21292 17.8354 1.40807C19.0849 1.49059 20.2984 1.88624 21.3558 2.54354C21.1291 2.57285 20.9538 2.76615 20.9538 3.00081C20.9538 3.25573 21.1605 3.46237 21.4154 3.46237H25.0778L24.3458 3.9764C23.6385 4.47295 22.7314 4.59309 21.9193 4.29779C21.6799 4.21069 21.4149 4.33425 21.3278 4.5738C21.2407 4.81335 21.3643 5.07819 21.6038 5.16528C21.9999 5.30929 22.4125 5.38005 22.8232 5.38005C23.0469 5.38005 23.2699 5.35891 23.4893 5.31732L22.9221 16.7871C22.9214 16.8001 22.9199 16.8131 22.919 16.8261C22.1762 16.7153 21.4232 17.0419 21.0005 17.6754C20.859 17.8875 20.9162 18.1741 21.1282 18.3156C21.207 18.3681 21.296 18.3932 21.384 18.3932C21.5331 18.3932 21.6794 18.3212 21.7684 18.1879C21.966 17.8917 22.3002 17.7224 22.6464 17.7278C22.3931 18.1703 21.9902 18.5049 21.5073 18.6714L21.1005 18.8117C21.0367 18.8337 20.9714 18.8492 20.9056 18.8591L20.4092 16.8735C20.3474 16.6262 20.0967 16.4758 19.8495 16.5377C19.6022 16.5995 19.4518 16.8501 19.5137 17.0974L19.8757 18.5455L19.5008 18.3331C19.2216 18.1748 19.0817 17.8581 19.1528 17.5451C19.2711 17.0245 19.2392 16.4836 19.0605 15.9806L18.0395 13.1064C18.1582 13.1268 18.2791 13.142 18.4023 13.1504L20.4841 13.2921C20.4947 13.2929 20.5053 13.2932 20.5159 13.2932C20.7565 13.2932 20.9593 13.1066 20.9759 12.863C20.9932 12.6087 20.801 12.3885 20.5467 12.3712L18.465 12.2295C17.1268 12.1384 16.4799 11.1424 16.3325 10.3171C16.1852 9.49193 16.4473 8.33355 17.6712 7.7849L19.5273 6.9529C19.7599 6.84863 19.8639 6.57553 19.7596 6.3429C19.6554 6.11032 19.3824 6.00624 19.1496 6.11055L17.2936 6.94256C16.6948 7.211 15.7691 7.26879 15.4353 7.7849C14.6093 8.01259 11.7413 9.36717 9.47802 11.379C9.28749 11.5483 9.27032 11.8401 9.43967 12.0306C9.53087 12.1332 9.65757 12.1856 9.78482 12.1855C9.89389 12.1855 10.0034 12.1471 10.0913 12.0689C11.7776 10.57 14.1732 9.64853 15.4353 9.2365C15.3552 9.64119 15.3497 10.065 15.4238 10.4795C15.4741 10.7616 15.5609 11.0349 15.6787 11.2919C15.5076 11.7969 14.9619 13.3373 14.1457 14.9703C12.8664 17.53 11.514 19.1561 10.2349 19.6729C9.99852 19.7684 9.88433 20.0374 9.97983 20.2737C10.0524 20.4534 10.2253 20.5625 10.4079 20.5625C10.4655 20.5625 10.524 20.5517 10.5807 20.5288C13.5 19.6729 16 15.0003 16.3275 12.2313C16.3418 12.2456 16.3557 12.2602 16.3702 12.2741C16.5362 12.4339 16.7176 12.5729 16.9121 12.6908L18.1907 16.2897C18.3107 16.6275 18.3321 16.9909 18.2527 17.3406C18.0906 18.054 18.4023 18.5455 19 19.0003L19.5 19.5003C19.8075 19.6745 20.2761 19.8621 20.6223 19.8621C20.8445 19.8621 21.1696 19.9361 21.384 19.8621L21.9193 19.7949C22.6305 19.5496 23.2883 18.9747 23.6508 18.3156C23.8709 17.9154 23.9774 17.2822 24 16.8261L24.5991 5.16528C24.7532 5.08779 24.733 4.83269 24.8763 4.73207L26.8037 3.37873C26.9684 3.26293 27.0392 3.0538 26.9785 2.86183Z"/>
</mask>
<path d="M26.9785 2.86183C26.9179 2.66987 26.7398 2.53934 26.5384 2.53934H22.905C21.5089 1.33574 19.5124 0.379695 17.6712 0.258121C14.5877 0.0544353 11.9043 0.444154 9 1.50024L6.30394 2.7056C6.06439 2.79269 5.94078 3.05753 6.02793 3.29708C6.09614 3.48461 6.27315 3.60106 6.46174 3.60102C6.51409 3.60102 6.5674 3.59202 6.61946 3.57309L9.18761 2.63922C11.9708 1.62717 14.8805 1.21292 17.8354 1.40807C19.0849 1.49059 20.2984 1.88624 21.3558 2.54354C21.1291 2.57285 20.9538 2.76615 20.9538 3.00081C20.9538 3.25573 21.1605 3.46237 21.4154 3.46237H25.0778L24.3458 3.9764C23.6385 4.47295 22.7314 4.59309 21.9193 4.29779C21.6799 4.21069 21.4149 4.33425 21.3278 4.5738C21.2407 4.81335 21.3643 5.07819 21.6038 5.16528C21.9999 5.30929 22.4125 5.38005 22.8232 5.38005C23.0469 5.38005 23.2699 5.35891 23.4893 5.31732L22.9221 16.7871C22.9214 16.8001 22.9199 16.8131 22.919 16.8261C22.1762 16.7153 21.4232 17.0419 21.0005 17.6754C20.859 17.8875 20.9162 18.1741 21.1282 18.3156C21.207 18.3681 21.296 18.3932 21.384 18.3932C21.5331 18.3932 21.6794 18.3212 21.7684 18.1879C21.966 17.8917 22.3002 17.7224 22.6464 17.7278C22.3931 18.1703 21.9902 18.5049 21.5073 18.6714L21.1005 18.8117C21.0367 18.8337 20.9714 18.8492 20.9056 18.8591L20.4092 16.8735C20.3474 16.6262 20.0967 16.4758 19.8495 16.5377C19.6022 16.5995 19.4518 16.8501 19.5137 17.0974L19.8757 18.5455L19.5008 18.3331C19.2216 18.1748 19.0817 17.8581 19.1528 17.5451C19.2711 17.0245 19.2392 16.4836 19.0605 15.9806L18.0395 13.1064C18.1582 13.1268 18.2791 13.142 18.4023 13.1504L20.4841 13.2921C20.4947 13.2929 20.5053 13.2932 20.5159 13.2932C20.7565 13.2932 20.9593 13.1066 20.9759 12.863C20.9932 12.6087 20.801 12.3885 20.5467 12.3712L18.465 12.2295C17.1268 12.1384 16.4799 11.1424 16.3325 10.3171C16.1852 9.49193 16.4473 8.33355 17.6712 7.7849L19.5273 6.9529C19.7599 6.84863 19.8639 6.57553 19.7596 6.3429C19.6554 6.11032 19.3824 6.00624 19.1496 6.11055L17.2936 6.94256C16.6948 7.211 15.7691 7.26879 15.4353 7.7849C14.6093 8.01259 11.7413 9.36717 9.47802 11.379C9.28749 11.5483 9.27032 11.8401 9.43967 12.0306C9.53087 12.1332 9.65757 12.1856 9.78482 12.1855C9.89389 12.1855 10.0034 12.1471 10.0913 12.0689C11.7776 10.57 14.1732 9.64853 15.4353 9.2365C15.3552 9.64119 15.3497 10.065 15.4238 10.4795C15.4741 10.7616 15.5609 11.0349 15.6787 11.2919C15.5076 11.7969 14.9619 13.3373 14.1457 14.9703C12.8664 17.53 11.514 19.1561 10.2349 19.6729C9.99852 19.7684 9.88433 20.0374 9.97983 20.2737C10.0524 20.4534 10.2253 20.5625 10.4079 20.5625C10.4655 20.5625 10.524 20.5517 10.5807 20.5288C13.5 19.6729 16 15.0003 16.3275 12.2313C16.3418 12.2456 16.3557 12.2602 16.3702 12.2741C16.5362 12.4339 16.7176 12.5729 16.9121 12.6908L18.1907 16.2897C18.3107 16.6275 18.3321 16.9909 18.2527 17.3406C18.0906 18.054 18.4023 18.5455 19 19.0003L19.5 19.5003C19.8075 19.6745 20.2761 19.8621 20.6223 19.8621C20.8445 19.8621 21.1696 19.9361 21.384 19.8621L21.9193 19.7949C22.6305 19.5496 23.2883 18.9747 23.6508 18.3156C23.8709 17.9154 23.9774 17.2822 24 16.8261L24.5991 5.16528C24.7532 5.08779 24.733 4.83269 24.8763 4.73207L26.8037 3.37873C26.9684 3.26293 27.0392 3.0538 26.9785 2.86183Z" fill="white"/>
<path d="M22.905 2.53934L22.2521 3.29674L22.5335 3.53934H22.905V2.53934ZM17.6712 0.258121L17.6053 1.25595L17.6053 1.25595L17.6712 0.258121ZM9 1.50024L8.65826 0.56045L8.62457 0.572699L8.59185 0.587327L9 1.50024ZM6.30394 2.7056L6.64564 3.64541L6.67934 3.63315L6.71208 3.61851L6.30394 2.7056ZM6.02793 3.29708L6.96768 2.95523L6.96768 2.95522L6.02793 3.29708ZM6.46174 3.60102V2.60102H6.4615L6.46174 3.60102ZM6.61946 3.57309L6.96107 4.51294L6.9612 4.51289L6.61946 3.57309ZM9.18761 2.63922L8.84587 1.69943L8.84587 1.69943L9.18761 2.63922ZM17.8354 1.40807L17.9013 0.410239L17.9013 0.410239L17.8354 1.40807ZM21.3558 2.54354L21.484 3.53529L24.2666 3.17549L21.8837 1.69425L21.3558 2.54354ZM25.0778 3.46237L25.6525 4.28077L28.2422 2.46237H25.0778V3.46237ZM24.3458 3.9764L24.9203 4.79485L24.9204 4.7948L24.3458 3.9764ZM21.9193 4.29779L21.5775 5.23755L21.5776 5.23758L21.9193 4.29779ZM21.3278 4.5738L22.2676 4.9155L22.2677 4.91534L21.3278 4.5738ZM21.6038 5.16528L21.9456 4.22549L21.9455 4.22547L21.6038 5.16528ZM23.4893 5.31732L24.488 5.36671L24.5508 4.09829L23.303 4.33482L23.4893 5.31732ZM22.9221 16.7871L23.9209 16.8367L23.9209 16.8365L22.9221 16.7871ZM22.919 16.8261L22.7714 17.8152L23.8439 17.9752L23.9168 16.8933L22.919 16.8261ZM21.0005 17.6754L20.1687 17.1204L20.1686 17.1204L21.0005 17.6754ZM21.1282 18.3156L20.5731 19.1473L20.5733 19.1475L21.1282 18.3156ZM21.7684 18.1879L22.6001 18.7431L22.6003 18.7428L21.7684 18.1879ZM22.6464 17.7278L23.5143 18.2245L24.3558 16.7541L22.6618 16.7279L22.6464 17.7278ZM21.5073 18.6714L21.8333 19.6168L21.8333 19.6167L21.5073 18.6714ZM21.1005 18.8117L20.7745 17.8663L20.7745 17.8663L21.1005 18.8117ZM20.9056 18.8591L19.9355 19.1016L20.1558 19.9829L21.0541 19.848L20.9056 18.8591ZM20.4092 16.8735L21.3794 16.631L21.3794 16.6309L20.4092 16.8735ZM19.8495 16.5377L20.092 17.5079L20.0923 17.5078L19.8495 16.5377ZM19.5137 17.0974L20.4838 16.8549L20.4838 16.8548L19.5137 17.0974ZM19.8757 18.5455L19.3827 19.4155L21.4113 20.5651L20.8458 18.3029L19.8757 18.5455ZM19.5008 18.3331L19.0078 19.2031L19.0078 19.2031L19.5008 18.3331ZM19.1528 17.5451L18.1777 17.3235L18.1777 17.3235L19.1528 17.5451ZM19.0605 15.9806L18.1182 16.3153L18.1182 16.3153L19.0605 15.9806ZM18.0395 13.1064L18.2088 12.1209L16.5254 11.8317L17.0972 13.4412L18.0395 13.1064ZM18.4023 13.1504L18.3344 14.1481L18.3344 14.1481L18.4023 13.1504ZM20.4841 13.2921L20.5532 12.2945L20.552 12.2944L20.4841 13.2921ZM20.9759 12.863L21.9736 12.9311L21.9736 12.9309L20.9759 12.863ZM20.5467 12.3712L20.4788 13.3689L20.4788 13.3689L20.5467 12.3712ZM18.465 12.2295L18.3971 13.2272L18.3971 13.2272L18.465 12.2295ZM16.3325 10.3171L17.317 10.1413L17.3169 10.1413L16.3325 10.3171ZM17.6712 7.7849L17.2622 6.87239L17.2622 6.87239L17.6712 7.7849ZM19.5273 6.9529L19.1183 6.04037L19.1182 6.04038L19.5273 6.9529ZM19.7596 6.3429L20.6722 5.93389L20.6721 5.93383L19.7596 6.3429ZM19.1496 6.11055L18.7407 5.198L18.7406 5.19804L19.1496 6.11055ZM17.2936 6.94256L16.8846 6.03005L16.8846 6.03005L17.2936 6.94256ZM15.4353 7.7849L15.701 8.74894L16.0681 8.64775L16.2749 8.32802L15.4353 7.7849ZM9.47802 11.379L10.1424 12.1264L10.1424 12.1264L9.47802 11.379ZM9.43967 12.0306L8.69223 12.695L8.69226 12.695L9.43967 12.0306ZM9.78482 12.1855V11.1855H9.78446L9.78482 12.1855ZM10.0913 12.0689L10.7556 12.8164L10.7557 12.8163L10.0913 12.0689ZM15.4353 9.2365L16.4163 9.43051L16.7474 7.75617L15.1249 8.28588L15.4353 9.2365ZM15.4238 10.4795L16.4082 10.3038L16.4082 10.3036L15.4238 10.4795ZM15.6787 11.2919L16.6259 11.6127L16.7534 11.2363L16.5877 10.875L15.6787 11.2919ZM14.1457 14.9703L13.2512 14.5232L13.2512 14.5232L14.1457 14.9703ZM10.2349 19.6729L10.6095 20.6001L10.6095 20.6001L10.2349 19.6729ZM9.97983 20.2737L9.05264 20.6483L9.05266 20.6484L9.97983 20.2737ZM10.5807 20.5288L10.2993 19.5692L10.252 19.5831L10.2062 19.6016L10.5807 20.5288ZM16.3275 12.2313L17.0346 11.5242L15.5767 10.0662L15.3345 12.1138L16.3275 12.2313ZM16.3702 12.2741L17.0638 11.5537L17.0634 11.5534L16.3702 12.2741ZM16.9121 12.6908L17.8545 12.356L17.7352 12.0202L17.4304 11.8356L16.9121 12.6908ZM18.1907 16.2897L19.133 15.955L19.133 15.9549L18.1907 16.2897ZM18.2527 17.3406L17.2775 17.1189L17.2775 17.119L18.2527 17.3406ZM19 19.0003L19.7071 18.2932L19.6593 18.2454L19.6056 18.2045L19 19.0003ZM19.5 19.5003L18.7929 20.2074L18.8889 20.3034L19.007 20.3703L19.5 19.5003ZM21.384 19.8621L21.2593 18.8699L21.1562 18.8829L21.058 18.9168L21.384 19.8621ZM21.9193 19.7949L22.044 20.7871L22.1471 20.7741L22.2453 20.7402L21.9193 19.7949ZM23.6508 18.3156L24.527 18.7975L24.527 18.7975L23.6508 18.3156ZM24 16.8261L23.0013 16.7748L23.0012 16.7766L24 16.8261ZM24.5991 5.16528L24.1499 4.27188L23.6303 4.53315L23.6004 5.11397L24.5991 5.16528ZM24.8763 4.73207L24.3016 3.91365L24.3015 3.91373L24.8763 4.73207ZM26.8037 3.37873L27.3784 4.19714L27.379 4.19673L26.8037 3.37873ZM27.9321 2.56057C27.74 1.95266 27.176 1.53934 26.5384 1.53934V3.53934C26.3035 3.53934 26.0958 3.38709 26.025 3.1631L27.9321 2.56057ZM26.5384 1.53934H22.905V3.53934H26.5384V1.53934ZM23.558 1.78195C22.0334 0.467646 19.8379 -0.600986 17.7371 -0.739706L17.6053 1.25595C19.1868 1.36038 20.9843 2.20383 22.2521 3.29674L23.558 1.78195ZM17.7371 -0.739705C14.5134 -0.952654 11.6912 -0.542431 8.65826 0.56045L9.34174 2.44004C12.1173 1.43074 14.6621 1.06152 17.6053 1.25595L17.7371 -0.739705ZM8.59185 0.587327L5.89579 1.79268L6.71208 3.61851L9.40815 2.41316L8.59185 0.587327ZM5.96224 1.76579C5.20365 2.0416 4.81218 2.88026 5.08818 3.63894L6.96768 2.95522C7.06939 3.23481 6.92513 3.54379 6.64564 3.64541L5.96224 1.76579ZM5.08817 3.63894C5.30461 4.23393 5.86602 4.60116 6.46199 4.60102L6.4615 2.60102C6.68028 2.60097 6.88768 2.7353 6.96768 2.95523L5.08817 3.63894ZM6.46174 4.60102C6.62911 4.60102 6.79813 4.57216 6.96107 4.51294L6.27785 2.63325C6.33666 2.61188 6.39906 2.60102 6.46174 2.60102V4.60102ZM6.9612 4.51289L9.52935 3.57902L8.84587 1.69943L6.27772 2.6333L6.9612 4.51289ZM9.52935 3.57902C12.1822 2.61437 14.953 2.21989 17.7695 2.40589L17.9013 0.410239C14.8079 0.205949 11.7594 0.639964 8.84587 1.69943L9.52935 3.57902ZM17.7695 2.40589C18.8527 2.47744 19.9078 2.82094 20.8279 3.39283L21.8837 1.69425C20.6889 0.951538 19.3171 0.503748 17.9013 0.410239L17.7695 2.40589ZM21.2276 1.5518C20.5106 1.64451 19.9538 2.25517 19.9538 3.00081H21.9538C21.9538 3.27713 21.7477 3.5012 21.484 3.53529L21.2276 1.5518ZM19.9538 3.00081C19.9538 3.80801 20.6082 4.46237 21.4154 4.46237V2.46237C21.7128 2.46237 21.9538 2.70344 21.9538 3.00081H19.9538ZM21.4154 4.46237H25.0778V2.46237H21.4154V4.46237ZM24.5032 2.64397L23.7711 3.158L24.9204 4.7948L25.6525 4.28077L24.5032 2.64397ZM23.7712 3.15796C23.3312 3.46686 22.7662 3.54168 22.261 3.35799L21.5776 5.23758C22.6966 5.6445 23.9458 5.47903 24.9203 4.79485L23.7712 3.15796ZM22.2611 3.35802C21.5029 3.08222 20.6638 3.47321 20.388 4.23226L22.2677 4.91534C22.166 5.19529 21.8568 5.33916 21.5775 5.23755L22.2611 3.35802ZM20.388 4.2321C20.1123 4.99053 20.5034 5.82922 21.2621 6.10509L21.9455 4.22547C22.2252 4.32715 22.3692 4.63617 22.2676 4.9155L20.388 4.2321ZM21.2621 6.10508C21.7692 6.28946 22.2976 6.38005 22.8232 6.38005V4.38005C22.5275 4.38005 22.2305 4.32911 21.9456 4.22549L21.2621 6.10508ZM22.8232 6.38005C23.1099 6.38005 23.3952 6.35295 23.6755 6.29982L23.303 4.33482C23.1445 4.36486 22.9838 4.38005 22.8232 4.38005V6.38005ZM22.4905 5.26793L21.9233 16.7377L23.9209 16.8365L24.488 5.36671L22.4905 5.26793ZM21.9233 16.7375C21.9237 16.7297 21.9241 16.7239 21.9243 16.721C21.9245 16.7184 21.9247 16.717 21.9245 16.7192C21.9243 16.7208 21.9243 16.7209 21.9241 16.7237C21.9239 16.7257 21.9237 16.7286 21.9234 16.7318C21.9228 16.7381 21.9221 16.7477 21.9213 16.7589L23.9168 16.8933C23.9166 16.8958 23.9165 16.8977 23.9164 16.899C23.9163 16.9002 23.9162 16.9009 23.9162 16.9009C23.9162 16.901 23.9162 16.9008 23.9163 16.9006C23.9163 16.9003 23.9163 16.8999 23.9164 16.8993C23.9164 16.8988 23.9167 16.8957 23.9168 16.894C23.9175 16.8865 23.9195 16.8636 23.9209 16.8367L21.9233 16.7375ZM23.0667 15.8371C21.9446 15.6696 20.8084 16.1616 20.1687 17.1204L21.8323 18.2305C22.038 17.9223 22.4077 17.7609 22.7714 17.8152L23.0667 15.8371ZM20.1686 17.1204C19.7207 17.7919 19.9018 18.6993 20.5731 19.1473L21.6834 17.4838C21.9306 17.6488 21.9974 17.9831 21.8323 18.2304L20.1686 17.1204ZM20.5733 19.1475C20.8213 19.3129 21.1044 19.3932 21.384 19.3932V17.3932C21.4875 17.3932 21.5927 17.4233 21.6832 17.4837L20.5733 19.1475ZM21.384 19.3932C21.853 19.3932 22.3178 19.1659 22.6001 18.7431L20.9367 17.6326C21.041 17.4764 21.2131 17.3932 21.384 17.3932V19.3932ZM22.6003 18.7428C22.6028 18.739 22.6065 18.7353 22.6124 18.7323C22.6189 18.7289 22.6256 18.7276 22.6309 18.7277L22.6618 16.7279C21.9831 16.7174 21.3265 17.0483 20.9365 17.6329L22.6003 18.7428ZM21.7785 17.231C21.6451 17.464 21.4343 17.6387 21.1813 17.726L21.8333 19.6167C22.546 19.371 23.1411 18.8765 23.5143 18.2245L21.7785 17.231ZM21.1813 17.726L20.7745 17.8663L21.4265 19.757L21.8333 19.6168L21.1813 17.726ZM20.7745 17.8663C20.772 17.8671 20.7665 17.8688 20.7571 17.8702L21.0541 19.848C21.1763 19.8297 21.3013 19.8002 21.4266 19.757L20.7745 17.8663ZM21.8758 18.6166L21.3794 16.631L19.4391 17.1161L19.9355 19.1016L21.8758 18.6166ZM21.3794 16.6309C21.1835 15.8479 20.3899 15.3716 19.6068 15.5676L20.0923 17.5078C19.8034 17.5801 19.5112 17.4045 19.4391 17.1161L21.3794 16.6309ZM19.6071 15.5675C18.8239 15.7633 18.3477 16.5569 18.5436 17.34L20.4838 16.8548C20.556 17.1433 20.3805 17.4357 20.092 17.5079L19.6071 15.5675ZM18.5435 17.34L18.9055 18.788L20.8458 18.3029L20.4838 16.8549L18.5435 17.34ZM20.3687 17.6755L19.9939 17.463L19.0078 19.2031L19.3827 19.4155L20.3687 17.6755ZM19.9939 17.463C20.0986 17.5224 20.1546 17.6493 20.128 17.7667L18.1777 17.3235C18.0088 18.0669 18.3445 18.8272 19.0078 19.2031L19.9939 17.463ZM20.128 17.7667C20.2883 17.0614 20.245 16.3274 20.0028 15.6458L18.1182 16.3153C18.2335 16.6397 18.254 16.9877 18.1777 17.3235L20.128 17.7667ZM20.0028 15.6458L18.9818 12.7717L17.0972 13.4412L18.1182 16.3153L20.0028 15.6458ZM17.8702 14.092C18.0189 14.1175 18.1737 14.1372 18.3344 14.1481L18.4703 12.1527C18.3844 12.1469 18.2975 12.1361 18.2088 12.1209L17.8702 14.092ZM18.3344 14.1481L20.4161 14.2898L20.552 12.2944L18.4702 12.1527L18.3344 14.1481ZM20.415 14.2897C20.4484 14.292 20.4821 14.2932 20.5159 14.2932V12.2932C20.5286 12.2932 20.541 12.2937 20.5532 12.2945L20.415 14.2897ZM20.5159 14.2932C21.2789 14.2932 21.9209 13.7028 21.9736 12.9311L19.9782 12.795C19.9976 12.5105 20.234 12.2932 20.5159 12.2932V14.2932ZM21.9736 12.9309C22.0284 12.1256 21.42 11.4283 20.6146 11.3735L20.4788 13.3689C20.1821 13.3487 19.958 13.0918 19.9782 12.7951L21.9736 12.9309ZM20.6146 11.3735L18.5329 11.2318L18.3971 13.2272L20.4788 13.3689L20.6146 11.3735ZM18.5329 11.2318C17.7761 11.1803 17.4077 10.6493 17.317 10.1413L15.3481 10.4929C15.5521 11.6356 16.4775 13.0965 18.3971 13.2272L18.5329 11.2318ZM17.3169 10.1413C17.2262 9.63342 17.3882 9.00768 18.0803 8.69741L17.2622 6.87239C15.5065 7.65943 15.1441 9.35043 15.3481 10.493L17.3169 10.1413ZM18.0803 8.69741L19.9363 7.86541L19.1182 6.04038L17.2622 6.87239L18.0803 8.69741ZM19.9363 7.86543C20.6731 7.53517 21.0022 6.67027 20.6722 5.93389L18.8471 6.75191C18.7256 6.48079 18.8467 6.16209 19.1183 6.04037L19.9363 7.86543ZM20.6721 5.93383C20.342 5.19737 19.4774 4.86783 18.7407 5.198L19.5586 7.02311C19.2874 7.14465 18.9688 7.02328 18.8471 6.75198L20.6721 5.93383ZM18.7406 5.19804L16.8846 6.03005L17.7027 7.85507L19.5587 7.02306L18.7406 5.19804ZM16.8846 6.03005C16.8018 6.06713 16.6878 6.10535 16.5184 6.15461C16.3729 6.19691 16.1496 6.25723 15.9574 6.31935C15.6029 6.43398 14.9706 6.6621 14.5956 7.24178L16.2749 8.32802C16.2338 8.39159 16.2312 8.33276 16.5727 8.22236C16.7286 8.17196 16.8698 8.13524 17.0768 8.07508C17.2598 8.02187 17.486 7.9522 17.7027 7.85507L16.8846 6.03005ZM15.1695 6.82086C14.6395 6.96695 13.6327 7.40916 12.5065 8.04067C11.3601 8.68353 10.0135 9.56505 8.81366 10.6316L10.1424 12.1264C11.2058 11.1811 12.4249 10.3794 13.4847 9.78512C14.5648 9.17946 15.405 8.83053 15.701 8.74894L15.1695 6.82086ZM8.81369 10.6316C8.21035 11.1678 8.156 12.0916 8.69223 12.695L10.1871 11.3663C10.3846 11.5886 10.3646 11.9289 10.1424 12.1264L8.81369 10.6316ZM8.69226 12.695C8.98107 13.0199 9.38405 13.1857 9.78518 13.1855L9.78446 11.1855C9.93109 11.1855 10.0807 11.2466 10.1871 11.3663L8.69226 12.695ZM9.78482 13.1855C10.1294 13.1855 10.4777 13.0633 10.7556 12.8164L9.427 11.3215C9.52899 11.2308 9.65835 11.1855 9.78482 11.1855V13.1855ZM10.7557 12.8163C12.2803 11.4611 14.5094 10.5907 15.7456 10.1871L15.1249 8.28588C13.8371 8.70633 11.2749 9.67885 9.42693 11.3215L10.7557 12.8163ZM14.4543 9.04249C14.3503 9.56792 14.3432 10.1172 14.4393 10.6553L16.4082 10.3036C16.3562 10.0128 16.3601 9.71446 16.4163 9.43051L14.4543 9.04249ZM14.4393 10.6552C14.5049 11.0227 14.6176 11.3769 14.7698 11.7087L16.5877 10.875C16.5042 10.6929 16.4433 10.5005 16.4082 10.3038L14.4393 10.6552ZM14.7316 10.971C14.5675 11.4555 14.0385 12.948 13.2512 14.5232L15.0402 15.4174C15.8852 13.7267 16.4478 12.1384 16.6259 11.6127L14.7316 10.971ZM13.2512 14.5232C12.6342 15.7578 12.0158 16.7334 11.4214 17.4482C10.8194 18.172 10.288 18.5729 9.86027 18.7457L10.6095 20.6001C11.4609 20.2561 12.2452 19.5855 12.9591 18.7271C13.6804 17.8597 14.3779 16.7425 15.0402 15.4174L13.2512 14.5232ZM9.86028 18.7457C9.11187 19.0481 8.75025 19.8999 9.05264 20.6483L10.907 19.8991C11.0184 20.1749 10.8852 20.4887 10.6095 20.6001L9.86028 18.7457ZM9.05266 20.6484C9.2831 21.2187 9.83158 21.5625 10.4079 21.5625V19.5625C10.6191 19.5625 10.8218 19.6881 10.907 19.8991L9.05266 20.6484ZM10.4079 21.5625C10.5918 21.5625 10.7776 21.5277 10.9552 21.456L10.2062 19.6016C10.2704 19.5756 10.3392 19.5625 10.4079 19.5625V21.5625ZM10.862 21.4884C12.6745 20.957 14.1974 19.3208 15.2699 17.634C16.3596 15.9202 17.135 13.918 17.3206 12.3488L15.3345 12.1138C15.1925 13.3137 14.5542 15.0322 13.5822 16.5609C12.593 18.1166 11.4062 19.2447 10.2993 19.5692L10.862 21.4884ZM15.6204 12.9384C15.6242 12.9422 15.6249 12.943 15.6366 12.9548C15.6453 12.9636 15.6599 12.9784 15.677 12.9949L17.0634 11.5534C17.0661 11.5559 17.0665 11.5565 17.061 11.5509C17.0598 11.5496 17.0584 11.5483 17.0567 11.5465C17.0551 11.5449 17.053 11.5427 17.0508 11.5406C17.0466 11.5362 17.0409 11.5305 17.0346 11.5242L15.6204 12.9384ZM15.6767 12.9946C15.8964 13.2061 16.1368 13.3902 16.3939 13.546L17.4304 11.8356C17.2984 11.7556 17.1759 11.6617 17.0638 11.5537L15.6767 12.9946ZM15.9698 13.0256L17.2484 16.6244L19.133 15.9549L17.8545 12.356L15.9698 13.0256ZM17.2483 16.6244C17.3049 16.7837 17.315 16.9542 17.2775 17.1189L19.2278 17.5622C19.3493 17.0277 19.3164 16.4713 19.133 15.955L17.2483 16.6244ZM17.2775 17.119C17.1504 17.6786 17.2017 18.2164 17.4443 18.7091C17.6728 19.1734 18.0345 19.5222 18.3944 19.7961L19.6056 18.2045C19.3678 18.0236 19.2748 17.8992 19.2386 17.8257C19.2164 17.7806 19.1928 17.716 19.2278 17.5622L17.2775 17.119ZM18.2929 19.7074L18.7929 20.2074L20.2071 18.7932L19.7071 18.2932L18.2929 19.7074ZM19.007 20.3703C19.2107 20.4858 19.4604 20.602 19.7202 20.6918C19.9681 20.7774 20.2913 20.8621 20.6223 20.8621V18.8621C20.6236 18.8621 20.6178 18.8622 20.604 18.8606C20.5905 18.859 20.5719 18.8561 20.5482 18.8511C20.5 18.8411 20.4407 18.8247 20.3731 18.8013C20.2352 18.7537 20.0968 18.6891 19.993 18.6303L19.007 20.3703ZM20.6223 20.8621C20.6964 20.8621 20.694 20.8709 20.9382 20.8875C21.0813 20.8973 21.3954 20.916 21.71 20.8075L21.058 18.9168C21.1214 18.8949 21.1602 18.8943 21.1518 18.8948C21.1455 18.8951 21.1232 18.8955 21.0739 18.8922C21.0196 18.8885 20.9756 18.8837 20.8933 18.8764C20.8259 18.8705 20.7258 18.8621 20.6223 18.8621V20.8621ZM21.5087 20.8543L22.044 20.7871L21.7946 18.8027L21.2593 18.8699L21.5087 20.8543ZM22.2453 20.7402C23.2045 20.4095 24.052 19.6612 24.527 18.7975L22.7746 17.8336C22.5245 18.2883 22.0564 18.6898 21.5933 18.8495L22.2453 20.7402ZM24.527 18.7975C24.8569 18.1977 24.9736 17.3825 24.9988 16.8756L23.0012 16.7766C22.9811 17.1819 22.8849 17.6332 22.7746 17.8336L24.527 18.7975ZM24.9987 16.8774L25.5978 5.21659L23.6004 5.11397L23.0013 16.7748L24.9987 16.8774ZM25.0483 6.05869C25.3042 5.93002 25.4566 5.7393 25.5428 5.59675C25.62 5.46922 25.6653 5.34259 25.6786 5.30712C25.7037 5.23999 25.6951 5.26673 25.6792 5.29687C25.6571 5.33894 25.5907 5.45233 25.451 5.55041L24.3015 3.91373C24.0903 4.06211 23.9726 4.24512 23.9092 4.36574C23.8771 4.42667 23.8538 4.48162 23.8383 4.52033C23.8238 4.55625 23.8099 4.59436 23.8049 4.60758C23.7974 4.6278 23.7968 4.62858 23.7988 4.62396C23.8012 4.61848 23.8118 4.59433 23.8317 4.56135C23.8739 4.49157 23.971 4.3618 24.1499 4.27188L25.0483 6.05869ZM25.4509 5.55048L27.3784 4.19714L26.2291 2.56032L24.3016 3.91365L25.4509 5.55048ZM27.379 4.19673C27.9 3.83035 28.1241 3.16847 27.9321 2.56057L26.025 3.1631C25.9542 2.93912 26.0369 2.69551 26.2285 2.56073L27.379 4.19673Z" fill="#1D1D1D" mask="url(#path-1-inside-1_935_25417)"/>
</g>
<path d="M3 6H7" stroke="#1D1D1D" stroke-linecap="round"/>
<path d="M3 12H7" stroke="#1D1D1D" stroke-linecap="round"/>
<path d="M1 9H5" stroke="#1D1D1D" stroke-linecap="round"/>
<defs>
<clipPath id="clip0_935_25417">
<rect width="21" height="21" fill="white" transform="translate(6)"/>
</clipPath>
</defs>
</svg>
