<svg width="30" height="30" viewBox="0 0 30 30" fill="none" xmlns="http://www.w3.org/2000/svg">
<path d="M15.0004 2.40039C12.5084 2.40039 10.0723 3.13937 8.00021 4.52387C5.92815 5.90838 4.31318 7.87623 3.35951 10.1786C2.40585 12.4809 2.15633 15.0144 2.6425 17.4585C3.12868 19.9027 4.32871 22.1478 6.09085 23.9099C7.85299 25.6721 10.0981 26.8721 12.5423 27.3583C14.9864 27.8445 17.5199 27.5949 19.8222 26.6413C22.1246 25.6876 24.0924 24.0726 25.4769 22.0006C26.8614 19.9285 27.6004 17.4924 27.6004 15.0004C27.5972 11.6596 26.2687 8.45662 23.9064 6.09435C21.5442 3.73208 18.3411 2.40357 15.0004 2.40039ZM15.0004 26.4004C12.7457 26.4004 10.5416 25.7318 8.6669 24.4791C6.79218 23.2265 5.33101 21.4461 4.46817 19.363C3.60533 17.2799 3.37957 14.9877 3.81944 12.7764C4.25932 10.565 5.34506 8.53369 6.93938 6.93937C8.5337 5.34505 10.565 4.25931 12.7764 3.81944C14.9878 3.37957 17.2799 3.60532 19.363 4.46816C21.4461 5.331 23.2265 6.79217 24.4792 8.66689C25.7318 10.5416 26.4004 12.7457 26.4004 15.0004C26.3972 18.0229 25.1951 20.9207 23.0579 23.0579C20.9207 25.1951 18.0229 26.3972 15.0004 26.4004ZM23.8444 13.3204C23.7805 12.9098 23.6718 12.5074 23.5204 12.1204C23.0828 10.803 22.3425 9.60656 21.3589 8.62707C20.3752 7.64759 19.1756 6.91236 17.8564 6.48039C17.4675 6.33468 17.0657 6.22619 16.6564 6.15639C15.5461 5.94829 14.4067 5.94829 13.2964 6.15639C12.887 6.22619 12.4852 6.33468 12.0964 6.48039C10.7835 6.92115 9.59181 7.6629 8.61668 8.64636C7.64155 9.62983 6.90997 10.8277 6.4804 12.1444C6.33468 12.5332 6.2262 12.935 6.1564 13.3444C5.9483 14.4547 5.9483 15.5941 6.1564 16.7044C6.2262 17.1137 6.33468 17.5155 6.4804 17.9044C6.91476 19.2262 7.65364 20.4275 8.63748 21.4113C9.62132 22.3951 10.8226 23.134 12.1444 23.5684C12.5332 23.7141 12.935 23.8226 13.3444 23.8924C14.4547 24.1005 15.5941 24.1005 16.7044 23.8924C17.1137 23.8226 17.5155 23.7141 17.9044 23.5684C19.2262 23.134 20.4275 22.3951 21.4113 21.4113C22.3952 20.4275 23.134 19.2262 23.5684 17.9044C23.7141 17.5155 23.8226 17.1137 23.8924 16.7044C23.985 16.1414 24.0211 15.5706 24.0004 15.0004C23.9912 14.4372 23.9391 13.8756 23.8444 13.3204ZM17.6884 7.68039C18.7474 8.07534 19.7091 8.69335 20.5082 9.49254C21.3074 10.2917 21.9255 11.2534 22.3204 12.3124L17.2684 13.0324L16.9684 12.7324L17.6884 7.68039ZM15.0004 7.20039C15.5079 7.19954 16.0142 7.24777 16.5124 7.34439L15.8404 12.1444C15.2918 11.9844 14.709 11.9844 14.1604 12.1444L13.4884 7.34439C13.9866 7.24777 14.4929 7.19954 15.0004 7.20039ZM7.2004 15.0004C7.19955 14.4929 7.24777 13.9866 7.3444 13.4884L12.1444 14.1604C11.9844 14.709 11.9844 15.2918 12.1444 15.8404L7.3444 16.5124C7.24777 16.0142 7.19955 15.5079 7.2004 15.0004ZM12.3124 22.3204C11.2534 21.9254 10.2917 21.3074 9.49255 20.5082C8.69336 19.709 8.07534 18.7474 7.6804 17.6884L12.7324 16.9684L13.0324 17.2684L12.3124 22.3204ZM12.7324 13.0324L7.6804 12.3124C8.07534 11.2534 8.69336 10.2917 9.49255 9.49254C10.2917 8.69335 11.2534 8.07534 12.3124 7.68039L13.0324 12.7324L12.7324 13.0324ZM15.0004 22.8004C14.4929 22.8012 13.9866 22.753 13.4884 22.6564L14.1604 17.8564C14.709 18.0164 15.2918 18.0164 15.8404 17.8564L16.5124 22.6564C16.0142 22.753 15.5079 22.8012 15.0004 22.8004ZM16.6204 15.7684C16.4478 16.1454 16.1454 16.4478 15.7684 16.6204C15.5297 16.7388 15.2669 16.8004 15.0004 16.8004C14.7339 16.8004 14.4711 16.7388 14.2324 16.6204C13.8554 16.4478 13.553 16.1454 13.3804 15.7684C13.262 15.5297 13.2003 15.2668 13.2003 15.0004C13.2003 14.7339 13.262 14.4711 13.3804 14.2324C13.553 13.8554 13.8554 13.553 14.2324 13.3804C14.4711 13.262 14.7339 13.2003 15.0004 13.2003C15.2669 13.2003 15.5297 13.262 15.7684 13.3804C16.1454 13.553 16.4478 13.8554 16.6204 14.2324C16.7388 14.4711 16.8004 14.7339 16.8004 15.0004C16.8004 15.2668 16.7388 15.5297 16.6204 15.7684ZM17.6884 22.3204L16.9684 17.2684L17.2684 16.9684L22.3204 17.6884C21.9255 18.7474 21.3074 19.709 20.5082 20.5082C19.7091 21.3074 18.7474 21.9254 17.6884 22.3204ZM22.6564 16.5124L17.8564 15.8404C18.0164 15.2918 18.0164 14.709 17.8564 14.1604L22.6564 13.4884C22.8482 14.4873 22.8482 15.5135 22.6564 16.5124Z" fill="#1D1D1D"/>
</svg>
