<svg width="22" height="22" viewBox="0 0 22 22" fill="none" xmlns="http://www.w3.org/2000/svg">
<g clip-path="url(#clip0_935_25399)">
<path d="M11.5409 2.61328H4.73727C4.36813 2.61328 4.06934 2.91207 4.06934 3.28122V7.99506C4.06934 8.36376 4.36813 8.66299 4.73727 8.66299H11.5409C11.9096 8.66299 12.2088 8.36376 12.2088 7.99506V3.28122C12.2088 2.91207 11.9096 2.61328 11.5409 2.61328ZM10.8729 7.32712H5.40521V3.94915H10.8729V7.32712Z" fill="#1D1D1D"/>
<path d="M21.0159 3.82077L21.0157 3.82068L18.1644 1.12205C17.8964 0.868499 17.4737 0.880121 17.2201 1.14805C16.9666 1.41598 16.9782 1.8387 17.2461 2.09229L18.7257 3.49268C17.7991 3.836 17.1365 4.72925 17.1365 5.77386C17.1365 6.86081 17.8539 7.7839 18.8398 8.09382V16.3575C18.8398 16.5788 18.6594 16.7587 18.4386 16.7587C18.2173 16.7587 18.0374 16.5788 18.0374 16.3575V12.1584C18.0374 11.0541 17.1383 10.1551 16.034 10.1551H14.4848V2.22841C14.4848 1.1232 13.5862 0.224609 12.481 0.224609H3.79699C2.69222 0.224609 1.79318 1.1232 1.79318 2.22841V17.0913H1.56208C0.700441 17.0913 0 17.7922 0 18.6538V21.1069C0 21.4761 0.29879 21.7749 0.667935 21.7749H15.6105C15.9792 21.7749 16.2785 21.4761 16.2785 21.1069V18.6538C16.2785 17.7922 15.5776 17.0913 14.7159 17.0913H14.4848V11.4909H16.034C16.4018 11.4909 16.7015 11.7906 16.7015 12.1584V16.3575C16.7015 17.3153 17.4808 18.0945 18.4386 18.0945C19.3964 18.0945 20.1756 17.3153 20.1756 16.3575V8.12895C21.2234 7.85822 22 6.90485 22 5.77381C22 4.97496 21.6126 4.26473 21.0159 3.82077ZM13.149 17.0913H3.12905V2.22841C3.12905 1.86016 3.42873 1.56048 3.79699 1.56048H12.481C12.8497 1.56048 13.149 1.86016 13.149 2.22841C13.149 2.48401 13.149 16.866 13.149 17.0913ZM14.9426 18.6538V20.439H1.33587V18.6538C1.33587 18.5287 1.4374 18.4272 1.56208 18.4272C2.07919 18.4272 14.0942 18.4272 14.7159 18.4272C14.8411 18.4272 14.9426 18.5287 14.9426 18.6538ZM19.5683 6.86967C18.9653 6.86967 18.4724 6.37883 18.4724 5.77381C18.4724 5.16956 18.964 4.67796 19.5683 4.67796C20.1725 4.67796 20.6641 5.16956 20.6641 5.77381C20.6641 6.37838 20.1721 6.86967 19.5683 6.86967Z" fill="#1D1D1D"/>
</g>
<defs>
<clipPath id="clip0_935_25399">
<rect width="22" height="22" fill="white"/>
</clipPath>
</defs>
</svg>
