<svg width="25" height="25" viewBox="0 0 25 25" fill="none" xmlns="http://www.w3.org/2000/svg">
<g clip-path="url(#clip0_935_25638)">
<path d="M17.6386 13.495L16.1254 11.9818L20.1245 7.98275L20.6424 8.50062C20.9778 8.83597 21.5421 8.7699 21.7883 8.35955L24.8956 3.18071C25.0686 2.89253 25.0231 2.52364 24.7855 2.28604L22.7139 0.214516C22.4763 -0.0231298 22.1073 -0.0684909 21.8192 0.10436L16.6404 3.21167C16.2317 3.45689 16.163 4.02124 16.4993 4.35757L17.0172 4.87543L13.0181 8.87449L11.5049 7.36131C12.0376 5.37119 11.4943 3.20733 9.98781 1.70079C8.1034 -0.183578 5.28246 -0.481819 3.07637 0.706506C2.87256 0.81632 2.73267 1.01598 2.69903 1.24503C2.66543 1.47408 2.74209 1.70553 2.90581 1.86925L5.65443 4.61787C5.94003 4.90346 5.94003 5.36811 5.65443 5.65361C5.36884 5.9392 4.90424 5.93925 4.61865 5.65361L1.87002 2.90494C1.7063 2.74121 1.47481 2.66451 1.24581 2.69815C1.01676 2.73174 0.817099 2.87168 0.707285 3.07549C-0.476548 5.27333 -0.189147 8.09613 1.70167 9.98689C3.20483 11.4901 5.36757 12.0379 7.36219 11.5041L7.83943 11.9813L1.07428 18.7466C-0.357652 20.1785 -0.358531 22.4928 1.07428 23.9257C2.50215 25.3535 4.82543 25.3536 6.25336 23.9257L13.0185 17.1603L13.4958 17.6377C12.9632 19.6278 13.5065 21.7917 15.0129 23.2982C16.8974 25.1826 19.7183 25.4809 21.9244 24.2925C22.1282 24.1827 22.2681 23.9831 22.3017 23.754C22.3353 23.525 22.2587 23.2935 22.0949 23.1298L19.3463 20.3812C19.0607 20.0956 19.0607 19.6309 19.3463 19.3454C19.6319 19.0599 20.0966 19.0599 20.3821 19.3454L23.1307 22.0941C23.2944 22.2578 23.5259 22.3344 23.7549 22.3009C23.984 22.2673 24.1837 22.1273 24.2935 21.9235C25.4773 19.7257 25.19 16.9029 23.2991 15.0121C21.796 13.509 19.6332 12.9611 17.6386 13.495ZM22.0825 1.65465L23.3453 2.91744L21.0149 6.8015L18.1984 3.98511L22.0825 1.65465ZM18.053 5.91122L19.0887 6.94696L15.0896 10.946L14.0539 9.91028L18.053 5.91122ZM5.21757 22.89C4.36084 23.7467 2.9668 23.7467 2.11001 22.89C1.2504 22.0303 1.24986 20.6426 2.11001 19.7824L8.87512 13.0171L11.9827 16.1247L5.21757 22.89ZM23.3852 20.277L21.4179 18.3097C20.5613 17.4531 19.1673 17.4531 18.3106 18.3097C17.4539 19.1663 17.4539 20.5603 18.3106 21.417L20.2779 23.3843C18.7832 23.7925 17.1766 23.3903 16.0488 22.2625C14.8551 21.0688 14.4498 19.2693 15.0162 17.6779C15.111 17.4115 15.044 17.1144 14.8441 16.9145L8.08548 10.1558C7.88597 9.95632 7.589 9.8887 7.32201 9.98372C5.7306 10.5502 3.9311 10.1448 2.7374 8.95115C1.60958 7.82332 1.20748 6.21679 1.61558 4.72207L3.58291 6.68939C4.43955 7.54603 5.83349 7.54598 6.69022 6.68939C7.54686 5.83276 7.54686 4.43882 6.69022 3.58208L4.72289 1.61475C6.21757 1.20655 7.8242 1.60875 8.95203 2.73658C10.1457 3.93027 10.551 5.72983 9.98459 7.32118C9.88977 7.58758 9.95676 7.88475 10.1567 8.08465L16.9153 14.8432C17.1152 15.0432 17.4124 15.1101 17.6788 15.0153C19.2701 14.4489 21.0697 14.8543 22.2634 16.0479C23.3912 17.1758 23.7933 18.7823 23.3852 20.277Z" fill="#1D1D1D"/>
<path d="M9.52257 15.6246C9.23654 15.3387 8.77287 15.3387 8.48683 15.6246L4.01136 20.1003C3.72538 20.3863 3.72538 20.85 4.01136 21.136C4.29745 21.422 4.76107 21.422 5.0471 21.136L9.52252 16.6604C9.80851 16.3743 9.80851 15.9106 9.52257 15.6246Z" fill="#1D1D1D"/>
</g>
<defs>
<clipPath id="clip0_935_25638">
<rect width="25" height="25" fill="white"/>
</clipPath>
</defs>
</svg>
