<svg width="25" height="25" viewBox="0 0 25 25" fill="none" xmlns="http://www.w3.org/2000/svg">
<g clip-path="url(#clip0_935_25591)">
<path d="M13.1144 2.9707H5.38304C4.96356 2.9707 4.62402 3.31024 4.62402 3.72972V9.08636C4.62402 9.50533 4.96356 9.84537 5.38304 9.84537H13.1144C13.5334 9.84537 13.8734 9.50533 13.8734 9.08636V3.72972C13.8734 3.31024 13.5334 2.9707 13.1144 2.9707ZM12.3554 8.32734H6.14206V4.48874H12.3554V8.32734Z" fill="#1D1D1D"/>
<path d="M23.8817 4.34241L23.8815 4.34231L20.6413 1.27567C20.3369 0.987552 19.8565 1.00076 19.5683 1.30523C19.2802 1.60969 19.2934 2.09005 19.5979 2.37822L21.2792 3.96958C20.2262 4.35971 19.4733 5.37477 19.4733 6.56183C19.4733 7.797 20.2885 8.84596 21.4088 9.19814V18.5887C21.4088 18.8402 21.2039 19.0446 20.9529 19.0446C20.7014 19.0446 20.497 18.8402 20.497 18.5887V13.817C20.497 12.5621 19.4754 11.5405 18.2205 11.5405H16.46V2.53291C16.46 1.27699 15.4389 0.255859 14.183 0.255859H4.31476C3.05935 0.255859 2.03771 1.27699 2.03771 2.53291V19.4226H1.77509C0.795956 19.4226 0 20.219 0 21.1982V23.9858C0 24.4053 0.339534 24.7448 0.759017 24.7448H17.7392C18.1582 24.7448 18.4983 24.4053 18.4983 23.9858V21.1982C18.4983 20.219 17.7018 19.4226 16.7227 19.4226H16.46V13.0585H18.2205C18.6384 13.0585 18.979 13.399 18.979 13.817V18.5887C18.979 19.6771 19.8645 20.5626 20.9529 20.5626C22.0414 20.5626 22.9269 19.6771 22.9269 18.5887V9.23807C24.1175 8.93041 25 7.84704 25 6.56177C25 5.65399 24.5598 4.8469 23.8817 4.34241ZM14.942 19.4226H3.55574V2.53291C3.55574 2.11444 3.89629 1.77389 4.31476 1.77389H14.183C14.602 1.77389 14.942 2.11444 14.942 2.53291C14.942 2.82336 14.942 19.1666 14.942 19.4226ZM16.9802 21.1982V23.2268H1.51803V21.1982C1.51803 21.056 1.6334 20.9406 1.77509 20.9406C2.36272 20.9406 16.0161 20.9406 16.7227 20.9406C16.8649 20.9406 16.9802 21.056 16.9802 21.1982ZM22.2367 7.80707C21.5515 7.80707 20.9914 7.24929 20.9914 6.56177C20.9914 5.87512 21.55 5.31648 22.2367 5.31648C22.9233 5.31648 23.482 5.87512 23.482 6.56177C23.482 7.24879 22.9229 7.80707 22.2367 7.80707Z" fill="#1D1D1D"/>
</g>
<defs>
<clipPath id="clip0_935_25591">
<rect width="25" height="25" fill="white"/>
</clipPath>
</defs>
</svg>
